<svg xmlns="http://www.w3.org/2000/svg" xmlns:xlink="http://www.w3.org/1999/xlink" contentStyleType="text/css" data-diagram-type="ACTIVITY" height="1082px" preserveAspectRatio="none" style="width:895px;height:1082px;" version="1.1" viewBox="0 0 895 1082" width="895px" zoomAndPan="magnify"><?plantuml 1.2026.6?><defs/><g><ellipse cx="445.7207" cy="25" fill="#4A148C" rx="10" ry="10" style="stroke:#222222;stroke-width:1;"/><rect fill="#E6E6FA" height="35.1328" rx="12.5" ry="12.5" style="stroke:#4A148C;stroke-width:0.5;" width="121.6641" x="384.8887" y="55"/><text fill="#2A0A4A" font-family="Helvetica" font-size="13" lengthAdjust="spacing" textLength="38.4795" x="394.8887" y="77.0669">Agent</text><text fill="#2A0A4A" font-family="Helvetica" font-size="13" lengthAdjust="spacing" textLength="4.1323" x="433.3682" y="77.0669">&#160;</text><text fill="#2A0A4A" font-family="Helvetica" font-size="13" lengthAdjust="spacing" textLength="59.0522" x="437.5005" y="77.0669">reconcile</text><rect fill="none" height="360.4453" style="stroke:#000000;stroke-width:1.5;" width="651.2974" x="120.072" y="100.1328"/><path d="M413.7869,100.1328 L413.7869,108.2656 L403.7869,118.2656 L120.072,118.2656" fill="none" style="stroke:#000000;stroke-width:1.5;"/><text fill="#000000" font-family="Helvetica" font-size="13" lengthAdjust="spacing" textLength="283.7148" x="123.072" y="113.1997">1 to 4: wake, guards, budget, degrade gate</text><polygon fill="#FFF8DC" points="164.7922,138.2656,290.0012,138.2656,302.0012,152.2344,290.0012,166.2031,164.7922,166.2031,152.7922,152.2344,164.7922,138.2656" style="stroke:#8B7500;stroke-width:0.5;stroke-linejoin:miter;stroke-miterlimit:10;"/><text fill="#000000" font-family="Helvetica" font-size="11" lengthAdjust="spacing" textLength="19.0083" x="231.3967" y="176.4136">yes</text><text fill="#2A0A4A" font-family="Helvetica" font-size="12" lengthAdjust="spacing" textLength="125.209" x="164.7922" y="149.4043">kaalm.io/wake=true,</text><text fill="#2A0A4A" font-family="Helvetica" font-size="12" lengthAdjust="spacing" textLength="19.6523" x="164.7922" y="163.373">not</text><text fill="#2A0A4A" font-family="Helvetica" font-size="12" lengthAdjust="spacing" textLength="3.8145" x="184.4446" y="163.373">&#160;</text><text fill="#2A0A4A" font-family="Helvetica" font-size="12" lengthAdjust="spacing" textLength="76.8809" x="188.259" y="163.373">Hibernating?</text><rect fill="#E6E6FA" height="50.2656" rx="12.5" ry="12.5" style="stroke:#4A148C;stroke-width:0.5;" width="194.6494" x="130.072" y="199.0078"/><text fill="#2A0A4A" font-family="Helvetica" font-size="13" lengthAdjust="spacing" textLength="76.9146" x="140.072" y="221.0747">Hibernated:</text><text fill="#2A0A4A" font-family="Helvetica" font-size="13" lengthAdjust="spacing" textLength="4.1323" x="216.9866" y="221.0747">&#160;</text><text fill="#2A0A4A" font-family="Helvetica" font-size="13" lengthAdjust="spacing" textLength="69.1895" x="221.1189" y="221.0747">Resuming;</text><text fill="#2A0A4A" font-family="Helvetica" font-size="13" lengthAdjust="spacing" textLength="26.3809" x="140.072" y="236.2075">else</text><text fill="#2A0A4A" font-family="Helvetica" font-size="13" lengthAdjust="spacing" textLength="4.1323" x="166.4529" y="236.2075">&#160;</text><text fill="#2A0A4A" font-family="Helvetica" font-size="13" lengthAdjust="spacing" textLength="53.7837" x="170.5852" y="236.2075">remove,</text><text fill="#2A0A4A" font-family="Helvetica" font-size="13" lengthAdjust="spacing" textLength="4.1323" x="224.3689" y="236.2075">&#160;</text><text fill="#2A0A4A" font-family="Helvetica" font-size="13" lengthAdjust="spacing" textLength="86.2202" x="228.5012" y="236.2075">WakeIgnored</text><polygon fill="#FFF8DC" points="404.5142,138.2656,495.2759,138.2656,507.2759,152.2344,495.2759,166.2031,404.5142,166.2031,392.5142,152.2344,404.5142,138.2656" style="stroke:#8B7500;stroke-width:0.5;stroke-linejoin:miter;stroke-miterlimit:10;"/><text fill="#000000" font-family="Helvetica" font-size="11" lengthAdjust="spacing" textLength="19.0083" x="453.895" y="176.4136">yes</text><text fill="#2A0A4A" font-family="Helvetica" font-size="12" lengthAdjust="spacing" textLength="69.2344" x="404.5142" y="149.4043">namespace</text><text fill="#2A0A4A" font-family="Helvetica" font-size="12" lengthAdjust="spacing" textLength="3.8145" x="473.7485" y="149.4043">&#160;</text><text fill="#2A0A4A" font-family="Helvetica" font-size="12" lengthAdjust="spacing" textLength="9.5859" x="477.563" y="149.4043">is</text><text fill="#2A0A4A" font-family="Helvetica" font-size="12" lengthAdjust="spacing" textLength="90.7617" x="404.5142" y="163.373">kaalm-system?</text><rect fill="#E6E6FA" height="50.2656" rx="12.5" ry="12.5" style="stroke:#4A148C;stroke-width:0.5;" width="210.3472" x="344.7214" y="199.0078"/><text fill="#2A0A4A" font-family="Helvetica" font-size="13" lengthAdjust="spacing" textLength="85.6616" x="354.7214" y="221.0747">Ready=False</text><text fill="#2A0A4A" font-family="Helvetica" font-size="13" lengthAdjust="spacing" textLength="190.3472" x="354.7214" y="236.2075">SystemNamespaceForbidden</text><polygon fill="#FFF8DC" points="587.0686,140.2344,699.3694,140.2344,711.3694,152.2344,699.3694,164.2344,587.0686,164.2344,575.0686,152.2344,587.0686,140.2344" style="stroke:#8B7500;stroke-width:0.5;stroke-linejoin:miter;stroke-miterlimit:10;"/><text fill="#000000" font-family="Helvetica" font-size="11" lengthAdjust="spacing" textLength="13.7017" x="647.219" y="174.4448">no</text><text fill="#2A0A4A" font-family="Helvetica" font-size="12" lengthAdjust="spacing" textLength="67.0898" x="587.0686" y="156.3887">AgentClass</text><text fill="#2A0A4A" font-family="Helvetica" font-size="12" lengthAdjust="spacing" textLength="3.8145" x="654.1584" y="156.3887">&#160;</text><text fill="#2A0A4A" font-family="Helvetica" font-size="12" lengthAdjust="spacing" textLength="41.3965" x="657.9729" y="156.3887">exists?</text><text fill="#000000" font-family="Helvetica" font-size="11" lengthAdjust="spacing" textLength="19.0083" x="711.3694" y="149.6401">yes</text><rect fill="#E6E6FA" height="50.2656" rx="12.5" ry="12.5" style="stroke:#4A148C;stroke-width:0.5;" width="129.5415" x="578.4482" y="197.0391"/><text fill="#2A0A4A" font-family="Helvetica" font-size="13" lengthAdjust="spacing" textLength="85.6616" x="588.4482" y="219.106">Ready=False</text><text fill="#2A0A4A" font-family="Helvetica" font-size="13" lengthAdjust="spacing" textLength="109.5415" x="588.4482" y="234.2388">InvalidReference</text><rect fill="#E6E6FA" height="50.2656" rx="12.5" ry="12.5" style="stroke:#4A148C;stroke-width:0.5;" width="148.3115" x="371.5649" y="269.2734"/><text fill="#2A0A4A" font-family="Helvetica" font-size="13" lengthAdjust="spacing" textLength="64.0732" x="381.5649" y="291.3403">Degraded</text><text fill="#2A0A4A" font-family="Helvetica" font-size="13" lengthAdjust="spacing" textLength="4.1323" x="445.6382" y="291.3403">&#160;</text><text fill="#2A0A4A" font-family="Helvetica" font-size="13" lengthAdjust="spacing" textLength="60.106" x="449.7705" y="291.3403">condition</text><text fill="#2A0A4A" font-family="Helvetica" font-size="13" lengthAdjust="spacing" textLength="30.5386" x="381.5649" y="306.4731">from</text><text fill="#2A0A4A" font-family="Helvetica" font-size="13" lengthAdjust="spacing" textLength="4.1323" x="412.1035" y="306.4731">&#160;</text><text fill="#2A0A4A" font-family="Helvetica" font-size="13" lengthAdjust="spacing" textLength="46.0903" x="416.2358" y="306.4731">budget</text><text fill="#2A0A4A" font-family="Helvetica" font-size="13" lengthAdjust="spacing" textLength="4.1323" x="462.3262" y="306.4731">&#160;</text><text fill="#2A0A4A" font-family="Helvetica" font-size="13" lengthAdjust="spacing" textLength="32.9316" x="466.4585" y="306.4731">state</text><polygon fill="#FFF8DC" points="284.1523,339.5391,392.709,339.5391,404.709,353.5078,392.709,367.4766,284.1523,367.4766,272.1523,353.5078,284.1523,339.5391" style="stroke:#8B7500;stroke-width:0.5;stroke-linejoin:miter;stroke-miterlimit:10;"/><text fill="#000000" font-family="Helvetica" font-size="11" lengthAdjust="spacing" textLength="13.7017" x="342.4307" y="377.687">no</text><text fill="#2A0A4A" font-family="Helvetica" font-size="12" lengthAdjust="spacing" textLength="33.9023" x="284.1523" y="350.6777">every</text><text fill="#2A0A4A" font-family="Helvetica" font-size="12" lengthAdjust="spacing" textLength="3.8145" x="318.0547" y="350.6777">&#160;</text><text fill="#2A0A4A" font-family="Helvetica" font-size="12" lengthAdjust="spacing" textLength="70.8398" x="321.8691" y="350.6777">cross-check</text><text fill="#2A0A4A" font-family="Helvetica" font-size="12" lengthAdjust="spacing" textLength="47.4785" x="284.1523" y="364.6465">passes?</text><rect fill="#E6E6FA" height="35.1328" rx="12.5" ry="12.5" style="stroke:#4A148C;stroke-width:0.5;" width="134.1943" x="271.3335" y="400.2813"/><text fill="#2A0A4A" font-family="Helvetica" font-size="13" lengthAdjust="spacing" textLength="114.1943" x="281.3335" y="422.3481">phase=Degraded</text><polygon fill="#FFF8DC" points="437.5278,341.5078,558.1079,341.5078,570.1079,353.5078,558.1079,365.5078,437.5278,365.5078,425.5278,353.5078,437.5278,341.5078" style="stroke:#8B7500;stroke-width:0.5;stroke-linejoin:miter;stroke-miterlimit:10;"/><text fill="#000000" font-family="Helvetica" font-size="11" lengthAdjust="spacing" textLength="19.0083" x="501.8179" y="375.7183">yes</text><text fill="#2A0A4A" font-family="Helvetica" font-size="12" lengthAdjust="spacing" textLength="62.959" x="437.5278" y="357.6621">Degraded,</text><text fill="#2A0A4A" font-family="Helvetica" font-size="12" lengthAdjust="spacing" textLength="3.8145" x="500.4868" y="357.6621">&#160;</text><text fill="#2A0A4A" font-family="Helvetica" font-size="12" lengthAdjust="spacing" textLength="14.0215" x="504.3013" y="357.6621">all</text><text fill="#2A0A4A" font-family="Helvetica" font-size="12" lengthAdjust="spacing" textLength="3.8145" x="518.3228" y="357.6621">&#160;</text><text fill="#2A0A4A" font-family="Helvetica" font-size="12" lengthAdjust="spacing" textLength="35.9707" x="522.1372" y="357.6621">clear?</text><text fill="#000000" font-family="Helvetica" font-size="11" lengthAdjust="spacing" textLength="13.7017" x="570.1079" y="350.9136">no</text><rect fill="#E6E6FA" height="50.2656" rx="12.5" ry="12.5" style="stroke:#4A148C;stroke-width:0.5;" width="144.4839" x="425.5759" y="398.3125"/><text fill="#2A0A4A" font-family="Helvetica" font-size="13" lengthAdjust="spacing" textLength="46.5093" x="435.5759" y="420.3794">restore</text><text fill="#2A0A4A" font-family="Helvetica" font-size="13" lengthAdjust="spacing" textLength="124.4839" x="435.5759" y="435.5122">preDegradedPhase</text><rect fill="none" height="168.125" style="stroke:#000000;stroke-width:1.5;" width="550.6006" x="170.4204" y="470.5781"/><path d="M421.4854,470.5781 L421.4854,478.7109 L411.4854,488.7109 L170.4204,488.7109" fill="none" style="stroke:#000000;stroke-width:1.5;"/><text fill="#000000" font-family="Helvetica" font-size="13" lengthAdjust="spacing" textLength="241.0649" x="173.4204" y="483.645">5 to 7: hibernation, gates, Certificate</text><polygon fill="#FFF8DC" points="192.4204,508.7109,279.022,508.7109,291.022,522.6797,279.022,536.6484,192.4204,536.6484,180.4204,522.6797,192.4204,508.7109" style="stroke:#8B7500;stroke-width:0.5;stroke-linejoin:miter;stroke-miterlimit:10;"/><text fill="#000000" font-family="Helvetica" font-size="11" lengthAdjust="spacing" textLength="19.0083" x="239.7212" y="546.8589">yes</text><text fill="#2A0A4A" font-family="Helvetica" font-size="12" lengthAdjust="spacing" textLength="70.5117" x="192.4204" y="519.8496">Hibernating</text><text fill="#2A0A4A" font-family="Helvetica" font-size="12" lengthAdjust="spacing" textLength="3.8145" x="262.9321" y="519.8496">&#160;</text><text fill="#2A0A4A" font-family="Helvetica" font-size="12" lengthAdjust="spacing" textLength="12.2754" x="266.7466" y="519.8496">or</text><text fill="#2A0A4A" font-family="Helvetica" font-size="12" lengthAdjust="spacing" textLength="73.3242" x="192.4204" y="533.8184">Hibernated?</text><rect fill="#E6E6FA" height="50.2656" rx="12.5" ry="12.5" style="stroke:#4A148C;stroke-width:0.5;" width="106.6519" x="182.3953" y="569.4531"/><text fill="#2A0A4A" font-family="Helvetica" font-size="13" lengthAdjust="spacing" textLength="32.8999" x="192.3953" y="591.52">drive</text><text fill="#2A0A4A" font-family="Helvetica" font-size="13" lengthAdjust="spacing" textLength="4.1323" x="225.2952" y="591.52">&#160;</text><text fill="#2A0A4A" font-family="Helvetica" font-size="13" lengthAdjust="spacing" textLength="13.2983" x="229.4275" y="591.52">or</text><text fill="#2A0A4A" font-family="Helvetica" font-size="13" lengthAdjust="spacing" textLength="4.1323" x="242.7258" y="591.52">&#160;</text><text fill="#2A0A4A" font-family="Helvetica" font-size="13" lengthAdjust="spacing" textLength="32.189" x="246.8582" y="591.52">hold,</text><text fill="#2A0A4A" font-family="Helvetica" font-size="13" lengthAdjust="spacing" textLength="29.7642" x="192.3953" y="606.6528">pass</text><text fill="#2A0A4A" font-family="Helvetica" font-size="13" lengthAdjust="spacing" textLength="4.1323" x="222.1594" y="606.6528">&#160;</text><text fill="#2A0A4A" font-family="Helvetica" font-size="13" lengthAdjust="spacing" textLength="31.2622" x="226.2917" y="606.6528">ends</text><polygon fill="#FFF8DC" points="324.0996,501.7266,493.6348,501.7266,505.6348,522.6797,493.6348,543.6328,324.0996,543.6328,312.0996,522.6797,324.0996,501.7266" style="stroke:#8B7500;stroke-width:0.5;stroke-linejoin:miter;stroke-miterlimit:10;"/><text fill="#000000" font-family="Helvetica" font-size="11" lengthAdjust="spacing" textLength="13.7017" x="412.8672" y="553.8433">no</text><text fill="#2A0A4A" font-family="Helvetica" font-size="12" lengthAdjust="spacing" textLength="29.7891" x="324.0996" y="512.8652">class</text><text fill="#2A0A4A" font-family="Helvetica" font-size="12" lengthAdjust="spacing" textLength="3.8145" x="353.8887" y="512.8652">&#160;</text><text fill="#2A0A4A" font-family="Helvetica" font-size="12" lengthAdjust="spacing" textLength="35.748" x="357.7031" y="512.8652">CIDRs</text><text fill="#2A0A4A" font-family="Helvetica" font-size="12" lengthAdjust="spacing" textLength="3.8145" x="393.4512" y="512.8652">&#160;</text><text fill="#2A0A4A" font-family="Helvetica" font-size="12" lengthAdjust="spacing" textLength="32.7832" x="397.2656" y="512.8652">valid;</text><text fill="#2A0A4A" font-family="Helvetica" font-size="12" lengthAdjust="spacing" textLength="3.8145" x="430.0488" y="512.8652">&#160;</text><text fill="#2A0A4A" font-family="Helvetica" font-size="12" lengthAdjust="spacing" textLength="41.1914" x="433.8633" y="512.8652">image,</text><text fill="#2A0A4A" font-family="Helvetica" font-size="12" lengthAdjust="spacing" textLength="85.2363" x="324.0996" y="526.834">existingClaim,</text><text fill="#2A0A4A" font-family="Helvetica" font-size="12" lengthAdjust="spacing" textLength="3.8145" x="409.3359" y="526.834">&#160;</text><text fill="#2A0A4A" font-family="Helvetica" font-size="12" lengthAdjust="spacing" textLength="21.8906" x="413.1504" y="526.834">pull</text><text fill="#2A0A4A" font-family="Helvetica" font-size="12" lengthAdjust="spacing" textLength="3.8145" x="435.041" y="526.834">&#160;</text><text fill="#2A0A4A" font-family="Helvetica" font-size="12" lengthAdjust="spacing" textLength="48.6855" x="438.8555" y="526.834">Secrets,</text><text fill="#2A0A4A" font-family="Helvetica" font-size="12" lengthAdjust="spacing" textLength="45.832" x="324.0996" y="540.8027">handler</text><text fill="#2A0A4A" font-family="Helvetica" font-size="12" lengthAdjust="spacing" textLength="3.8145" x="369.9316" y="540.8027">&#160;</text><text fill="#2A0A4A" font-family="Helvetica" font-size="12" lengthAdjust="spacing" textLength="63.8262" x="373.7461" y="540.8027">ConfigMap</text><text fill="#2A0A4A" font-family="Helvetica" font-size="12" lengthAdjust="spacing" textLength="3.8145" x="437.5723" y="540.8027">&#160;</text><text fill="#2A0A4A" font-family="Helvetica" font-size="12" lengthAdjust="spacing" textLength="52.248" x="441.3867" y="540.8027">present?</text><rect fill="#E6E6FA" height="50.2656" rx="12.5" ry="12.5" style="stroke:#4A148C;stroke-width:0.5;" width="195.6904" x="311.022" y="576.4375"/><text fill="#2A0A4A" font-family="Helvetica" font-size="13" lengthAdjust="spacing" textLength="90.0415" x="321.022" y="598.5044">Ready=False;</text><text fill="#2A0A4A" font-family="Helvetica" font-size="13" lengthAdjust="spacing" textLength="4.1323" x="411.0635" y="598.5044">&#160;</text><text fill="#2A0A4A" font-family="Helvetica" font-size="13" lengthAdjust="spacing" textLength="54.0693" x="415.1958" y="598.5044">requeue</text><text fill="#2A0A4A" font-family="Helvetica" font-size="13" lengthAdjust="spacing" textLength="4.1323" x="469.2651" y="598.5044">&#160;</text><text fill="#2A0A4A" font-family="Helvetica" font-size="13" lengthAdjust="spacing" textLength="23.3149" x="473.3975" y="598.5044">30s</text><text fill="#2A0A4A" font-family="Helvetica" font-size="13" lengthAdjust="spacing" textLength="17.875" x="321.022" y="613.6372">for</text><text fill="#2A0A4A" font-family="Helvetica" font-size="13" lengthAdjust="spacing" textLength="4.1323" x="338.897" y="613.6372">&#160;</text><text fill="#2A0A4A" font-family="Helvetica" font-size="13" lengthAdjust="spacing" textLength="16.2056" x="343.0293" y="613.6372">an</text><text fill="#2A0A4A" font-family="Helvetica" font-size="13" lengthAdjust="spacing" textLength="4.1323" x="359.2349" y="613.6372">&#160;</text><text fill="#2A0A4A" font-family="Helvetica" font-size="13" lengthAdjust="spacing" textLength="71.811" x="363.3672" y="613.6372">unwatched</text><text fill="#2A0A4A" font-family="Helvetica" font-size="13" lengthAdjust="spacing" textLength="4.1323" x="435.1782" y="613.6372">&#160;</text><text fill="#2A0A4A" font-family="Helvetica" font-size="13" lengthAdjust="spacing" textLength="40.0601" x="439.3105" y="613.6372">object</text><polygon fill="#FFF8DC" points="538.7124,510.6797,649.021,510.6797,661.021,522.6797,649.021,534.6797,538.7124,534.6797,526.7124,522.6797,538.7124,510.6797" style="stroke:#8B7500;stroke-width:0.5;stroke-linejoin:miter;stroke-miterlimit:10;"/><text fill="#000000" font-family="Helvetica" font-size="11" lengthAdjust="spacing" textLength="13.7017" x="597.8667" y="544.8901">no</text><text fill="#2A0A4A" font-family="Helvetica" font-size="12" lengthAdjust="spacing" textLength="62.332" x="538.7124" y="526.834">Certificate</text><text fill="#2A0A4A" font-family="Helvetica" font-size="12" lengthAdjust="spacing" textLength="3.8145" x="601.0444" y="526.834">&#160;</text><text fill="#2A0A4A" font-family="Helvetica" font-size="12" lengthAdjust="spacing" textLength="44.1621" x="604.8589" y="526.834">Ready?</text><text fill="#000000" font-family="Helvetica" font-size="11" lengthAdjust="spacing" textLength="19.0083" x="661.021" y="520.0854">yes</text><rect fill="#E6E6FA" height="50.2656" rx="12.5" ry="12.5" style="stroke:#4A148C;stroke-width:0.5;" width="99.1235" x="544.3049" y="567.4844"/><text fill="#2A0A4A" font-family="Helvetica" font-size="13" lengthAdjust="spacing" textLength="79.1235" x="554.3049" y="589.5513">Provisioning</text><text fill="#2A0A4A" font-family="Helvetica" font-size="13" lengthAdjust="spacing" textLength="54.0693" x="554.3049" y="604.6841">requeue</text><text fill="#2A0A4A" font-family="Helvetica" font-size="13" lengthAdjust="spacing" textLength="4.1323" x="608.3743" y="604.6841">&#160;</text><text fill="#2A0A4A" font-family="Helvetica" font-size="13" lengthAdjust="spacing" textLength="15.0439" x="612.5066" y="604.6841">5s</text><rect fill="none" height="413.8359" style="stroke:#000000;stroke-width:1.5;" width="859.4414" x="16" y="648.7031"/><path d="M269.7881,648.7031 L269.7881,656.8359 L259.7881,666.8359 L16,666.8359" fill="none" style="stroke:#000000;stroke-width:1.5;"/><text fill="#000000" font-family="Helvetica" font-size="13" lengthAdjust="spacing" textLength="243.7881" x="19" y="661.77">8 to 11: children, Pod, activity, status</text><rect fill="#E6E6FA" height="50.2656" rx="12.5" ry="12.5" style="stroke:#4A148C;stroke-width:0.5;" width="131.6616" x="379.8899" y="683.8359"/><text fill="#2A0A4A" font-family="Helvetica" font-size="13" lengthAdjust="spacing" textLength="21.2773" x="389.8899" y="705.9028">SA,</text><text fill="#2A0A4A" font-family="Helvetica" font-size="13" lengthAdjust="spacing" textLength="4.1323" x="411.1672" y="705.9028">&#160;</text><text fill="#2A0A4A" font-family="Helvetica" font-size="13" lengthAdjust="spacing" textLength="52.1777" x="415.2996" y="705.9028">Service,</text><text fill="#2A0A4A" font-family="Helvetica" font-size="13" lengthAdjust="spacing" textLength="4.1323" x="467.4773" y="705.9028">&#160;</text><text fill="#2A0A4A" font-family="Helvetica" font-size="13" lengthAdjust="spacing" textLength="29.9419" x="471.6096" y="705.9028">PVC,</text><text fill="#2A0A4A" font-family="Helvetica" font-size="13" lengthAdjust="spacing" textLength="92.1362" x="389.8899" y="721.0356">NetworkPolicy</text><polygon fill="#FFF8DC" points="88.5967,754.1016,117.1611,754.1016,129.1611,766.1016,117.1611,778.1016,88.5967,778.1016,76.5967,766.1016,88.5967,754.1016" style="stroke:#8B7500;stroke-width:0.5;stroke-linejoin:miter;stroke-miterlimit:10;"/><text fill="#000000" font-family="Helvetica" font-size="11" lengthAdjust="spacing" textLength="27.4409" x="106.8789" y="788.312">none</text><text fill="#2A0A4A" font-family="Helvetica" font-size="12" lengthAdjust="spacing" textLength="28.5645" x="88.5967" y="770.2559">Pod?</text><rect fill="#E6E6FA" height="50.2656" rx="12.5" ry="12.5" style="stroke:#4A148C;stroke-width:0.5;" width="153.7578" x="26" y="810.9063"/><text fill="#2A0A4A" font-family="Helvetica" font-size="13" lengthAdjust="spacing" textLength="45.6841" x="36" y="832.9731">create,</text><text fill="#2A0A4A" font-family="Helvetica" font-size="13" lengthAdjust="spacing" textLength="4.1323" x="81.6841" y="832.9731">&#160;</text><text fill="#2A0A4A" font-family="Helvetica" font-size="13" lengthAdjust="spacing" textLength="79.1235" x="85.8164" y="832.9731">Provisioning</text><text fill="#2A0A4A" font-family="Helvetica" font-size="13" lengthAdjust="spacing" textLength="69.8813" x="36" y="848.106">(Resuming</text><text fill="#2A0A4A" font-family="Helvetica" font-size="13" lengthAdjust="spacing" textLength="4.1323" x="105.8813" y="848.106">&#160;</text><text fill="#2A0A4A" font-family="Helvetica" font-size="13" lengthAdjust="spacing" textLength="8.1885" x="110.0137" y="848.106">if</text><text fill="#2A0A4A" font-family="Helvetica" font-size="13" lengthAdjust="spacing" textLength="4.1323" x="118.2021" y="848.106">&#160;</text><text fill="#2A0A4A" font-family="Helvetica" font-size="13" lengthAdjust="spacing" textLength="47.4233" x="122.3345" y="848.106">woken)</text><polygon fill="#FFF8DC" points="243.4229,752.1328,309.8506,752.1328,321.8506,766.1016,309.8506,780.0703,243.4229,780.0703,231.4229,766.1016,243.4229,752.1328" style="stroke:#8B7500;stroke-width:0.5;stroke-linejoin:miter;stroke-miterlimit:10;"/><text fill="#000000" font-family="Helvetica" font-size="11" lengthAdjust="spacing" textLength="19.0083" x="280.6367" y="790.2808">yes</text><text fill="#2A0A4A" font-family="Helvetica" font-size="12" lengthAdjust="spacing" textLength="50.3379" x="243.4229" y="763.2715">terminal</text><text fill="#2A0A4A" font-family="Helvetica" font-size="12" lengthAdjust="spacing" textLength="3.8145" x="293.7607" y="763.2715">&#160;</text><text fill="#2A0A4A" font-family="Helvetica" font-size="12" lengthAdjust="spacing" textLength="12.2754" x="297.5752" y="763.2715">or</text><text fill="#2A0A4A" font-family="Helvetica" font-size="12" lengthAdjust="spacing" textLength="27.8496" x="243.4229" y="777.2402">spec</text><text fill="#2A0A4A" font-family="Helvetica" font-size="12" lengthAdjust="spacing" textLength="3.8145" x="271.2725" y="777.2402">&#160;</text><text fill="#2A0A4A" font-family="Helvetica" font-size="12" lengthAdjust="spacing" textLength="31.1836" x="275.0869" y="777.2402">drift?</text><rect fill="#E6E6FA" height="50.2656" rx="12.5" ry="12.5" style="stroke:#4A148C;stroke-width:0.5;" width="153.7578" x="199.7578" y="812.875"/><text fill="#2A0A4A" font-family="Helvetica" font-size="13" lengthAdjust="spacing" textLength="45.0874" x="209.7578" y="834.9419">delete,</text><text fill="#2A0A4A" font-family="Helvetica" font-size="13" lengthAdjust="spacing" textLength="4.1323" x="254.8452" y="834.9419">&#160;</text><text fill="#2A0A4A" font-family="Helvetica" font-size="13" lengthAdjust="spacing" textLength="79.1235" x="258.9775" y="834.9419">Provisioning</text><text fill="#2A0A4A" font-family="Helvetica" font-size="13" lengthAdjust="spacing" textLength="69.8813" x="209.7578" y="850.0747">(Resuming</text><text fill="#2A0A4A" font-family="Helvetica" font-size="13" lengthAdjust="spacing" textLength="4.1323" x="279.6392" y="850.0747">&#160;</text><text fill="#2A0A4A" font-family="Helvetica" font-size="13" lengthAdjust="spacing" textLength="8.1885" x="283.7715" y="850.0747">if</text><text fill="#2A0A4A" font-family="Helvetica" font-size="13" lengthAdjust="spacing" textLength="4.1323" x="291.96" y="850.0747">&#160;</text><text fill="#2A0A4A" font-family="Helvetica" font-size="13" lengthAdjust="spacing" textLength="47.4233" x="296.0923" y="850.0747">woken)</text><polygon fill="#FFF8DC" points="385.5156,752.1328,498.0039,752.1328,510.0039,766.1016,498.0039,780.0703,385.5156,780.0703,373.5156,766.1016,385.5156,752.1328" style="stroke:#8B7500;stroke-width:0.5;stroke-linejoin:miter;stroke-miterlimit:10;"/><text fill="#000000" font-family="Helvetica" font-size="11" lengthAdjust="spacing" textLength="19.0083" x="445.7598" y="790.2808">yes</text><text fill="#2A0A4A" font-family="Helvetica" font-size="12" lengthAdjust="spacing" textLength="32.7422" x="385.5156" y="763.2715">crash</text><text fill="#2A0A4A" font-family="Helvetica" font-size="12" lengthAdjust="spacing" textLength="3.8145" x="418.2578" y="763.2715">&#160;</text><text fill="#2A0A4A" font-family="Helvetica" font-size="12" lengthAdjust="spacing" textLength="25.6348" x="422.0723" y="763.2715">loop</text><text fill="#2A0A4A" font-family="Helvetica" font-size="12" lengthAdjust="spacing" textLength="3.8145" x="447.707" y="763.2715">&#160;</text><text fill="#2A0A4A" font-family="Helvetica" font-size="12" lengthAdjust="spacing" textLength="12.2754" x="451.5215" y="763.2715">or</text><text fill="#2A0A4A" font-family="Helvetica" font-size="12" lengthAdjust="spacing" textLength="112.4883" x="385.5156" y="777.2402">ImagePullBackOff?</text><rect fill="#E6E6FA" height="35.1328" rx="12.5" ry="12.5" style="stroke:#4A148C;stroke-width:0.5;" width="109.0386" x="387.2405" y="812.875"/><text fill="#2A0A4A" font-family="Helvetica" font-size="13" lengthAdjust="spacing" textLength="89.0386" x="397.2405" y="834.9419">phase=Failed</text><polygon fill="#FFF8DC" points="588.7627,754.1016,632.9248,754.1016,644.9248,766.1016,632.9248,778.1016,588.7627,778.1016,576.7627,766.1016,588.7627,754.1016" style="stroke:#8B7500;stroke-width:0.5;stroke-linejoin:miter;stroke-miterlimit:10;"/><text fill="#000000" font-family="Helvetica" font-size="11" lengthAdjust="spacing" textLength="19.0083" x="614.8438" y="788.312">yes</text><text fill="#2A0A4A" font-family="Helvetica" font-size="12" lengthAdjust="spacing" textLength="44.1621" x="588.7627" y="770.2559">Ready?</text><text fill="#000000" font-family="Helvetica" font-size="11" lengthAdjust="spacing" textLength="13.7017" x="644.9248" y="763.5073">no</text><rect fill="#E6E6FA" height="35.1328" rx="12.5" ry="12.5" style="stroke:#4A148C;stroke-width:0.5;" width="161.6797" x="530.0039" y="810.9063"/><text fill="#2A0A4A" font-family="Helvetica" font-size="13" lengthAdjust="spacing" textLength="57.9858" x="540.0039" y="832.9731">Running,</text><text fill="#2A0A4A" font-family="Helvetica" font-size="13" lengthAdjust="spacing" textLength="4.1323" x="597.9897" y="832.9731">&#160;</text><text fill="#2A0A4A" font-family="Helvetica" font-size="13" lengthAdjust="spacing" textLength="13.2983" x="602.1221" y="832.9731">or</text><text fill="#2A0A4A" font-family="Helvetica" font-size="13" lengthAdjust="spacing" textLength="4.1323" x="615.4204" y="832.9731">&#160;</text><text fill="#2A0A4A" font-family="Helvetica" font-size="13" lengthAdjust="spacing" textLength="23.6958" x="619.5527" y="832.9731">Idle</text><text fill="#2A0A4A" font-family="Helvetica" font-size="13" lengthAdjust="spacing" textLength="4.1323" x="643.2485" y="832.9731">&#160;</text><text fill="#2A0A4A" font-family="Helvetica" font-size="13" lengthAdjust="spacing" textLength="34.3027" x="647.3809" y="832.9731">stays</text><rect fill="#E6E6FA" height="50.2656" rx="12.5" ry="12.5" style="stroke:#4A148C;stroke-width:0.5;" width="153.7578" x="711.6836" y="807.5039"/><text fill="#2A0A4A" font-family="Helvetica" font-size="13" lengthAdjust="spacing" textLength="79.1235" x="721.6836" y="829.5708">Provisioning</text><text fill="#2A0A4A" font-family="Helvetica" font-size="13" lengthAdjust="spacing" textLength="69.8813" x="721.6836" y="844.7036">(Resuming</text><text fill="#2A0A4A" font-family="Helvetica" font-size="13" lengthAdjust="spacing" textLength="4.1323" x="791.5649" y="844.7036">&#160;</text><text fill="#2A0A4A" font-family="Helvetica" font-size="13" lengthAdjust="spacing" textLength="8.1885" x="795.6973" y="844.7036">if</text><text fill="#2A0A4A" font-family="Helvetica" font-size="13" lengthAdjust="spacing" textLength="4.1323" x="803.8857" y="844.7036">&#160;</text><text fill="#2A0A4A" font-family="Helvetica" font-size="13" lengthAdjust="spacing" textLength="47.4233" x="808.0181" y="844.7036">woken)</text><rect fill="#E6E6FA" height="50.2656" rx="12.5" ry="12.5" style="stroke:#4A148C;stroke-width:0.5;" width="128.6211" x="381.4102" y="903.1406"/><text fill="#2A0A4A" font-family="Helvetica" font-size="13" lengthAdjust="spacing" textLength="53.8535" x="391.4102" y="925.2075">Running</text><text fill="#2A0A4A" font-family="Helvetica" font-size="13" lengthAdjust="spacing" textLength="4.1323" x="445.2637" y="925.2075">&#160;</text><text fill="#2A0A4A" font-family="Helvetica" font-size="13" lengthAdjust="spacing" textLength="13.2983" x="449.396" y="925.2075">or</text><text fill="#2A0A4A" font-family="Helvetica" font-size="13" lengthAdjust="spacing" textLength="4.1323" x="462.6943" y="925.2075">&#160;</text><text fill="#2A0A4A" font-family="Helvetica" font-size="13" lengthAdjust="spacing" textLength="28.0757" x="466.8267" y="925.2075">Idle:</text><text fill="#2A0A4A" font-family="Helvetica" font-size="13" lengthAdjust="spacing" textLength="56.5703" x="391.4102" y="940.3403">evaluate</text><text fill="#2A0A4A" font-family="Helvetica" font-size="13" lengthAdjust="spacing" textLength="4.1323" x="447.9805" y="940.3403">&#160;</text><text fill="#2A0A4A" font-family="Helvetica" font-size="13" lengthAdjust="spacing" textLength="47.9185" x="452.1128" y="940.3403">activity</text><rect fill="#E6E6FA" height="35.1328" rx="12.5" ry="12.5" style="stroke:#4A148C;stroke-width:0.5;" width="169.3096" x="361.0659" y="973.4063"/><text fill="#2A0A4A" font-family="Helvetica" font-size="13" lengthAdjust="spacing" textLength="32.6841" x="371.0659" y="995.4731">write</text><text fill="#2A0A4A" font-family="Helvetica" font-size="13" lengthAdjust="spacing" textLength="4.1323" x="403.75" y="995.4731">&#160;</text><text fill="#2A0A4A" font-family="Helvetica" font-size="13" lengthAdjust="spacing" textLength="39.9458" x="407.8823" y="995.4731">status</text><text fill="#2A0A4A" font-family="Helvetica" font-size="13" lengthAdjust="spacing" textLength="4.1323" x="447.8281" y="995.4731">&#160;</text><text fill="#2A0A4A" font-family="Helvetica" font-size="13" lengthAdjust="spacing" textLength="8.1885" x="451.9604" y="995.4731">if</text><text fill="#2A0A4A" font-family="Helvetica" font-size="13" lengthAdjust="spacing" textLength="4.1323" x="460.1489" y="995.4731">&#160;</text><text fill="#2A0A4A" font-family="Helvetica" font-size="13" lengthAdjust="spacing" textLength="56.0942" x="464.2813" y="995.4731">changed</text><ellipse cx="445.7207" cy="1039.5391" fill="none" rx="11" ry="11" style="stroke:#222222;stroke-width:1;"/><ellipse cx="445.7207" cy="1039.5391" fill="#222222" rx="6" ry="6" style="stroke:#222222;stroke-width:1;"/><line style="stroke:#4A148C;stroke-width:1;" x1="445.7207" x2="445.7207" y1="35" y2="55"/><polygon fill="#4A148C" points="441.7207,45,445.7207,55,449.7207,45,445.7207,49" style="stroke:#4A148C;stroke-width:1;stroke-linejoin:miter;stroke-miterlimit:10;"/><line style="stroke:#4A148C;stroke-width:1;" x1="227.3967" x2="227.3967" y1="166.2031" y2="199.0078"/><polygon fill="#4A148C" points="223.3967,189.0078,227.3967,199.0078,231.3967,189.0078,227.3967,193.0078" style="stroke:#4A148C;stroke-width:1;stroke-linejoin:miter;stroke-miterlimit:10;"/><line style="stroke:#4A148C;stroke-width:1;" x1="449.895" x2="449.895" y1="166.2031" y2="199.0078"/><polygon fill="#4A148C" points="445.895,189.0078,449.895,199.0078,453.895,189.0078,449.895,193.0078" style="stroke:#4A148C;stroke-width:1;stroke-linejoin:miter;stroke-miterlimit:10;"/><line style="stroke:#4A148C;stroke-width:1;" x1="643.219" x2="643.219" y1="164.2344" y2="197.0391"/><polygon fill="#4A148C" points="639.219,187.0391,643.219,197.0391,647.219,187.0391,643.219,191.0391" style="stroke:#4A148C;stroke-width:1;stroke-linejoin:miter;stroke-miterlimit:10;"/><line style="stroke:#4A148C;stroke-width:1;" x1="302.0012" x2="392.5142" y1="152.2344" y2="152.2344"/><polygon fill="#4A148C" points="382.5142,148.2344,392.5142,152.2344,382.5142,156.2344,386.5142,152.2344" style="stroke:#4A148C;stroke-width:1;stroke-linejoin:miter;stroke-miterlimit:10;"/><line style="stroke:#4A148C;stroke-width:1;" x1="507.2759" x2="575.0686" y1="152.2344" y2="152.2344"/><polygon fill="#4A148C" points="565.0686,148.2344,575.0686,152.2344,565.0686,156.2344,569.0686,152.2344" style="stroke:#4A148C;stroke-width:1;stroke-linejoin:miter;stroke-miterlimit:10;"/><line style="stroke:#4A148C;stroke-width:1;" x1="445.7207" x2="445.7207" y1="90.1328" y2="123.2656"/><line style="stroke:#4A148C;stroke-width:1;" x1="445.7207" x2="227.3967" y1="123.2656" y2="123.2656"/><line style="stroke:#4A148C;stroke-width:1;" x1="227.3967" x2="227.3967" y1="123.2656" y2="138.2656"/><polygon fill="#4A148C" points="223.3967,128.2656,227.3967,138.2656,231.3967,128.2656,227.3967,132.2656" style="stroke:#4A148C;stroke-width:1;stroke-linejoin:miter;stroke-miterlimit:10;"/><line style="stroke:#4A148C;stroke-width:1;" x1="711.3694" x2="746.3694" y1="152.2344" y2="152.2344"/><line style="stroke:#4A148C;stroke-width:1;" x1="746.3694" x2="746.3694" y1="152.2344" y2="254.2734"/><line style="stroke:#4A148C;stroke-width:1;" x1="746.3694" x2="445.7207" y1="254.2734" y2="254.2734"/><line style="stroke:#4A148C;stroke-width:1;" x1="445.7207" x2="445.7207" y1="254.2734" y2="269.2734"/><polygon fill="#4A148C" points="441.7207,259.2734,445.7207,269.2734,449.7207,259.2734,445.7207,263.2734" style="stroke:#4A148C;stroke-width:1;stroke-linejoin:miter;stroke-miterlimit:10;"/><line style="stroke:#4A148C;stroke-width:1;" x1="338.4307" x2="338.4307" y1="367.4766" y2="400.2813"/><polygon fill="#4A148C" points="334.4307,390.2813,338.4307,400.2813,342.4307,390.2813,338.4307,394.2813" style="stroke:#4A148C;stroke-width:1;stroke-linejoin:miter;stroke-miterlimit:10;"/><line style="stroke:#4A148C;stroke-width:1;" x1="497.8179" x2="497.8179" y1="365.5078" y2="398.3125"/><polygon fill="#4A148C" points="493.8179,388.3125,497.8179,398.3125,501.8179,388.3125,497.8179,392.3125" style="stroke:#4A148C;stroke-width:1;stroke-linejoin:miter;stroke-miterlimit:10;"/><line style="stroke:#4A148C;stroke-width:1;" x1="404.709" x2="425.5278" y1="353.5078" y2="353.5078"/><polygon fill="#4A148C" points="415.5278,349.5078,425.5278,353.5078,415.5278,357.5078,419.5278,353.5078" style="stroke:#4A148C;stroke-width:1;stroke-linejoin:miter;stroke-miterlimit:10;"/><line style="stroke:#4A148C;stroke-width:1;" x1="445.7207" x2="445.7207" y1="319.5391" y2="324.5391"/><line style="stroke:#4A148C;stroke-width:1;" x1="445.7207" x2="338.4307" y1="324.5391" y2="324.5391"/><line style="stroke:#4A148C;stroke-width:1;" x1="338.4307" x2="338.4307" y1="324.5391" y2="339.5391"/><polygon fill="#4A148C" points="334.4307,329.5391,338.4307,339.5391,342.4307,329.5391,338.4307,333.5391" style="stroke:#4A148C;stroke-width:1;stroke-linejoin:miter;stroke-miterlimit:10;"/><line style="stroke:#4A148C;stroke-width:1;" x1="570.1079" x2="605.1079" y1="353.5078" y2="353.5078"/><line style="stroke:#4A148C;stroke-width:1;" x1="605.1079" x2="605.1079" y1="353.5078" y2="453.5781"/><line style="stroke:#4A148C;stroke-width:1;" x1="605.1079" x2="445.7207" y1="453.5781" y2="453.5781"/><line style="stroke:#4A148C;stroke-width:1;" x1="445.7207" x2="445.7207" y1="453.5781" y2="493.7109"/><line style="stroke:#4A148C;stroke-width:1;" x1="235.7212" x2="235.7212" y1="536.6484" y2="569.4531"/><polygon fill="#4A148C" points="231.7212,559.4531,235.7212,569.4531,239.7212,559.4531,235.7212,563.4531" style="stroke:#4A148C;stroke-width:1;stroke-linejoin:miter;stroke-miterlimit:10;"/><line style="stroke:#4A148C;stroke-width:1;" x1="408.8672" x2="408.8672" y1="543.6328" y2="576.4375"/><polygon fill="#4A148C" points="404.8672,566.4375,408.8672,576.4375,412.8672,566.4375,408.8672,570.4375" style="stroke:#4A148C;stroke-width:1;stroke-linejoin:miter;stroke-miterlimit:10;"/><line style="stroke:#4A148C;stroke-width:1;" x1="593.8667" x2="593.8667" y1="534.6797" y2="567.4844"/><polygon fill="#4A148C" points="589.8667,557.4844,593.8667,567.4844,597.8667,557.4844,593.8667,561.4844" style="stroke:#4A148C;stroke-width:1;stroke-linejoin:miter;stroke-miterlimit:10;"/><line style="stroke:#4A148C;stroke-width:1;" x1="291.022" x2="312.0996" y1="522.6797" y2="522.6797"/><polygon fill="#4A148C" points="302.0996,518.6797,312.0996,522.6797,302.0996,526.6797,306.0996,522.6797" style="stroke:#4A148C;stroke-width:1;stroke-linejoin:miter;stroke-miterlimit:10;"/><line style="stroke:#4A148C;stroke-width:1;" x1="505.6348" x2="526.7124" y1="522.6797" y2="522.6797"/><polygon fill="#4A148C" points="516.7124,518.6797,526.7124,522.6797,516.7124,526.6797,520.7124,522.6797" style="stroke:#4A148C;stroke-width:1;stroke-linejoin:miter;stroke-miterlimit:10;"/><line style="stroke:#4A148C;stroke-width:1;" x1="445.7207" x2="235.7212" y1="493.7109" y2="493.7109"/><line style="stroke:#4A148C;stroke-width:1;" x1="235.7212" x2="235.7212" y1="493.7109" y2="508.7109"/><polygon fill="#4A148C" points="231.7212,498.7109,235.7212,508.7109,239.7212,498.7109,235.7212,502.7109" style="stroke:#4A148C;stroke-width:1;stroke-linejoin:miter;stroke-miterlimit:10;"/><line style="stroke:#4A148C;stroke-width:1;" x1="661.021" x2="696.021" y1="522.6797" y2="522.6797"/><line style="stroke:#4A148C;stroke-width:1;" x1="696.021" x2="696.021" y1="522.6797" y2="631.7031"/><line style="stroke:#4A148C;stroke-width:1;" x1="696.021" x2="445.7207" y1="631.7031" y2="631.7031"/><line style="stroke:#4A148C;stroke-width:1;" x1="445.7207" x2="445.7207" y1="631.7031" y2="683.8359"/><polygon fill="#4A148C" points="441.7207,673.8359,445.7207,683.8359,449.7207,673.8359,445.7207,677.8359" style="stroke:#4A148C;stroke-width:1;stroke-linejoin:miter;stroke-miterlimit:10;"/><line style="stroke:#4A148C;stroke-width:1;" x1="102.8789" x2="102.8789" y1="778.1016" y2="810.9063"/><polygon fill="#4A148C" points="98.8789,800.9063,102.8789,810.9063,106.8789,800.9063,102.8789,804.9063" style="stroke:#4A148C;stroke-width:1;stroke-linejoin:miter;stroke-miterlimit:10;"/><line style="stroke:#4A148C;stroke-width:1;" x1="102.8789" x2="102.8789" y1="861.1719" y2="883.1406"/><polygon fill="#4A148C" points="98.8789,873.1406,102.8789,883.1406,106.8789,873.1406,102.8789,877.1406" style="stroke:#4A148C;stroke-width:1;stroke-linejoin:miter;stroke-miterlimit:10;"/><line style="stroke:#4A148C;stroke-width:1;" x1="276.6367" x2="276.6367" y1="780.0703" y2="812.875"/><polygon fill="#4A148C" points="272.6367,802.875,276.6367,812.875,280.6367,802.875,276.6367,806.875" style="stroke:#4A148C;stroke-width:1;stroke-linejoin:miter;stroke-miterlimit:10;"/><line style="stroke:#4A148C;stroke-width:1;" x1="276.6367" x2="276.6367" y1="863.1406" y2="883.1406"/><polygon fill="#4A148C" points="272.6367,873.1406,276.6367,883.1406,280.6367,873.1406,276.6367,877.1406" style="stroke:#4A148C;stroke-width:1;stroke-linejoin:miter;stroke-miterlimit:10;"/><line style="stroke:#4A148C;stroke-width:1;" x1="441.7598" x2="441.7598" y1="780.0703" y2="812.875"/><polygon fill="#4A148C" points="437.7598,802.875,441.7598,812.875,445.7598,802.875,441.7598,806.875" style="stroke:#4A148C;stroke-width:1;stroke-linejoin:miter;stroke-miterlimit:10;"/><line style="stroke:#4A148C;stroke-width:1;" x1="441.7598" x2="441.7598" y1="848.0078" y2="883.1406"/><polygon fill="#4A148C" points="437.7598,873.1406,441.7598,883.1406,445.7598,873.1406,441.7598,877.1406" style="stroke:#4A148C;stroke-width:1;stroke-linejoin:miter;stroke-miterlimit:10;"/><line style="stroke:#4A148C;stroke-width:1;" x1="610.8438" x2="610.8438" y1="778.1016" y2="810.9063"/><polygon fill="#4A148C" points="606.8438,800.9063,610.8438,810.9063,614.8438,800.9063,610.8438,804.9063" style="stroke:#4A148C;stroke-width:1;stroke-linejoin:miter;stroke-miterlimit:10;"/><line style="stroke:#4A148C;stroke-width:1;" x1="610.8438" x2="610.8438" y1="846.0391" y2="883.1406"/><polygon fill="#4A148C" points="606.8438,873.1406,610.8438,883.1406,614.8438,873.1406,610.8438,877.1406" style="stroke:#4A148C;stroke-width:1;stroke-linejoin:miter;stroke-miterlimit:10;"/><line style="stroke:#4A148C;stroke-width:1;" x1="129.1611" x2="231.4229" y1="766.1016" y2="766.1016"/><polygon fill="#4A148C" points="221.4229,762.1016,231.4229,766.1016,221.4229,770.1016,225.4229,766.1016" style="stroke:#4A148C;stroke-width:1;stroke-linejoin:miter;stroke-miterlimit:10;"/><line style="stroke:#4A148C;stroke-width:1;" x1="321.8506" x2="373.5156" y1="766.1016" y2="766.1016"/><polygon fill="#4A148C" points="363.5156,762.1016,373.5156,766.1016,363.5156,770.1016,367.5156,766.1016" style="stroke:#4A148C;stroke-width:1;stroke-linejoin:miter;stroke-miterlimit:10;"/><line style="stroke:#4A148C;stroke-width:1;" x1="510.0039" x2="576.7627" y1="766.1016" y2="766.1016"/><polygon fill="#4A148C" points="566.7627,762.1016,576.7627,766.1016,566.7627,770.1016,570.7627,766.1016" style="stroke:#4A148C;stroke-width:1;stroke-linejoin:miter;stroke-miterlimit:10;"/><line style="stroke:#4A148C;stroke-width:1;" x1="445.7207" x2="445.7207" y1="734.1016" y2="739.1016"/><line style="stroke:#4A148C;stroke-width:1;" x1="445.7207" x2="102.8789" y1="739.1016" y2="739.1016"/><line style="stroke:#4A148C;stroke-width:1;" x1="102.8789" x2="102.8789" y1="739.1016" y2="754.1016"/><polygon fill="#4A148C" points="98.8789,744.1016,102.8789,754.1016,106.8789,744.1016,102.8789,748.1016" style="stroke:#4A148C;stroke-width:1;stroke-linejoin:miter;stroke-miterlimit:10;"/><line style="stroke:#4A148C;stroke-width:1;" x1="644.9248" x2="788.5625" y1="766.1016" y2="766.1016"/><line style="stroke:#4A148C;stroke-width:1;" x1="788.5625" x2="788.5625" y1="766.1016" y2="807.5039"/><polygon fill="#4A148C" points="784.5625,797.5039,788.5625,807.5039,792.5625,797.5039,788.5625,801.5039" style="stroke:#4A148C;stroke-width:1;stroke-linejoin:miter;stroke-miterlimit:10;"/><line style="stroke:#4A148C;stroke-width:1;" x1="788.5625" x2="788.5625" y1="857.7695" y2="883.1406"/><polygon fill="#4A148C" points="784.5625,873.1406,788.5625,883.1406,792.5625,873.1406,788.5625,877.1406" style="stroke:#4A148C;stroke-width:1;stroke-linejoin:miter;stroke-miterlimit:10;"/><line style="stroke:#4A148C;stroke-width:1;" x1="102.8789" x2="788.5625" y1="883.1406" y2="883.1406"/><line style="stroke:#4A148C;stroke-width:1;" x1="445.7207" x2="445.7207" y1="883.1406" y2="903.1406"/><polygon fill="#4A148C" points="441.7207,893.1406,445.7207,903.1406,449.7207,893.1406,445.7207,897.1406" style="stroke:#4A148C;stroke-width:1;stroke-linejoin:miter;stroke-miterlimit:10;"/><line style="stroke:#4A148C;stroke-width:1;" x1="445.7207" x2="445.7207" y1="953.4063" y2="973.4063"/><polygon fill="#4A148C" points="441.7207,963.4063,445.7207,973.4063,449.7207,963.4063,445.7207,967.4063" style="stroke:#4A148C;stroke-width:1;stroke-linejoin:miter;stroke-miterlimit:10;"/><line style="stroke:#4A148C;stroke-width:1;" x1="445.7207" x2="445.7207" y1="1008.5391" y2="1028.5391"/><polygon fill="#4A148C" points="441.7207,1018.5391,445.7207,1028.5391,449.7207,1018.5391,445.7207,1022.5391" style="stroke:#4A148C;stroke-width:1;stroke-linejoin:miter;stroke-miterlimit:10;"/><?plantuml-src bLN1Zjis5BphArvpoIwWUBj8WnOI5aNgT14VaXXUeBaOA6ZoIM9DaGf9sJ62_7k7ihMrksg2dYoGVFFcpGpfv_J1ChsksSOLIsUbDkof4o6GjXGR9kSLLjANT8h9znPRSKQ_2zcGTtlIWOJDdXERmBeYAO8KYdCoGYjoVIJ3LQJeoEkwYILjjJ74LcbRezBpWCsVTGpu4Z4XMJKi3ZGsNBdJeQLJgLjqlMnOpUWZZXCd7Y5oHvw5IbmKxRsE39e1OAdGzks6FIioEaHobfIJuIPuUOEHetS6Gz_un_d3h5Mpx0TjfUanyfyX7WpFkhurMHQYy34h1iNeiQJCiWxhEcg0FxjDq_vKq5vieKFT2wz2JfjUrHnpKbnx24IrYFoClcH4KErgAuHfPzhTfAAxw7lErzQwI6yrg5iH8TUlrsaQIrS73jUe8oh6NLO5hJZqBOwLQvky0BlMxK3W8n0NjOMAgXogaWFuE1bsPKNBeHEI8TZQ3aHUX0CaRISQhY3ouUvUe7Pj7uPJxyVwU-StMYcsasq6oUOcUGgtGmoFwDPDWI_iJXYjLbp1EYlv2UWZhHIc2h_5cwEq2b75KZ9ZRIllsfFsY0cKAa-AyuxzWQHt8Rn0dkHsRLFWU89NruZ0ToFwv7JZPau2yPQ6XPzGptE8y06TF8yLomG-CTon-t6shnVvUfNozND1pHWDP_CXJaZPd76iql8YN6SPmdrUstzICy5HURrBrvuQPrH-52NH29Dpoy7G-UBDAj3WLqcw5NLAx-0oMi9ptURKzH3cWQNd6B3RuAAcjsRkRANhTw8ZQ18GaM_6eaIgF_NSCxty4M75qu0BJxtTYvZU17ARlrZ6IQPdoj20-BJHqhkT3f0JhDTsxFGgV2zwb_RyakovlIr8DjeeP3TFBnU28QFUwNZ8XnpsuUXFyV0wXon-foNkwlAFERHvpt7l_7RfZ9Q7CQ_0E6Di-SGPUc8YL5vmlneVWrIwTrksr-MP5f4zDeKPqX0wbWJNgpYL1ZRyl-6b5w4XurmtD5YaG2nX_sz2RZzKrKIRumsx5tXBrJdIfL5dpr1l4vCyvNI172L93w7yr-LvOkb_yHuVa1FiY5eWn0Xrdo8pkfVE5yCVpCd612MHvlh871Uyoxx-3G00?></g></svg>