<svg xmlns="http://www.w3.org/2000/svg" xmlns:xlink="http://www.w3.org/1999/xlink" contentStyleType="text/css" data-diagram-type="ACTIVITY" height="933px" preserveAspectRatio="none" style="width:971px;height:933px;" version="1.1" viewBox="0 0 971 933" width="971px" zoomAndPan="magnify"><?plantuml 1.2026.6?><defs/><g><ellipse cx="501.0359" cy="25" fill="#4A148C" rx="10" ry="10" style="stroke:#222222;stroke-width:1;"/><rect fill="#E6E6FA" height="35.1328" rx="12.5" ry="12.5" style="stroke:#4A148C;stroke-width:0.5;" width="121.6641" x="440.2039" y="55"/><text fill="#2A0A4A" font-family="Helvetica" font-size="13" lengthAdjust="spacing" textLength="38.4795" x="450.2039" y="77.0669">Agent</text><text fill="#2A0A4A" font-family="Helvetica" font-size="13" lengthAdjust="spacing" textLength="4.1323" x="488.6833" y="77.0669">&#160;</text><text fill="#2A0A4A" font-family="Helvetica" font-size="13" lengthAdjust="spacing" textLength="59.0522" x="492.8157" y="77.0669">reconcile</text><rect fill="none" height="159.1719" style="stroke:#000000;stroke-width:1.5;" width="935.7734" x="16" y="100.1328"/><path d="M255.3599,100.1328 L255.3599,108.2656 L245.3599,118.2656 L16,118.2656" fill="none" style="stroke:#000000;stroke-width:1.5;"/><text fill="#000000" font-family="Helvetica" font-size="13" lengthAdjust="spacing" textLength="229.3599" x="19" y="113.1997">1 to 3: wake, guards, degrade gate</text><polygon fill="#FFF8DC" points="59.4429,138.2656,187.2065,138.2656,199.2065,150.2656,187.2065,162.2656,59.4429,162.2656,47.4429,150.2656,59.4429,138.2656" style="stroke:#8B7500;stroke-width:0.5;stroke-linejoin:miter;stroke-miterlimit:10;"/><text fill="#000000" font-family="Helvetica" font-size="11" lengthAdjust="spacing" textLength="19.0083" x="127.3247" y="172.4761">yes</text><text fill="#2A0A4A" font-family="Helvetica" font-size="12" lengthAdjust="spacing" textLength="127.7637" x="59.4429" y="154.4199">kaalm.io/wake=true?</text><rect fill="#E6E6FA" height="50.2656" rx="12.5" ry="12.5" style="stroke:#4A148C;stroke-width:0.5;" width="194.6494" x="26" y="195.0703"/><text fill="#2A0A4A" font-family="Helvetica" font-size="13" lengthAdjust="spacing" textLength="76.9146" x="36" y="217.1372">Hibernated:</text><text fill="#2A0A4A" font-family="Helvetica" font-size="13" lengthAdjust="spacing" textLength="4.1323" x="112.9146" y="217.1372">&#160;</text><text fill="#2A0A4A" font-family="Helvetica" font-size="13" lengthAdjust="spacing" textLength="69.1895" x="117.0469" y="217.1372">Resuming;</text><text fill="#2A0A4A" font-family="Helvetica" font-size="13" lengthAdjust="spacing" textLength="26.3809" x="36" y="232.27">else</text><text fill="#2A0A4A" font-family="Helvetica" font-size="13" lengthAdjust="spacing" textLength="4.1323" x="62.3809" y="232.27">&#160;</text><text fill="#2A0A4A" font-family="Helvetica" font-size="13" lengthAdjust="spacing" textLength="53.7837" x="66.5132" y="232.27">remove,</text><text fill="#2A0A4A" font-family="Helvetica" font-size="13" lengthAdjust="spacing" textLength="4.1323" x="120.2969" y="232.27">&#160;</text><text fill="#2A0A4A" font-family="Helvetica" font-size="13" lengthAdjust="spacing" textLength="86.2202" x="124.4292" y="232.27">WakeIgnored</text><polygon fill="#FFF8DC" points="300.4421,136.2969,391.2039,136.2969,403.2039,150.2656,391.2039,164.2344,300.4421,164.2344,288.4421,150.2656,300.4421,136.2969" style="stroke:#8B7500;stroke-width:0.5;stroke-linejoin:miter;stroke-miterlimit:10;"/><text fill="#000000" font-family="Helvetica" font-size="11" lengthAdjust="spacing" textLength="19.0083" x="349.823" y="174.4448">yes</text><text fill="#2A0A4A" font-family="Helvetica" font-size="12" lengthAdjust="spacing" textLength="69.2344" x="300.4421" y="147.4355">namespace</text><text fill="#2A0A4A" font-family="Helvetica" font-size="12" lengthAdjust="spacing" textLength="3.8145" x="369.6765" y="147.4355">&#160;</text><text fill="#2A0A4A" font-family="Helvetica" font-size="12" lengthAdjust="spacing" textLength="9.5859" x="373.491" y="147.4355">is</text><text fill="#2A0A4A" font-family="Helvetica" font-size="12" lengthAdjust="spacing" textLength="90.7617" x="300.4421" y="161.4043">kaalm-system?</text><rect fill="#E6E6FA" height="50.2656" rx="12.5" ry="12.5" style="stroke:#4A148C;stroke-width:0.5;" width="210.3472" x="240.6494" y="197.0391"/><text fill="#2A0A4A" font-family="Helvetica" font-size="13" lengthAdjust="spacing" textLength="85.6616" x="250.6494" y="219.106">Ready=False</text><text fill="#2A0A4A" font-family="Helvetica" font-size="13" lengthAdjust="spacing" textLength="190.3472" x="250.6494" y="234.2388">SystemNamespaceForbidden</text><polygon fill="#FFF8DC" points="482.9966,138.2656,595.2974,138.2656,607.2974,150.2656,595.2974,162.2656,482.9966,162.2656,470.9966,150.2656,482.9966,138.2656" style="stroke:#8B7500;stroke-width:0.5;stroke-linejoin:miter;stroke-miterlimit:10;"/><text fill="#000000" font-family="Helvetica" font-size="11" lengthAdjust="spacing" textLength="13.7017" x="543.147" y="172.4761">no</text><text fill="#2A0A4A" font-family="Helvetica" font-size="12" lengthAdjust="spacing" textLength="67.0898" x="482.9966" y="154.4199">AgentClass</text><text fill="#2A0A4A" font-family="Helvetica" font-size="12" lengthAdjust="spacing" textLength="3.8145" x="550.0864" y="154.4199">&#160;</text><text fill="#2A0A4A" font-family="Helvetica" font-size="12" lengthAdjust="spacing" textLength="41.3965" x="553.9009" y="154.4199">exists?</text><rect fill="#E6E6FA" height="50.2656" rx="12.5" ry="12.5" style="stroke:#4A148C;stroke-width:0.5;" width="129.5415" x="474.3762" y="195.0703"/><text fill="#2A0A4A" font-family="Helvetica" font-size="13" lengthAdjust="spacing" textLength="85.6616" x="484.3762" y="217.1372">Ready=False</text><text fill="#2A0A4A" font-family="Helvetica" font-size="13" lengthAdjust="spacing" textLength="109.5415" x="484.3762" y="232.27">InvalidReference</text><polygon fill="#FFF8DC" points="640.1162,136.2969,748.6729,136.2969,760.6729,150.2656,748.6729,164.2344,640.1162,164.2344,628.1162,150.2656,640.1162,136.2969" style="stroke:#8B7500;stroke-width:0.5;stroke-linejoin:miter;stroke-miterlimit:10;"/><text fill="#000000" font-family="Helvetica" font-size="11" lengthAdjust="spacing" textLength="13.7017" x="698.3945" y="174.4448">no</text><text fill="#2A0A4A" font-family="Helvetica" font-size="12" lengthAdjust="spacing" textLength="33.9023" x="640.1162" y="147.4355">every</text><text fill="#2A0A4A" font-family="Helvetica" font-size="12" lengthAdjust="spacing" textLength="3.8145" x="674.0186" y="147.4355">&#160;</text><text fill="#2A0A4A" font-family="Helvetica" font-size="12" lengthAdjust="spacing" textLength="70.8398" x="677.833" y="147.4355">cross-check</text><text fill="#2A0A4A" font-family="Helvetica" font-size="12" lengthAdjust="spacing" textLength="47.4785" x="640.1162" y="161.4043">passes?</text><rect fill="#E6E6FA" height="35.1328" rx="12.5" ry="12.5" style="stroke:#4A148C;stroke-width:0.5;" width="134.1943" x="627.2974" y="197.0391"/><text fill="#2A0A4A" font-family="Helvetica" font-size="13" lengthAdjust="spacing" textLength="114.1943" x="637.2974" y="219.106">phase=Degraded</text><polygon fill="#FFF8DC" points="793.4917,138.2656,914.0718,138.2656,926.0718,150.2656,914.0718,162.2656,793.4917,162.2656,781.4917,150.2656,793.4917,138.2656" style="stroke:#8B7500;stroke-width:0.5;stroke-linejoin:miter;stroke-miterlimit:10;"/><text fill="#000000" font-family="Helvetica" font-size="11" lengthAdjust="spacing" textLength="19.0083" x="857.7817" y="172.4761">yes</text><text fill="#2A0A4A" font-family="Helvetica" font-size="12" lengthAdjust="spacing" textLength="62.959" x="793.4917" y="154.4199">Degraded,</text><text fill="#2A0A4A" font-family="Helvetica" font-size="12" lengthAdjust="spacing" textLength="3.8145" x="856.4507" y="154.4199">&#160;</text><text fill="#2A0A4A" font-family="Helvetica" font-size="12" lengthAdjust="spacing" textLength="14.0215" x="860.2651" y="154.4199">all</text><text fill="#2A0A4A" font-family="Helvetica" font-size="12" lengthAdjust="spacing" textLength="3.8145" x="874.2866" y="154.4199">&#160;</text><text fill="#2A0A4A" font-family="Helvetica" font-size="12" lengthAdjust="spacing" textLength="35.9707" x="878.1011" y="154.4199">clear?</text><text fill="#000000" font-family="Helvetica" font-size="11" lengthAdjust="spacing" textLength="13.7017" x="926.0718" y="147.6714">no</text><rect fill="#E6E6FA" height="50.2656" rx="12.5" ry="12.5" style="stroke:#4A148C;stroke-width:0.5;" width="144.4839" x="781.5398" y="195.0703"/><text fill="#2A0A4A" font-family="Helvetica" font-size="13" lengthAdjust="spacing" textLength="46.5093" x="791.5398" y="217.1372">restore</text><text fill="#2A0A4A" font-family="Helvetica" font-size="13" lengthAdjust="spacing" textLength="124.4839" x="791.5398" y="232.27">preDegradedPhase</text><rect fill="none" height="235.3906" style="stroke:#000000;stroke-width:1.5;" width="516.6348" x="242.7185" y="269.3047"/><path d="M548.1384,269.3047 L548.1384,277.4375 L538.1384,287.4375 L242.7185,287.4375" fill="none" style="stroke:#000000;stroke-width:1.5;"/><text fill="#000000" font-family="Helvetica" font-size="13" lengthAdjust="spacing" textLength="295.4199" x="245.7185" y="282.3716">4 to 7: budget, hibernation, gates, Certificate</text><rect fill="#E6E6FA" height="50.2656" rx="12.5" ry="12.5" style="stroke:#4A148C;stroke-width:0.5;" width="148.3115" x="426.8801" y="304.4375"/><text fill="#2A0A4A" font-family="Helvetica" font-size="13" lengthAdjust="spacing" textLength="64.0732" x="436.8801" y="326.5044">Degraded</text><text fill="#2A0A4A" font-family="Helvetica" font-size="13" lengthAdjust="spacing" textLength="4.1323" x="500.9534" y="326.5044">&#160;</text><text fill="#2A0A4A" font-family="Helvetica" font-size="13" lengthAdjust="spacing" textLength="60.106" x="505.0857" y="326.5044">condition</text><text fill="#2A0A4A" font-family="Helvetica" font-size="13" lengthAdjust="spacing" textLength="30.5386" x="436.8801" y="341.6372">from</text><text fill="#2A0A4A" font-family="Helvetica" font-size="13" lengthAdjust="spacing" textLength="4.1323" x="467.4187" y="341.6372">&#160;</text><text fill="#2A0A4A" font-family="Helvetica" font-size="13" lengthAdjust="spacing" textLength="46.0903" x="471.551" y="341.6372">budget</text><text fill="#2A0A4A" font-family="Helvetica" font-size="13" lengthAdjust="spacing" textLength="4.1323" x="517.6414" y="341.6372">&#160;</text><text fill="#2A0A4A" font-family="Helvetica" font-size="13" lengthAdjust="spacing" textLength="32.9316" x="521.7737" y="341.6372">state</text><polygon fill="#FFF8DC" points="264.7185,374.7031,351.3201,374.7031,363.3201,388.6719,351.3201,402.6406,264.7185,402.6406,252.7185,388.6719,264.7185,374.7031" style="stroke:#8B7500;stroke-width:0.5;stroke-linejoin:miter;stroke-miterlimit:10;"/><text fill="#000000" font-family="Helvetica" font-size="11" lengthAdjust="spacing" textLength="19.0083" x="312.0193" y="412.8511">yes</text><text fill="#2A0A4A" font-family="Helvetica" font-size="12" lengthAdjust="spacing" textLength="70.5117" x="264.7185" y="385.8418">Hibernating</text><text fill="#2A0A4A" font-family="Helvetica" font-size="12" lengthAdjust="spacing" textLength="3.8145" x="335.2302" y="385.8418">&#160;</text><text fill="#2A0A4A" font-family="Helvetica" font-size="12" lengthAdjust="spacing" textLength="12.2754" x="339.0447" y="385.8418">or</text><text fill="#2A0A4A" font-family="Helvetica" font-size="12" lengthAdjust="spacing" textLength="73.3242" x="264.7185" y="399.8105">Hibernated?</text><rect fill="#E6E6FA" height="50.2656" rx="12.5" ry="12.5" style="stroke:#4A148C;stroke-width:0.5;" width="106.6519" x="254.6934" y="435.4453"/><text fill="#2A0A4A" font-family="Helvetica" font-size="13" lengthAdjust="spacing" textLength="32.8999" x="264.6934" y="457.5122">drive</text><text fill="#2A0A4A" font-family="Helvetica" font-size="13" lengthAdjust="spacing" textLength="4.1323" x="297.5933" y="457.5122">&#160;</text><text fill="#2A0A4A" font-family="Helvetica" font-size="13" lengthAdjust="spacing" textLength="13.2983" x="301.7256" y="457.5122">or</text><text fill="#2A0A4A" font-family="Helvetica" font-size="13" lengthAdjust="spacing" textLength="4.1323" x="315.0239" y="457.5122">&#160;</text><text fill="#2A0A4A" font-family="Helvetica" font-size="13" lengthAdjust="spacing" textLength="32.189" x="319.1563" y="457.5122">hold,</text><text fill="#2A0A4A" font-family="Helvetica" font-size="13" lengthAdjust="spacing" textLength="29.7642" x="264.6934" y="472.645">pass</text><text fill="#2A0A4A" font-family="Helvetica" font-size="13" lengthAdjust="spacing" textLength="4.1323" x="294.4575" y="472.645">&#160;</text><text fill="#2A0A4A" font-family="Helvetica" font-size="13" lengthAdjust="spacing" textLength="31.2622" x="298.5898" y="472.645">ends</text><polygon fill="#FFF8DC" points="395.3201,367.7188,533.0447,367.7188,545.0447,388.6719,533.0447,409.625,395.3201,409.625,383.3201,388.6719,395.3201,367.7188" style="stroke:#8B7500;stroke-width:0.5;stroke-linejoin:miter;stroke-miterlimit:10;"/><text fill="#000000" font-family="Helvetica" font-size="11" lengthAdjust="spacing" textLength="13.7017" x="468.1824" y="419.8354">no</text><text fill="#2A0A4A" font-family="Helvetica" font-size="12" lengthAdjust="spacing" textLength="41.1914" x="395.3201" y="378.8574">image,</text><text fill="#2A0A4A" font-family="Helvetica" font-size="12" lengthAdjust="spacing" textLength="3.8145" x="436.5115" y="378.8574">&#160;</text><text fill="#2A0A4A" font-family="Helvetica" font-size="12" lengthAdjust="spacing" textLength="85.2363" x="440.3259" y="378.8574">existingClaim,</text><text fill="#2A0A4A" font-family="Helvetica" font-size="12" lengthAdjust="spacing" textLength="21.8906" x="395.3201" y="392.8262">pull</text><text fill="#2A0A4A" font-family="Helvetica" font-size="12" lengthAdjust="spacing" textLength="3.8145" x="417.2107" y="392.8262">&#160;</text><text fill="#2A0A4A" font-family="Helvetica" font-size="12" lengthAdjust="spacing" textLength="48.6855" x="421.0251" y="392.8262">Secrets,</text><text fill="#2A0A4A" font-family="Helvetica" font-size="12" lengthAdjust="spacing" textLength="3.8145" x="469.7107" y="392.8262">&#160;</text><text fill="#2A0A4A" font-family="Helvetica" font-size="12" lengthAdjust="spacing" textLength="45.832" x="473.5251" y="392.8262">handler</text><text fill="#2A0A4A" font-family="Helvetica" font-size="12" lengthAdjust="spacing" textLength="63.8262" x="395.3201" y="406.7949">ConfigMap</text><text fill="#2A0A4A" font-family="Helvetica" font-size="12" lengthAdjust="spacing" textLength="3.8145" x="459.1462" y="406.7949">&#160;</text><text fill="#2A0A4A" font-family="Helvetica" font-size="12" lengthAdjust="spacing" textLength="14.0215" x="462.9607" y="406.7949">all</text><text fill="#2A0A4A" font-family="Helvetica" font-size="12" lengthAdjust="spacing" textLength="3.8145" x="476.9822" y="406.7949">&#160;</text><text fill="#2A0A4A" font-family="Helvetica" font-size="12" lengthAdjust="spacing" textLength="52.248" x="480.7966" y="406.7949">present?</text><rect fill="#E6E6FA" height="50.2656" rx="12.5" ry="12.5" style="stroke:#4A148C;stroke-width:0.5;" width="105.6616" x="411.3516" y="442.4297"/><text fill="#2A0A4A" font-family="Helvetica" font-size="13" lengthAdjust="spacing" textLength="85.6616" x="421.3516" y="464.4966">Ready=False</text><text fill="#2A0A4A" font-family="Helvetica" font-size="13" lengthAdjust="spacing" textLength="54.0693" x="421.3516" y="479.6294">requeue</text><text fill="#2A0A4A" font-family="Helvetica" font-size="13" lengthAdjust="spacing" textLength="4.1323" x="475.4209" y="479.6294">&#160;</text><text fill="#2A0A4A" font-family="Helvetica" font-size="13" lengthAdjust="spacing" textLength="23.3149" x="479.5532" y="479.6294">30s</text><polygon fill="#FFF8DC" points="577.0447,376.6719,687.3533,376.6719,699.3533,388.6719,687.3533,400.6719,577.0447,400.6719,565.0447,388.6719,577.0447,376.6719" style="stroke:#8B7500;stroke-width:0.5;stroke-linejoin:miter;stroke-miterlimit:10;"/><text fill="#000000" font-family="Helvetica" font-size="11" lengthAdjust="spacing" textLength="13.7017" x="636.199" y="410.8823">no</text><text fill="#2A0A4A" font-family="Helvetica" font-size="12" lengthAdjust="spacing" textLength="62.332" x="577.0447" y="392.8262">Certificate</text><text fill="#2A0A4A" font-family="Helvetica" font-size="12" lengthAdjust="spacing" textLength="3.8145" x="639.3767" y="392.8262">&#160;</text><text fill="#2A0A4A" font-family="Helvetica" font-size="12" lengthAdjust="spacing" textLength="44.1621" x="643.1912" y="392.8262">Ready?</text><text fill="#000000" font-family="Helvetica" font-size="11" lengthAdjust="spacing" textLength="19.0083" x="699.3533" y="386.0776">yes</text><rect fill="#E6E6FA" height="50.2656" rx="12.5" ry="12.5" style="stroke:#4A148C;stroke-width:0.5;" width="99.1235" x="582.6372" y="433.4766"/><text fill="#2A0A4A" font-family="Helvetica" font-size="13" lengthAdjust="spacing" textLength="79.1235" x="592.6372" y="455.5435">Provisioning</text><text fill="#2A0A4A" font-family="Helvetica" font-size="13" lengthAdjust="spacing" textLength="54.0693" x="592.6372" y="470.6763">requeue</text><text fill="#2A0A4A" font-family="Helvetica" font-size="13" lengthAdjust="spacing" textLength="4.1323" x="646.7065" y="470.6763">&#160;</text><text fill="#2A0A4A" font-family="Helvetica" font-size="13" lengthAdjust="spacing" textLength="15.0439" x="650.8389" y="470.6763">5s</text><rect fill="none" height="398.7031" style="stroke:#000000;stroke-width:1.5;" width="794.5747" x="103.7485" y="514.6953"/><path d="M357.5366,514.6953 L357.5366,522.8281 L347.5366,532.8281 L103.7485,532.8281" fill="none" style="stroke:#000000;stroke-width:1.5;"/><text fill="#000000" font-family="Helvetica" font-size="13" lengthAdjust="spacing" textLength="243.7881" x="106.7485" y="527.7622">8 to 11: children, Pod, activity, status</text><rect fill="#E6E6FA" height="50.2656" rx="12.5" ry="12.5" style="stroke:#4A148C;stroke-width:0.5;" width="131.6616" x="435.2051" y="549.8281"/><text fill="#2A0A4A" font-family="Helvetica" font-size="13" lengthAdjust="spacing" textLength="21.2773" x="445.2051" y="571.895">SA,</text><text fill="#2A0A4A" font-family="Helvetica" font-size="13" lengthAdjust="spacing" textLength="4.1323" x="466.4824" y="571.895">&#160;</text><text fill="#2A0A4A" font-family="Helvetica" font-size="13" lengthAdjust="spacing" textLength="52.1777" x="470.6147" y="571.895">Service,</text><text fill="#2A0A4A" font-family="Helvetica" font-size="13" lengthAdjust="spacing" textLength="4.1323" x="522.7925" y="571.895">&#160;</text><text fill="#2A0A4A" font-family="Helvetica" font-size="13" lengthAdjust="spacing" textLength="29.9419" x="526.9248" y="571.895">PVC,</text><text fill="#2A0A4A" font-family="Helvetica" font-size="13" lengthAdjust="spacing" textLength="92.1362" x="445.2051" y="587.0278">NetworkPolicy</text><polygon fill="#FFF8DC" points="173.9363,620.0938,202.5007,620.0938,214.5007,632.0938,202.5007,644.0938,173.9363,644.0938,161.9363,632.0938,173.9363,620.0938" style="stroke:#8B7500;stroke-width:0.5;stroke-linejoin:miter;stroke-miterlimit:10;"/><text fill="#000000" font-family="Helvetica" font-size="11" lengthAdjust="spacing" textLength="27.4409" x="192.2185" y="654.3042">none</text><text fill="#2A0A4A" font-family="Helvetica" font-size="12" lengthAdjust="spacing" textLength="28.5645" x="173.9363" y="636.248">Pod?</text><rect fill="#E6E6FA" height="35.1328" rx="12.5" ry="12.5" style="stroke:#4A148C;stroke-width:0.5;" width="148.9399" x="113.7485" y="676.8984"/><text fill="#2A0A4A" font-family="Helvetica" font-size="13" lengthAdjust="spacing" textLength="45.6841" x="123.7485" y="698.9653">create,</text><text fill="#2A0A4A" font-family="Helvetica" font-size="13" lengthAdjust="spacing" textLength="4.1323" x="169.4326" y="698.9653">&#160;</text><text fill="#2A0A4A" font-family="Helvetica" font-size="13" lengthAdjust="spacing" textLength="79.1235" x="173.5649" y="698.9653">Provisioning</text><polygon fill="#FFF8DC" points="323.6462,618.125,390.074,618.125,402.074,632.0938,390.074,646.0625,323.6462,646.0625,311.6462,632.0938,323.6462,618.125" style="stroke:#8B7500;stroke-width:0.5;stroke-linejoin:miter;stroke-miterlimit:10;"/><text fill="#000000" font-family="Helvetica" font-size="11" lengthAdjust="spacing" textLength="19.0083" x="360.8601" y="656.2729">yes</text><text fill="#2A0A4A" font-family="Helvetica" font-size="12" lengthAdjust="spacing" textLength="50.3379" x="323.6462" y="629.2637">terminal</text><text fill="#2A0A4A" font-family="Helvetica" font-size="12" lengthAdjust="spacing" textLength="3.8145" x="373.9841" y="629.2637">&#160;</text><text fill="#2A0A4A" font-family="Helvetica" font-size="12" lengthAdjust="spacing" textLength="12.2754" x="377.7986" y="629.2637">or</text><text fill="#2A0A4A" font-family="Helvetica" font-size="12" lengthAdjust="spacing" textLength="27.8496" x="323.6462" y="643.2324">spec</text><text fill="#2A0A4A" font-family="Helvetica" font-size="12" lengthAdjust="spacing" textLength="3.8145" x="351.4958" y="643.2324">&#160;</text><text fill="#2A0A4A" font-family="Helvetica" font-size="12" lengthAdjust="spacing" textLength="31.1836" x="355.3103" y="643.2324">drift?</text><rect fill="#E6E6FA" height="35.1328" rx="12.5" ry="12.5" style="stroke:#4A148C;stroke-width:0.5;" width="148.3433" x="282.6885" y="678.8672"/><text fill="#2A0A4A" font-family="Helvetica" font-size="13" lengthAdjust="spacing" textLength="45.0874" x="292.6885" y="700.9341">delete,</text><text fill="#2A0A4A" font-family="Helvetica" font-size="13" lengthAdjust="spacing" textLength="4.1323" x="337.7759" y="700.9341">&#160;</text><text fill="#2A0A4A" font-family="Helvetica" font-size="13" lengthAdjust="spacing" textLength="79.1235" x="341.9082" y="700.9341">Provisioning</text><polygon fill="#FFF8DC" points="463.0317,618.125,575.52,618.125,587.52,632.0938,575.52,646.0625,463.0317,646.0625,451.0317,632.0938,463.0317,618.125" style="stroke:#8B7500;stroke-width:0.5;stroke-linejoin:miter;stroke-miterlimit:10;"/><text fill="#000000" font-family="Helvetica" font-size="11" lengthAdjust="spacing" textLength="19.0083" x="523.2759" y="656.2729">yes</text><text fill="#2A0A4A" font-family="Helvetica" font-size="12" lengthAdjust="spacing" textLength="32.7422" x="463.0317" y="629.2637">crash</text><text fill="#2A0A4A" font-family="Helvetica" font-size="12" lengthAdjust="spacing" textLength="3.8145" x="495.7739" y="629.2637">&#160;</text><text fill="#2A0A4A" font-family="Helvetica" font-size="12" lengthAdjust="spacing" textLength="25.6348" x="499.5884" y="629.2637">loop</text><text fill="#2A0A4A" font-family="Helvetica" font-size="12" lengthAdjust="spacing" textLength="3.8145" x="525.2231" y="629.2637">&#160;</text><text fill="#2A0A4A" font-family="Helvetica" font-size="12" lengthAdjust="spacing" textLength="12.2754" x="529.0376" y="629.2637">or</text><text fill="#2A0A4A" font-family="Helvetica" font-size="12" lengthAdjust="spacing" textLength="112.4883" x="463.0317" y="643.2324">ImagePullBackOff?</text><rect fill="#E6E6FA" height="35.1328" rx="12.5" ry="12.5" style="stroke:#4A148C;stroke-width:0.5;" width="109.0386" x="464.7566" y="678.8672"/><text fill="#2A0A4A" font-family="Helvetica" font-size="13" lengthAdjust="spacing" textLength="89.0386" x="474.7566" y="700.9341">phase=Failed</text><polygon fill="#FFF8DC" points="666.2788,620.0938,710.4409,620.0938,722.4409,632.0938,710.4409,644.0938,666.2788,644.0938,654.2788,632.0938,666.2788,620.0938" style="stroke:#8B7500;stroke-width:0.5;stroke-linejoin:miter;stroke-miterlimit:10;"/><text fill="#000000" font-family="Helvetica" font-size="11" lengthAdjust="spacing" textLength="19.0083" x="692.3599" y="654.3042">yes</text><text fill="#2A0A4A" font-family="Helvetica" font-size="12" lengthAdjust="spacing" textLength="44.1621" x="666.2788" y="636.248">Ready?</text><text fill="#000000" font-family="Helvetica" font-size="11" lengthAdjust="spacing" textLength="13.7017" x="722.4409" y="629.4995">no</text><rect fill="#E6E6FA" height="35.1328" rx="12.5" ry="12.5" style="stroke:#4A148C;stroke-width:0.5;" width="161.6797" x="607.52" y="676.8984"/><text fill="#2A0A4A" font-family="Helvetica" font-size="13" lengthAdjust="spacing" textLength="57.9858" x="617.52" y="698.9653">Running,</text><text fill="#2A0A4A" font-family="Helvetica" font-size="13" lengthAdjust="spacing" textLength="4.1323" x="675.5059" y="698.9653">&#160;</text><text fill="#2A0A4A" font-family="Helvetica" font-size="13" lengthAdjust="spacing" textLength="13.2983" x="679.6382" y="698.9653">or</text><text fill="#2A0A4A" font-family="Helvetica" font-size="13" lengthAdjust="spacing" textLength="4.1323" x="692.9365" y="698.9653">&#160;</text><text fill="#2A0A4A" font-family="Helvetica" font-size="13" lengthAdjust="spacing" textLength="23.6958" x="697.0688" y="698.9653">Idle</text><text fill="#2A0A4A" font-family="Helvetica" font-size="13" lengthAdjust="spacing" textLength="4.1323" x="720.7646" y="698.9653">&#160;</text><text fill="#2A0A4A" font-family="Helvetica" font-size="13" lengthAdjust="spacing" textLength="34.3027" x="724.897" y="698.9653">stays</text><rect fill="#E6E6FA" height="35.1328" rx="12.5" ry="12.5" style="stroke:#4A148C;stroke-width:0.5;" width="99.1235" x="789.1997" y="673.4961"/><text fill="#2A0A4A" font-family="Helvetica" font-size="13" lengthAdjust="spacing" textLength="79.1235" x="799.1997" y="695.563">Provisioning</text><rect fill="#E6E6FA" height="50.2656" rx="12.5" ry="12.5" style="stroke:#4A148C;stroke-width:0.5;" width="128.6211" x="436.7253" y="754"/><text fill="#2A0A4A" font-family="Helvetica" font-size="13" lengthAdjust="spacing" textLength="53.8535" x="446.7253" y="776.0669">Running</text><text fill="#2A0A4A" font-family="Helvetica" font-size="13" lengthAdjust="spacing" textLength="4.1323" x="500.5789" y="776.0669">&#160;</text><text fill="#2A0A4A" font-family="Helvetica" font-size="13" lengthAdjust="spacing" textLength="13.2983" x="504.7112" y="776.0669">or</text><text fill="#2A0A4A" font-family="Helvetica" font-size="13" lengthAdjust="spacing" textLength="4.1323" x="518.0095" y="776.0669">&#160;</text><text fill="#2A0A4A" font-family="Helvetica" font-size="13" lengthAdjust="spacing" textLength="28.0757" x="522.1418" y="776.0669">Idle:</text><text fill="#2A0A4A" font-family="Helvetica" font-size="13" lengthAdjust="spacing" textLength="56.5703" x="446.7253" y="791.1997">evaluate</text><text fill="#2A0A4A" font-family="Helvetica" font-size="13" lengthAdjust="spacing" textLength="4.1323" x="503.2957" y="791.1997">&#160;</text><text fill="#2A0A4A" font-family="Helvetica" font-size="13" lengthAdjust="spacing" textLength="47.9185" x="507.428" y="791.1997">activity</text><rect fill="#E6E6FA" height="35.1328" rx="12.5" ry="12.5" style="stroke:#4A148C;stroke-width:0.5;" width="169.3096" x="416.3811" y="824.2656"/><text fill="#2A0A4A" font-family="Helvetica" font-size="13" lengthAdjust="spacing" textLength="32.6841" x="426.3811" y="846.3325">write</text><text fill="#2A0A4A" font-family="Helvetica" font-size="13" lengthAdjust="spacing" textLength="4.1323" x="459.0652" y="846.3325">&#160;</text><text fill="#2A0A4A" font-family="Helvetica" font-size="13" lengthAdjust="spacing" textLength="39.9458" x="463.1975" y="846.3325">status</text><text fill="#2A0A4A" font-family="Helvetica" font-size="13" lengthAdjust="spacing" textLength="4.1323" x="503.1433" y="846.3325">&#160;</text><text fill="#2A0A4A" font-family="Helvetica" font-size="13" lengthAdjust="spacing" textLength="8.1885" x="507.2756" y="846.3325">if</text><text fill="#2A0A4A" font-family="Helvetica" font-size="13" lengthAdjust="spacing" textLength="4.1323" x="515.4641" y="846.3325">&#160;</text><text fill="#2A0A4A" font-family="Helvetica" font-size="13" lengthAdjust="spacing" textLength="56.0942" x="519.5964" y="846.3325">changed</text><ellipse cx="501.0359" cy="890.3984" fill="none" rx="11" ry="11" style="stroke:#222222;stroke-width:1;"/><ellipse cx="501.0359" cy="890.3984" fill="#222222" rx="6" ry="6" style="stroke:#222222;stroke-width:1;"/><line style="stroke:#4A148C;stroke-width:1;" x1="501.0359" x2="501.0359" y1="35" y2="55"/><polygon fill="#4A148C" points="497.0359,45,501.0359,55,505.0359,45,501.0359,49" style="stroke:#4A148C;stroke-width:1;stroke-linejoin:miter;stroke-miterlimit:10;"/><line style="stroke:#4A148C;stroke-width:1;" x1="123.3247" x2="123.3247" y1="162.2656" y2="195.0703"/><polygon fill="#4A148C" points="119.3247,185.0703,123.3247,195.0703,127.3247,185.0703,123.3247,189.0703" style="stroke:#4A148C;stroke-width:1;stroke-linejoin:miter;stroke-miterlimit:10;"/><line style="stroke:#4A148C;stroke-width:1;" x1="345.823" x2="345.823" y1="164.2344" y2="197.0391"/><polygon fill="#4A148C" points="341.823,187.0391,345.823,197.0391,349.823,187.0391,345.823,191.0391" style="stroke:#4A148C;stroke-width:1;stroke-linejoin:miter;stroke-miterlimit:10;"/><line style="stroke:#4A148C;stroke-width:1;" x1="539.147" x2="539.147" y1="162.2656" y2="195.0703"/><polygon fill="#4A148C" points="535.147,185.0703,539.147,195.0703,543.147,185.0703,539.147,189.0703" style="stroke:#4A148C;stroke-width:1;stroke-linejoin:miter;stroke-miterlimit:10;"/><line style="stroke:#4A148C;stroke-width:1;" x1="694.3945" x2="694.3945" y1="164.2344" y2="197.0391"/><polygon fill="#4A148C" points="690.3945,187.0391,694.3945,197.0391,698.3945,187.0391,694.3945,191.0391" style="stroke:#4A148C;stroke-width:1;stroke-linejoin:miter;stroke-miterlimit:10;"/><line style="stroke:#4A148C;stroke-width:1;" x1="853.7817" x2="853.7817" y1="162.2656" y2="195.0703"/><polygon fill="#4A148C" points="849.7817,185.0703,853.7817,195.0703,857.7817,185.0703,853.7817,189.0703" style="stroke:#4A148C;stroke-width:1;stroke-linejoin:miter;stroke-miterlimit:10;"/><line style="stroke:#4A148C;stroke-width:1;" x1="199.2065" x2="288.4421" y1="150.2656" y2="150.2656"/><polygon fill="#4A148C" points="278.4421,146.2656,288.4421,150.2656,278.4421,154.2656,282.4421,150.2656" style="stroke:#4A148C;stroke-width:1;stroke-linejoin:miter;stroke-miterlimit:10;"/><line style="stroke:#4A148C;stroke-width:1;" x1="403.2039" x2="470.9966" y1="150.2656" y2="150.2656"/><polygon fill="#4A148C" points="460.9966,146.2656,470.9966,150.2656,460.9966,154.2656,464.9966,150.2656" style="stroke:#4A148C;stroke-width:1;stroke-linejoin:miter;stroke-miterlimit:10;"/><line style="stroke:#4A148C;stroke-width:1;" x1="607.2974" x2="628.1162" y1="150.2656" y2="150.2656"/><polygon fill="#4A148C" points="618.1162,146.2656,628.1162,150.2656,618.1162,154.2656,622.1162,150.2656" style="stroke:#4A148C;stroke-width:1;stroke-linejoin:miter;stroke-miterlimit:10;"/><line style="stroke:#4A148C;stroke-width:1;" x1="760.6729" x2="781.4917" y1="150.2656" y2="150.2656"/><polygon fill="#4A148C" points="771.4917,146.2656,781.4917,150.2656,771.4917,154.2656,775.4917,150.2656" style="stroke:#4A148C;stroke-width:1;stroke-linejoin:miter;stroke-miterlimit:10;"/><line style="stroke:#4A148C;stroke-width:1;" x1="501.0359" x2="501.0359" y1="90.1328" y2="123.2656"/><line style="stroke:#4A148C;stroke-width:1;" x1="501.0359" x2="123.3247" y1="123.2656" y2="123.2656"/><line style="stroke:#4A148C;stroke-width:1;" x1="123.3247" x2="123.3247" y1="123.2656" y2="138.2656"/><polygon fill="#4A148C" points="119.3247,128.2656,123.3247,138.2656,127.3247,128.2656,123.3247,132.2656" style="stroke:#4A148C;stroke-width:1;stroke-linejoin:miter;stroke-miterlimit:10;"/><line style="stroke:#4A148C;stroke-width:1;" x1="926.0718" x2="944.7734" y1="150.2656" y2="150.2656"/><line style="stroke:#4A148C;stroke-width:1;" x1="944.7734" x2="944.7734" y1="150.2656" y2="252.3047"/><line style="stroke:#4A148C;stroke-width:1;" x1="944.7734" x2="501.0359" y1="252.3047" y2="252.3047"/><line style="stroke:#4A148C;stroke-width:1;" x1="501.0359" x2="501.0359" y1="252.3047" y2="304.4375"/><polygon fill="#4A148C" points="497.0359,294.4375,501.0359,304.4375,505.0359,294.4375,501.0359,298.4375" style="stroke:#4A148C;stroke-width:1;stroke-linejoin:miter;stroke-miterlimit:10;"/><line style="stroke:#4A148C;stroke-width:1;" x1="308.0193" x2="308.0193" y1="402.6406" y2="435.4453"/><polygon fill="#4A148C" points="304.0193,425.4453,308.0193,435.4453,312.0193,425.4453,308.0193,429.4453" style="stroke:#4A148C;stroke-width:1;stroke-linejoin:miter;stroke-miterlimit:10;"/><line style="stroke:#4A148C;stroke-width:1;" x1="464.1824" x2="464.1824" y1="409.625" y2="442.4297"/><polygon fill="#4A148C" points="460.1824,432.4297,464.1824,442.4297,468.1824,432.4297,464.1824,436.4297" style="stroke:#4A148C;stroke-width:1;stroke-linejoin:miter;stroke-miterlimit:10;"/><line style="stroke:#4A148C;stroke-width:1;" x1="632.199" x2="632.199" y1="400.6719" y2="433.4766"/><polygon fill="#4A148C" points="628.199,423.4766,632.199,433.4766,636.199,423.4766,632.199,427.4766" style="stroke:#4A148C;stroke-width:1;stroke-linejoin:miter;stroke-miterlimit:10;"/><line style="stroke:#4A148C;stroke-width:1;" x1="363.3201" x2="383.3201" y1="388.6719" y2="388.6719"/><polygon fill="#4A148C" points="373.3201,384.6719,383.3201,388.6719,373.3201,392.6719,377.3201,388.6719" style="stroke:#4A148C;stroke-width:1;stroke-linejoin:miter;stroke-miterlimit:10;"/><line style="stroke:#4A148C;stroke-width:1;" x1="545.0447" x2="565.0447" y1="388.6719" y2="388.6719"/><polygon fill="#4A148C" points="555.0447,384.6719,565.0447,388.6719,555.0447,392.6719,559.0447,388.6719" style="stroke:#4A148C;stroke-width:1;stroke-linejoin:miter;stroke-miterlimit:10;"/><line style="stroke:#4A148C;stroke-width:1;" x1="501.0359" x2="501.0359" y1="354.7031" y2="359.7031"/><line style="stroke:#4A148C;stroke-width:1;" x1="501.0359" x2="308.0193" y1="359.7031" y2="359.7031"/><line style="stroke:#4A148C;stroke-width:1;" x1="308.0193" x2="308.0193" y1="359.7031" y2="374.7031"/><polygon fill="#4A148C" points="304.0193,364.7031,308.0193,374.7031,312.0193,364.7031,308.0193,368.7031" style="stroke:#4A148C;stroke-width:1;stroke-linejoin:miter;stroke-miterlimit:10;"/><line style="stroke:#4A148C;stroke-width:1;" x1="699.3533" x2="734.3533" y1="388.6719" y2="388.6719"/><line style="stroke:#4A148C;stroke-width:1;" x1="734.3533" x2="734.3533" y1="388.6719" y2="497.6953"/><line style="stroke:#4A148C;stroke-width:1;" x1="734.3533" x2="501.0359" y1="497.6953" y2="497.6953"/><line style="stroke:#4A148C;stroke-width:1;" x1="501.0359" x2="501.0359" y1="497.6953" y2="549.8281"/><polygon fill="#4A148C" points="497.0359,539.8281,501.0359,549.8281,505.0359,539.8281,501.0359,543.8281" style="stroke:#4A148C;stroke-width:1;stroke-linejoin:miter;stroke-miterlimit:10;"/><line style="stroke:#4A148C;stroke-width:1;" x1="188.2185" x2="188.2185" y1="644.0938" y2="676.8984"/><polygon fill="#4A148C" points="184.2185,666.8984,188.2185,676.8984,192.2185,666.8984,188.2185,670.8984" style="stroke:#4A148C;stroke-width:1;stroke-linejoin:miter;stroke-miterlimit:10;"/><line style="stroke:#4A148C;stroke-width:1;" x1="188.2185" x2="188.2185" y1="712.0313" y2="734"/><polygon fill="#4A148C" points="184.2185,724,188.2185,734,192.2185,724,188.2185,728" style="stroke:#4A148C;stroke-width:1;stroke-linejoin:miter;stroke-miterlimit:10;"/><line style="stroke:#4A148C;stroke-width:1;" x1="356.8601" x2="356.8601" y1="646.0625" y2="678.8672"/><polygon fill="#4A148C" points="352.8601,668.8672,356.8601,678.8672,360.8601,668.8672,356.8601,672.8672" style="stroke:#4A148C;stroke-width:1;stroke-linejoin:miter;stroke-miterlimit:10;"/><line style="stroke:#4A148C;stroke-width:1;" x1="356.8601" x2="356.8601" y1="714" y2="734"/><polygon fill="#4A148C" points="352.8601,724,356.8601,734,360.8601,724,356.8601,728" style="stroke:#4A148C;stroke-width:1;stroke-linejoin:miter;stroke-miterlimit:10;"/><line style="stroke:#4A148C;stroke-width:1;" x1="519.2759" x2="519.2759" y1="646.0625" y2="678.8672"/><polygon fill="#4A148C" points="515.2759,668.8672,519.2759,678.8672,523.2759,668.8672,519.2759,672.8672" style="stroke:#4A148C;stroke-width:1;stroke-linejoin:miter;stroke-miterlimit:10;"/><line style="stroke:#4A148C;stroke-width:1;" x1="519.2759" x2="519.2759" y1="714" y2="734"/><polygon fill="#4A148C" points="515.2759,724,519.2759,734,523.2759,724,519.2759,728" style="stroke:#4A148C;stroke-width:1;stroke-linejoin:miter;stroke-miterlimit:10;"/><line style="stroke:#4A148C;stroke-width:1;" x1="688.3599" x2="688.3599" y1="644.0938" y2="676.8984"/><polygon fill="#4A148C" points="684.3599,666.8984,688.3599,676.8984,692.3599,666.8984,688.3599,670.8984" style="stroke:#4A148C;stroke-width:1;stroke-linejoin:miter;stroke-miterlimit:10;"/><line style="stroke:#4A148C;stroke-width:1;" x1="688.3599" x2="688.3599" y1="712.0313" y2="734"/><polygon fill="#4A148C" points="684.3599,724,688.3599,734,692.3599,724,688.3599,728" style="stroke:#4A148C;stroke-width:1;stroke-linejoin:miter;stroke-miterlimit:10;"/><line style="stroke:#4A148C;stroke-width:1;" x1="214.5007" x2="311.6462" y1="632.0938" y2="632.0938"/><polygon fill="#4A148C" points="301.6462,628.0938,311.6462,632.0938,301.6462,636.0938,305.6462,632.0938" style="stroke:#4A148C;stroke-width:1;stroke-linejoin:miter;stroke-miterlimit:10;"/><line style="stroke:#4A148C;stroke-width:1;" x1="402.074" x2="451.0317" y1="632.0938" y2="632.0938"/><polygon fill="#4A148C" points="441.0317,628.0938,451.0317,632.0938,441.0317,636.0938,445.0317,632.0938" style="stroke:#4A148C;stroke-width:1;stroke-linejoin:miter;stroke-miterlimit:10;"/><line style="stroke:#4A148C;stroke-width:1;" x1="587.52" x2="654.2788" y1="632.0938" y2="632.0938"/><polygon fill="#4A148C" points="644.2788,628.0938,654.2788,632.0938,644.2788,636.0938,648.2788,632.0938" style="stroke:#4A148C;stroke-width:1;stroke-linejoin:miter;stroke-miterlimit:10;"/><line style="stroke:#4A148C;stroke-width:1;" x1="501.0359" x2="501.0359" y1="600.0938" y2="605.0938"/><line style="stroke:#4A148C;stroke-width:1;" x1="501.0359" x2="188.2185" y1="605.0938" y2="605.0938"/><line style="stroke:#4A148C;stroke-width:1;" x1="188.2185" x2="188.2185" y1="605.0938" y2="620.0938"/><polygon fill="#4A148C" points="184.2185,610.0938,188.2185,620.0938,192.2185,610.0938,188.2185,614.0938" style="stroke:#4A148C;stroke-width:1;stroke-linejoin:miter;stroke-miterlimit:10;"/><line style="stroke:#4A148C;stroke-width:1;" x1="722.4409" x2="838.7615" y1="632.0938" y2="632.0938"/><line style="stroke:#4A148C;stroke-width:1;" x1="838.7615" x2="838.7615" y1="632.0938" y2="673.4961"/><polygon fill="#4A148C" points="834.7615,663.4961,838.7615,673.4961,842.7615,663.4961,838.7615,667.4961" style="stroke:#4A148C;stroke-width:1;stroke-linejoin:miter;stroke-miterlimit:10;"/><line style="stroke:#4A148C;stroke-width:1;" x1="838.7615" x2="838.7615" y1="708.6289" y2="734"/><polygon fill="#4A148C" points="834.7615,724,838.7615,734,842.7615,724,838.7615,728" style="stroke:#4A148C;stroke-width:1;stroke-linejoin:miter;stroke-miterlimit:10;"/><line style="stroke:#4A148C;stroke-width:1;" x1="188.2185" x2="838.7615" y1="734" y2="734"/><line style="stroke:#4A148C;stroke-width:1;" x1="501.0359" x2="501.0359" y1="734" y2="754"/><polygon fill="#4A148C" points="497.0359,744,501.0359,754,505.0359,744,501.0359,748" style="stroke:#4A148C;stroke-width:1;stroke-linejoin:miter;stroke-miterlimit:10;"/><line style="stroke:#4A148C;stroke-width:1;" x1="501.0359" x2="501.0359" y1="804.2656" y2="824.2656"/><polygon fill="#4A148C" points="497.0359,814.2656,501.0359,824.2656,505.0359,814.2656,501.0359,818.2656" style="stroke:#4A148C;stroke-width:1;stroke-linejoin:miter;stroke-miterlimit:10;"/><line style="stroke:#4A148C;stroke-width:1;" x1="501.0359" x2="501.0359" y1="859.3984" y2="879.3984"/><polygon fill="#4A148C" points="497.0359,869.3984,501.0359,879.3984,505.0359,869.3984,501.0359,873.3984" style="stroke:#4A148C;stroke-width:1;stroke-linejoin:miter;stroke-miterlimit:10;"/><?plantuml-src XLJHRjms47pNLspp4WTGpZ7Iee4EHf2uDUg79WSRI5uEA6Xo9H57aIgNElTGvDyxbANp9H6QDu7QdHtEpF8vVVHCxnhswPPryDewZjGh4RAUKiiKei59_jB1CCN1urTQqUzAjnJ30raXvOldn4xOrgILQ6Mu9AUieJ0aSbmdIe6YRTgqffrrZjWRwnjqHXwn-H-R15ygPIHlniEHnZtNOIhQ19EdfJ3ebisAFgESEFEGn3r5LYPpCVGGRMBG583bHZzqznpPaBEIA7WoGSkvH7sEAwSO72vz7e_tbrLdLiLFrcituCf_IJeuNlL3vuf2aegfg4R5wDYoBeeUvpPPW3-xoBTzNT63sa67Pb3HI4c6cmXXg569dz6_1H7KEjifvRgL3UUv-3B5WT--o9mzdHrONg2AgFh3Whv7dwdebcNeeDrwwxFYuD25FSPyHlzDuw6LMOzTMMTyJBQSUTMnz4epPDdwSUnBEK2uRc7WBQGyN5uhz6xztLZrOUw_3l7U6iD-SSmep9NBpi5JIN94zs49_CRlbRFcbciOv3KlWlAUuu5q328lORtURNtE1Y-0zwqIllpjKUjb9UQV9IaaKJjMSK62o98W9YP5dZis6Vmxp7bwpdHTVFag2Z_dAFnQqVrW6aubjPEJ-5cEIK0mhXZbjTN7N5JpFAmSC7FnrjSnT1CCuexQzPIWEHp819Prwv_2id0h4-q-xpIrmPdoKSPCN1QLifrg4AtHIC33LjlbfW6wtR6Ed42_nSPXQRR-AlZQDd-gVjGLiWcYy0Fx8_yzyC3q-jKoWnDjQ6py7cyJmzuAD0B39y1VPC6dIOSbezvaeoukAjAjTGPHBFDpWuZePFSs7SfHz44cX-xUbL0Wxgs6FfjFLr3b0wU747URuAm-pEO0uuInvuapfCEDq7d2VNroxSGHEwxSQAZqh0d6rMd9K7RyVqWwAcd9XT2FM3VPqGtyUw_qxcDTBo0-Rj2rmhDcJf6-bl_ahHXy7bhcLDqW2LceWwo_MOvlZ5eVRNX2c04gl6nu58Ri-In_hg_6Ptto8Qkh4RtcaIHsjI--_0S0?></g></svg>