<svg xmlns="http://www.w3.org/2000/svg" xmlns:xlink="http://www.w3.org/1999/xlink" contentStyleType="text/css" data-diagram-type="TIMING" height="472px" preserveAspectRatio="none" style="width:898px;height:472px;" version="1.1" viewBox="0 0 898 472" width="898px" zoomAndPan="magnify"><?plantuml 1.2026.6?><defs/><g><line style="stroke:#333333;stroke-width:0.5;" x1="20" x2="20" y1="20" y2="185.3984"/><line style="stroke:#333333;stroke-width:0.5;" x1="877" x2="877" y1="20" y2="185.3984"/><line style="stroke:#333333;stroke-width:0.5;stroke-dasharray:3,5;" x1="25" x2="25" y1="20" y2="185.3984"/><line style="stroke:#333333;stroke-width:0.5;stroke-dasharray:3,5;" x1="32" x2="32" y1="20" y2="185.3984"/><line style="stroke:#333333;stroke-width:0.5;stroke-dasharray:3,5;" x1="39" x2="39" y1="20" y2="185.3984"/><line style="stroke:#333333;stroke-width:0.5;stroke-dasharray:3,5;" x1="46" x2="46" y1="20" y2="185.3984"/><line style="stroke:#333333;stroke-width:0.5;stroke-dasharray:3,5;" x1="53" x2="53" y1="20" y2="185.3984"/><line style="stroke:#333333;stroke-width:0.5;stroke-dasharray:3,5;" x1="60" x2="60" y1="20" y2="185.3984"/><line style="stroke:#333333;stroke-width:0.5;stroke-dasharray:3,5;" x1="67" x2="67" y1="20" y2="185.3984"/><line style="stroke:#333333;stroke-width:0.5;stroke-dasharray:3,5;" x1="74" x2="74" y1="20" y2="185.3984"/><line style="stroke:#333333;stroke-width:0.5;stroke-dasharray:3,5;" x1="81" x2="81" y1="20" y2="185.3984"/><line style="stroke:#333333;stroke-width:0.5;stroke-dasharray:3,5;" x1="88" x2="88" y1="20" y2="185.3984"/><line style="stroke:#333333;stroke-width:0.5;stroke-dasharray:3,5;" x1="95" x2="95" y1="20" y2="185.3984"/><line style="stroke:#333333;stroke-width:0.5;stroke-dasharray:3,5;" x1="102" x2="102" y1="20" y2="185.3984"/><line style="stroke:#333333;stroke-width:0.5;stroke-dasharray:3,5;" x1="109" x2="109" y1="20" y2="185.3984"/><line style="stroke:#333333;stroke-width:0.5;stroke-dasharray:3,5;" x1="116" x2="116" y1="20" y2="185.3984"/><line style="stroke:#333333;stroke-width:0.5;stroke-dasharray:3,5;" x1="123" x2="123" y1="20" y2="185.3984"/><line style="stroke:#333333;stroke-width:0.5;stroke-dasharray:3,5;" x1="130" x2="130" y1="20" y2="185.3984"/><line style="stroke:#333333;stroke-width:0.5;stroke-dasharray:3,5;" x1="137" x2="137" y1="20" y2="185.3984"/><line style="stroke:#333333;stroke-width:0.5;stroke-dasharray:3,5;" x1="144" x2="144" y1="20" y2="185.3984"/><line style="stroke:#333333;stroke-width:0.5;stroke-dasharray:3,5;" x1="151" x2="151" y1="20" y2="185.3984"/><line style="stroke:#333333;stroke-width:0.5;stroke-dasharray:3,5;" x1="158" x2="158" y1="20" y2="185.3984"/><line style="stroke:#333333;stroke-width:0.5;stroke-dasharray:3,5;" x1="165" x2="165" y1="20" y2="185.3984"/><line style="stroke:#333333;stroke-width:0.5;stroke-dasharray:3,5;" x1="172" x2="172" y1="20" y2="185.3984"/><line style="stroke:#333333;stroke-width:0.5;stroke-dasharray:3,5;" x1="179" x2="179" y1="20" y2="185.3984"/><line style="stroke:#333333;stroke-width:0.5;stroke-dasharray:3,5;" x1="186" x2="186" y1="20" y2="185.3984"/><line style="stroke:#333333;stroke-width:0.5;stroke-dasharray:3,5;" x1="193" x2="193" y1="20" y2="185.3984"/><line style="stroke:#333333;stroke-width:0.5;stroke-dasharray:3,5;" x1="200" x2="200" y1="20" y2="185.3984"/><line style="stroke:#333333;stroke-width:0.5;stroke-dasharray:3,5;" x1="207" x2="207" y1="20" y2="185.3984"/><line style="stroke:#333333;stroke-width:0.5;stroke-dasharray:3,5;" x1="214" x2="214" y1="20" y2="185.3984"/><line style="stroke:#333333;stroke-width:0.5;stroke-dasharray:3,5;" x1="221" x2="221" y1="20" y2="185.3984"/><line style="stroke:#333333;stroke-width:0.5;stroke-dasharray:3,5;" x1="228" x2="228" y1="20" y2="185.3984"/><line style="stroke:#333333;stroke-width:0.5;stroke-dasharray:3,5;" x1="235" x2="235" y1="20" y2="185.3984"/><line style="stroke:#333333;stroke-width:0.5;stroke-dasharray:3,5;" x1="242" x2="242" y1="20" y2="185.3984"/><line style="stroke:#333333;stroke-width:0.5;stroke-dasharray:3,5;" x1="249" x2="249" y1="20" y2="185.3984"/><line style="stroke:#333333;stroke-width:0.5;stroke-dasharray:3,5;" x1="256" x2="256" y1="20" y2="185.3984"/><line style="stroke:#333333;stroke-width:0.5;stroke-dasharray:3,5;" x1="263" x2="263" y1="20" y2="185.3984"/><line style="stroke:#333333;stroke-width:0.5;stroke-dasharray:3,5;" x1="270" x2="270" y1="20" y2="185.3984"/><line style="stroke:#333333;stroke-width:0.5;stroke-dasharray:3,5;" x1="277" x2="277" y1="20" y2="185.3984"/><line style="stroke:#333333;stroke-width:0.5;stroke-dasharray:3,5;" x1="284" x2="284" y1="20" y2="185.3984"/><line style="stroke:#333333;stroke-width:0.5;stroke-dasharray:3,5;" x1="291" x2="291" y1="20" y2="185.3984"/><line style="stroke:#333333;stroke-width:0.5;stroke-dasharray:3,5;" x1="298" x2="298" y1="20" y2="185.3984"/><line style="stroke:#333333;stroke-width:0.5;stroke-dasharray:3,5;" x1="305" x2="305" y1="20" y2="185.3984"/><line style="stroke:#333333;stroke-width:0.5;stroke-dasharray:3,5;" x1="312" x2="312" y1="20" y2="185.3984"/><line style="stroke:#333333;stroke-width:0.5;stroke-dasharray:3,5;" x1="319" x2="319" y1="20" y2="185.3984"/><line style="stroke:#333333;stroke-width:0.5;stroke-dasharray:3,5;" x1="326" x2="326" y1="20" y2="185.3984"/><line style="stroke:#333333;stroke-width:0.5;stroke-dasharray:3,5;" x1="333" x2="333" y1="20" y2="185.3984"/><line style="stroke:#333333;stroke-width:0.5;stroke-dasharray:3,5;" x1="340" x2="340" y1="20" y2="185.3984"/><line style="stroke:#333333;stroke-width:0.5;stroke-dasharray:3,5;" x1="347" x2="347" y1="20" y2="185.3984"/><line style="stroke:#333333;stroke-width:0.5;stroke-dasharray:3,5;" x1="354" x2="354" y1="20" y2="185.3984"/><line style="stroke:#333333;stroke-width:0.5;stroke-dasharray:3,5;" x1="361" x2="361" y1="20" y2="185.3984"/><line style="stroke:#333333;stroke-width:0.5;stroke-dasharray:3,5;" x1="368" x2="368" y1="20" y2="185.3984"/><line style="stroke:#333333;stroke-width:0.5;stroke-dasharray:3,5;" x1="375" x2="375" y1="20" y2="185.3984"/><line style="stroke:#333333;stroke-width:0.5;stroke-dasharray:3,5;" x1="382" x2="382" y1="20" y2="185.3984"/><line style="stroke:#333333;stroke-width:0.5;stroke-dasharray:3,5;" x1="389" x2="389" y1="20" y2="185.3984"/><line style="stroke:#333333;stroke-width:0.5;stroke-dasharray:3,5;" x1="396" x2="396" y1="20" y2="185.3984"/><line style="stroke:#333333;stroke-width:0.5;stroke-dasharray:3,5;" x1="403" x2="403" y1="20" y2="185.3984"/><line style="stroke:#333333;stroke-width:0.5;stroke-dasharray:3,5;" x1="410" x2="410" y1="20" y2="185.3984"/><line style="stroke:#333333;stroke-width:0.5;stroke-dasharray:3,5;" x1="417" x2="417" y1="20" y2="185.3984"/><line style="stroke:#333333;stroke-width:0.5;stroke-dasharray:3,5;" x1="424" x2="424" y1="20" y2="185.3984"/><line style="stroke:#333333;stroke-width:0.5;stroke-dasharray:3,5;" x1="431" x2="431" y1="20" y2="185.3984"/><line style="stroke:#333333;stroke-width:0.5;stroke-dasharray:3,5;" x1="438" x2="438" y1="20" y2="185.3984"/><line style="stroke:#333333;stroke-width:0.5;stroke-dasharray:3,5;" x1="445" x2="445" y1="20" y2="185.3984"/><line style="stroke:#333333;stroke-width:0.5;stroke-dasharray:3,5;" x1="452" x2="452" y1="20" y2="185.3984"/><line style="stroke:#333333;stroke-width:0.5;stroke-dasharray:3,5;" x1="459" x2="459" y1="20" y2="185.3984"/><line style="stroke:#333333;stroke-width:0.5;stroke-dasharray:3,5;" x1="466" x2="466" y1="20" y2="185.3984"/><line style="stroke:#333333;stroke-width:0.5;stroke-dasharray:3,5;" x1="473" x2="473" y1="20" y2="185.3984"/><line style="stroke:#333333;stroke-width:0.5;stroke-dasharray:3,5;" x1="480" x2="480" y1="20" y2="185.3984"/><line style="stroke:#333333;stroke-width:0.5;stroke-dasharray:3,5;" x1="487" x2="487" y1="20" y2="185.3984"/><line style="stroke:#333333;stroke-width:0.5;stroke-dasharray:3,5;" x1="494" x2="494" y1="20" y2="185.3984"/><line style="stroke:#333333;stroke-width:0.5;stroke-dasharray:3,5;" x1="501" x2="501" y1="20" y2="185.3984"/><line style="stroke:#333333;stroke-width:0.5;stroke-dasharray:3,5;" x1="508" x2="508" y1="20" y2="185.3984"/><line style="stroke:#333333;stroke-width:0.5;stroke-dasharray:3,5;" x1="515" x2="515" y1="20" y2="185.3984"/><line style="stroke:#333333;stroke-width:0.5;stroke-dasharray:3,5;" x1="522" x2="522" y1="20" y2="185.3984"/><line style="stroke:#333333;stroke-width:0.5;stroke-dasharray:3,5;" x1="529" x2="529" y1="20" y2="185.3984"/><line style="stroke:#333333;stroke-width:0.5;stroke-dasharray:3,5;" x1="536" x2="536" y1="20" y2="185.3984"/><line style="stroke:#333333;stroke-width:0.5;stroke-dasharray:3,5;" x1="543" x2="543" y1="20" y2="185.3984"/><line style="stroke:#333333;stroke-width:0.5;stroke-dasharray:3,5;" x1="550" x2="550" y1="20" y2="185.3984"/><line style="stroke:#333333;stroke-width:0.5;stroke-dasharray:3,5;" x1="557" x2="557" y1="20" y2="185.3984"/><line style="stroke:#333333;stroke-width:0.5;stroke-dasharray:3,5;" x1="564" x2="564" y1="20" y2="185.3984"/><line style="stroke:#333333;stroke-width:0.5;stroke-dasharray:3,5;" x1="571" x2="571" y1="20" y2="185.3984"/><line style="stroke:#333333;stroke-width:0.5;stroke-dasharray:3,5;" x1="578" x2="578" y1="20" y2="185.3984"/><line style="stroke:#333333;stroke-width:0.5;stroke-dasharray:3,5;" x1="585" x2="585" y1="20" y2="185.3984"/><line style="stroke:#333333;stroke-width:0.5;stroke-dasharray:3,5;" x1="592" x2="592" y1="20" y2="185.3984"/><line style="stroke:#333333;stroke-width:0.5;stroke-dasharray:3,5;" x1="599" x2="599" y1="20" y2="185.3984"/><line style="stroke:#333333;stroke-width:0.5;stroke-dasharray:3,5;" x1="606" x2="606" y1="20" y2="185.3984"/><line style="stroke:#333333;stroke-width:0.5;stroke-dasharray:3,5;" x1="613" x2="613" y1="20" y2="185.3984"/><line style="stroke:#333333;stroke-width:0.5;stroke-dasharray:3,5;" x1="620" x2="620" y1="20" y2="185.3984"/><line style="stroke:#333333;stroke-width:0.5;stroke-dasharray:3,5;" x1="627" x2="627" y1="20" y2="185.3984"/><line style="stroke:#333333;stroke-width:0.5;stroke-dasharray:3,5;" x1="634" x2="634" y1="20" y2="185.3984"/><line style="stroke:#333333;stroke-width:0.5;stroke-dasharray:3,5;" x1="641" x2="641" y1="20" y2="185.3984"/><line style="stroke:#333333;stroke-width:0.5;stroke-dasharray:3,5;" x1="648" x2="648" y1="20" y2="185.3984"/><line style="stroke:#333333;stroke-width:0.5;stroke-dasharray:3,5;" x1="655" x2="655" y1="20" y2="185.3984"/><line style="stroke:#333333;stroke-width:0.5;stroke-dasharray:3,5;" x1="662" x2="662" y1="20" y2="185.3984"/><line style="stroke:#333333;stroke-width:0.5;stroke-dasharray:3,5;" x1="669" x2="669" y1="20" y2="185.3984"/><line style="stroke:#333333;stroke-width:0.5;stroke-dasharray:3,5;" x1="676" x2="676" y1="20" y2="185.3984"/><line style="stroke:#333333;stroke-width:0.5;stroke-dasharray:3,5;" x1="683" x2="683" y1="20" y2="185.3984"/><line style="stroke:#333333;stroke-width:0.5;stroke-dasharray:3,5;" x1="690" x2="690" y1="20" y2="185.3984"/><line style="stroke:#333333;stroke-width:0.5;stroke-dasharray:3,5;" x1="697" x2="697" y1="20" y2="185.3984"/><line style="stroke:#333333;stroke-width:0.5;stroke-dasharray:3,5;" x1="704" x2="704" y1="20" y2="185.3984"/><line style="stroke:#333333;stroke-width:0.5;stroke-dasharray:3,5;" x1="711" x2="711" y1="20" y2="185.3984"/><line style="stroke:#333333;stroke-width:0.5;stroke-dasharray:3,5;" x1="718" x2="718" y1="20" y2="185.3984"/><line style="stroke:#333333;stroke-width:0.5;stroke-dasharray:3,5;" x1="725" x2="725" y1="20" y2="185.3984"/><line style="stroke:#333333;stroke-width:0.5;stroke-dasharray:3,5;" x1="732" x2="732" y1="20" y2="185.3984"/><line style="stroke:#333333;stroke-width:0.5;stroke-dasharray:3,5;" x1="739" x2="739" y1="20" y2="185.3984"/><line style="stroke:#333333;stroke-width:0.5;stroke-dasharray:3,5;" x1="746" x2="746" y1="20" y2="185.3984"/><line style="stroke:#333333;stroke-width:0.5;stroke-dasharray:3,5;" x1="753" x2="753" y1="20" y2="185.3984"/><line style="stroke:#333333;stroke-width:0.5;stroke-dasharray:3,5;" x1="760" x2="760" y1="20" y2="185.3984"/><line style="stroke:#333333;stroke-width:0.5;stroke-dasharray:3,5;" x1="767" x2="767" y1="20" y2="185.3984"/><line style="stroke:#333333;stroke-width:0.5;stroke-dasharray:3,5;" x1="774" x2="774" y1="20" y2="185.3984"/><line style="stroke:#333333;stroke-width:0.5;stroke-dasharray:3,5;" x1="781" x2="781" y1="20" y2="185.3984"/><line style="stroke:#333333;stroke-width:0.5;stroke-dasharray:3,5;" x1="788" x2="788" y1="20" y2="185.3984"/><line style="stroke:#333333;stroke-width:0.5;stroke-dasharray:3,5;" x1="795" x2="795" y1="20" y2="185.3984"/><line style="stroke:#333333;stroke-width:0.5;stroke-dasharray:3,5;" x1="802" x2="802" y1="20" y2="185.3984"/><line style="stroke:#333333;stroke-width:0.5;stroke-dasharray:3,5;" x1="809" x2="809" y1="20" y2="185.3984"/><line style="stroke:#333333;stroke-width:0.5;stroke-dasharray:3,5;" x1="816" x2="816" y1="20" y2="185.3984"/><line style="stroke:#333333;stroke-width:0.5;stroke-dasharray:3,5;" x1="823" x2="823" y1="20" y2="185.3984"/><line style="stroke:#333333;stroke-width:0.5;stroke-dasharray:3,5;" x1="830" x2="830" y1="20" y2="185.3984"/><line style="stroke:#333333;stroke-width:0.5;stroke-dasharray:3,5;" x1="837" x2="837" y1="20" y2="185.3984"/><line style="stroke:#333333;stroke-width:0.5;stroke-dasharray:3,5;" x1="844" x2="844" y1="20" y2="185.3984"/><line style="stroke:#333333;stroke-width:0.5;stroke-dasharray:3,5;" x1="851" x2="851" y1="20" y2="185.3984"/><line style="stroke:#333333;stroke-width:0.5;stroke-dasharray:3,5;" x1="858" x2="858" y1="20" y2="185.3984"/><line style="stroke:#333333;stroke-width:0.5;stroke-dasharray:3,5;" x1="865" x2="865" y1="20" y2="185.3984"/><line style="stroke:#333333;stroke-width:0.5;stroke-dasharray:3,5;" x1="872" x2="872" y1="20" y2="185.3984"/><line style="stroke:#333333;stroke-width:0.5;" x1="20" x2="877" y1="20" y2="20"/><text fill="#333333" font-family="Helvetica" font-size="13" font-weight="700" lengthAdjust="spacing" textLength="79.9424" x="25" y="32.0669">Sync caller</text><line style="stroke:#333333;stroke-width:0.5;" x1="20" x2="105.9424" y1="36.1328" y2="36.1328"/><line style="stroke:#333333;stroke-width:0.5;" x1="105.9424" x2="115.9424" y1="36.1328" y2="20"/><polygon fill="#90EE90" points="37,41.1328,223,41.1328,235,53.1328,223,65.1328,37,65.1328,25,53.1328" style="stroke:#006400;stroke-width:1.5;stroke-linejoin:miter;stroke-miterlimit:10;"/><polygon fill="#FFCDD2" points="247,41.1328,559,41.1328,571,53.1328,559,65.1328,247,65.1328,235,53.1328" style="stroke:#006400;stroke-width:1.5;stroke-linejoin:miter;stroke-miterlimit:10;"/><text fill="#333333" font-family="Helvetica" font-size="13" font-weight="700" lengthAdjust="spacing" textLength="118.6631" x="70.6685" y="57.6333">request in flight</text><text fill="#333333" font-family="Helvetica" font-size="13" font-weight="700" lengthAdjust="spacing" textLength="263.6499" x="271.175" y="50.0669">t=30s: 504 sync_deadline_exceeded</text><text fill="#333333" font-family="Helvetica" font-size="13" font-weight="700" lengthAdjust="spacing" textLength="235.7964" x="271.175" y="65.1997">FIRES. The only error sync sees.</text><line style="stroke:#333333;stroke-width:0.5;" x1="20" x2="877" y1="75.1328" y2="75.1328"/><text fill="#333333" font-family="Helvetica" font-size="13" font-weight="700" lengthAdjust="spacing" textLength="107.3896" x="25" y="87.1997">Agent delivery</text><line style="stroke:#333333;stroke-width:0.5;" x1="20" x2="133.3896" y1="91.2656" y2="91.2656"/><line style="stroke:#333333;stroke-width:0.5;" x1="133.3896" x2="143.3896" y1="91.2656" y2="75.1328"/><polygon fill="#E6E6FA" points="37,96.2656,230,96.2656,242,108.2656,230,120.2656,37,120.2656,25,108.2656" style="stroke:#006400;stroke-width:1.5;stroke-linejoin:miter;stroke-miterlimit:10;"/><polygon fill="#F5F5F5" points="254,96.2656,559,96.2656,571,108.2656,559,120.2656,254,120.2656,242,108.2656" style="stroke:#006400;stroke-width:1.5;stroke-linejoin:miter;stroke-miterlimit:10;"/><text fill="#333333" font-family="Helvetica" font-size="13" font-weight="700" lengthAdjust="spacing" textLength="299.1714" x="-16.0857" y="112.7661">delivery: 4 attempts, 1s+5s+25s backoff</text><text fill="#333333" font-family="Helvetica" font-size="13" font-weight="700" lengthAdjust="spacing" textLength="241.522" x="285.739" y="105.1997">t=31s to 71s: 502 delivery_failed</text><text fill="#333333" font-family="Helvetica" font-size="13" font-weight="700" lengthAdjust="spacing" textLength="145.7231" x="285.739" y="120.3325">DEAD CODE on sync</text><line style="stroke:#333333;stroke-width:0.5;" x1="20" x2="877" y1="130.2656" y2="130.2656"/><text fill="#333333" font-family="Helvetica" font-size="13" font-weight="700" lengthAdjust="spacing" textLength="40.5742" x="25" y="142.3325">Wake</text><line style="stroke:#333333;stroke-width:0.5;" x1="20" x2="66.5742" y1="146.3984" y2="146.3984"/><line style="stroke:#333333;stroke-width:0.5;" x1="66.5742" x2="76.5742" y1="146.3984" y2="130.2656"/><polygon fill="#FFE4B5" points="37,151.3984,559,151.3984,571,163.3984,559,175.3984,37,175.3984,25,163.3984" style="stroke:#006400;stroke-width:1.5;stroke-linejoin:miter;stroke-miterlimit:10;"/><polygon fill="#F5F5F5" points="583,151.3984,853,151.3984,865,163.3984,853,175.3984,583,175.3984,571,163.3984" style="stroke:#006400;stroke-width:1.5;stroke-linejoin:miter;stroke-miterlimit:10;"/><text fill="#333333" font-family="Helvetica" font-size="13" font-weight="700" lengthAdjust="spacing" textLength="210.1582" x="192.9209" y="167.8989">wake: waiting for Pod Ready</text><text fill="#333333" font-family="Helvetica" font-size="13" font-weight="700" lengthAdjust="spacing" textLength="195.5459" x="620.2271" y="160.3325">t=120s: 504 wake_timeout</text><text fill="#333333" font-family="Helvetica" font-size="13" font-weight="700" lengthAdjust="spacing" textLength="145.7231" x="620.2271" y="175.4653">DEAD CODE on sync</text><g class="legend" data-source-line="26"><rect fill="none" height="225.5625" rx="7.5" ry="7.5" style="stroke:#333333;stroke-width:0.5;" width="746.374" x="74.813" y="222.5313"/><text fill="#333333" font-family="Helvetica" font-size="14" font-weight="700" lengthAdjust="spacing" textLength="692.9795" x="79.813" y="240.5264">One shared axis, t=0 at inbound webhook acceptance. The wake lane is cut short to fit;</text><text fill="#333333" font-family="Helvetica" font-size="14" font-weight="700" lengthAdjust="spacing" textLength="681.3721" x="79.813" y="256.8232">its 120s marker sits where the label starts. The polling TTL (1h) is ~30x past the right</text><text fill="#333333" font-family="Helvetica" font-size="14" font-weight="700" lengthAdjust="spacing" textLength="191.3174" x="79.813" y="273.1201">edge and is deliberately</text><text fill="#333333" font-family="Helvetica" font-size="14" font-weight="700" lengthAdjust="spacing" textLength="26.2773" x="276.0044" y="273.1201">not</text><text fill="#333333" font-family="Helvetica" font-size="14" font-weight="700" lengthAdjust="spacing" textLength="121.0234" x="307.1558" y="273.1201">drawn to scale.</text><line style="stroke:#333333;stroke-width:1;" x1="74.813" x2="821.187" y1="281.4219" y2="281.4219"/><line style="stroke:#333333;stroke-width:1;" x1="74.813" x2="821.187" y1="283.4219" y2="283.4219"/><text fill="#333333" font-family="Helvetica" font-size="14" font-weight="700" lengthAdjust="spacing" textLength="364.5811" x="79.813" y="299.417">Red fires. Grey is dead code on the sync path.</text><text fill="#333333" font-family="Helvetica" font-size="14" font-weight="700" lengthAdjust="spacing" textLength="293.1729" x="449.2681" y="299.417">`syncDeliveryDeadline` (30s) expires</text><text fill="#333333" font-family="Helvetica" font-size="14" font-weight="700" lengthAdjust="spacing" textLength="617.832" x="79.813" y="315.7139">before the delivery budget can finish even its fastest possible pass (31s), and</text><text fill="#333333" font-family="Helvetica" font-size="14" font-weight="700" lengthAdjust="spacing" textLength="552.5283" x="79.813" y="332.0107">`wakeTimeout` (120s) is 4x the deadline. So a sync caller always gets</text><text fill="#333333" font-family="Helvetica" font-size="14" font-weight="700" lengthAdjust="spacing" textLength="562.6182" x="79.813" y="348.3076">`504 sync_deadline_exceeded` first, and never observes the other two.</text><line style="stroke:#333333;stroke-width:1;" x1="74.813" x2="821.187" y1="356.6094" y2="356.6094"/><text fill="#333333" font-family="Helvetica" font-size="14" font-weight="700" lengthAdjust="spacing" textLength="675.6777" x="79.813" y="374.6045">The delivery budget is ~31s at best (every attempt fails fast on a connect error or an</text><text fill="#333333" font-family="Helvetica" font-size="14" font-weight="700" lengthAdjust="spacing" textLength="730.4883" x="79.813" y="390.9014">immediate non-2xx) and ~71s at worst (31s of backoff plus 4 attempts each burning the full</text><text fill="#333333" font-family="Helvetica" font-size="14" font-weight="700" lengthAdjust="spacing" textLength="736.374" x="79.813" y="407.1982">10s `agentReadTimeout`). Raising `syncDeliveryDeadline` above the delivery budget is what</text><text fill="#333333" font-family="Helvetica" font-size="14" font-weight="700" lengthAdjust="spacing" textLength="723.9531" x="79.813" y="423.4951">makes `delivery_failed` reachable. Async mode applies no deadline, so both grey outcomes</text><text fill="#333333" font-family="Helvetica" font-size="14" font-weight="700" lengthAdjust="spacing" textLength="304.3838" x="79.813" y="439.792">are reachable there as error payloads.</text></g><?plantuml-src XLHXRzis4FskNt7BFZHs7SLsacRD461Ph0p3YdL830G31jYKTBA8KAJ6es8Rm_hRTqVPTTOrc6rOa4G-ldltths1nteBjBK55CeOz0I461yiIbIbqHONk2aGIon1sH8iFgE74etcwtPHAMtuZVEmLa-u2Bf1ruKqUGCFhlC5WgiW-2xKLr2wWax95wSh5N2jjdIgMdsgvAmJZzGwIqXfKoRVQ5kOhaHOKDWQJDkkCGanFuG9A89BQFK63IMrvaLov8dQQ4gImjb24yBHmw6W8zdnyFkljuUtDokquNC9SS4i-t1u_yYLnAUFDxzaIV93t3q6JN3aySyEAO2sK1czgiCHVFj-d6NlnybPls8u3DTdOxg2Y_7vApeEXt_Okv_liuSKvZKhPCqMq7lMC3Q26q0fuzxTtSvcq-JoEy7zYsijqVxDT8HhVzQ-X2iu1nK2DcsW4KpexGMzdLuGvAfuSbN5MDcxxDtTJN8sEN2S40G7bvD8TVfbHuNZBBkPmUt7MSOK8pKXTI7V_vAAKlMin0XNR0STj5r1nMNzvaguPnMsiQhi_CSzG6GocUxbUccX_o70c_xDm21tjOJSXU2Q1E2ZPHlNoejjsHmZ2DTZ5eaxbxkE5wunhvrx0bKKs0Pb2-ox8Hp0ADxDy4KN6CJv859LEdpFm3eG26Leb7_YA90yMDVesOgrRCtH00Nb0_M8hJD6b9ZFFy3nf1u8yAUpyGPQnKwIFLwSnD1OhZ26Z5T8FtBq71Lsnt1e7Ii2fLThArnY6bBUSiqVlWo7zrnefJb7AVpaSTj3g18ALuh5uZdHNgqATSfOIxcRxRe-stbq2STitW7WfXKiHiwHEzYNjhS8v1qJ3HmmJe6scchWeM2ZCXNN905f7P7EER5S937eX0OZAOqHboBnlEyodoTQHatEDxjJUYefJn1GBsSJA2DZ0_XiORPyFM5BaOB2wCN4SZcXVqQAPpZ-yn3MJYGyuGzVvb-fC7QAWyA-oQMgOunlTra3YKfViYYiM6jhiGYxCFDFMJ5Cqs2fkP5WdJsPRZQ3IElJPG-yTbwGvHYUbRl8GciwUf5gG5NKpCfRSPAKK7N6CFY4ZRXKCj0aO7jL1odSAqsozfKsgzmzVxshMjoin8uDzudHlvWCI_12Hd5pKxY9xMd4OwfjZURrrdrkuGZ8II9hM8abcLdXckWgpkK1HcZmFG_SNhXMROrJ9QK99xhFzJy0?></g></svg>