<svg xmlns="http://www.w3.org/2000/svg" xmlns:xlink="http://www.w3.org/1999/xlink" contentStyleType="text/css" data-diagram-type="TIMING" height="221px" preserveAspectRatio="none" style="width:731px;height:221px;" version="1.1" viewBox="0 0 731 221" width="731px" zoomAndPan="magnify"><?plantuml 1.2026.6?><defs/><g><line style="stroke:#333333;stroke-width:0.5;" x1="20" x2="20" y1="20" y2="185.3984"/><line style="stroke:#333333;stroke-width:0.5;" x1="710" x2="710" y1="20" y2="185.3984"/><line style="stroke:#333333;stroke-width:0.5;stroke-dasharray:3,5;" x1="25" x2="25" y1="20" y2="185.3984"/><line style="stroke:#333333;stroke-width:0.5;stroke-dasharray:3,5;" x1="65" x2="65" y1="20" y2="185.3984"/><line style="stroke:#333333;stroke-width:0.5;stroke-dasharray:3,5;" x1="105" x2="105" y1="20" y2="185.3984"/><line style="stroke:#333333;stroke-width:0.5;stroke-dasharray:3,5;" x1="145" x2="145" y1="20" y2="185.3984"/><line style="stroke:#333333;stroke-width:0.5;stroke-dasharray:3,5;" x1="185" x2="185" y1="20" y2="185.3984"/><line style="stroke:#333333;stroke-width:0.5;stroke-dasharray:3,5;" x1="225" x2="225" y1="20" y2="185.3984"/><line style="stroke:#333333;stroke-width:0.5;stroke-dasharray:3,5;" x1="265" x2="265" y1="20" y2="185.3984"/><line style="stroke:#333333;stroke-width:0.5;stroke-dasharray:3,5;" x1="305" x2="305" y1="20" y2="185.3984"/><line style="stroke:#333333;stroke-width:0.5;stroke-dasharray:3,5;" x1="345" x2="345" y1="20" y2="185.3984"/><line style="stroke:#333333;stroke-width:0.5;stroke-dasharray:3,5;" x1="385" x2="385" y1="20" y2="185.3984"/><line style="stroke:#333333;stroke-width:0.5;stroke-dasharray:3,5;" x1="425" x2="425" y1="20" y2="185.3984"/><line style="stroke:#333333;stroke-width:0.5;stroke-dasharray:3,5;" x1="465" x2="465" y1="20" y2="185.3984"/><line style="stroke:#333333;stroke-width:0.5;stroke-dasharray:3,5;" x1="505" x2="505" y1="20" y2="185.3984"/><line style="stroke:#333333;stroke-width:0.5;stroke-dasharray:3,5;" x1="545" x2="545" y1="20" y2="185.3984"/><line style="stroke:#333333;stroke-width:0.5;stroke-dasharray:3,5;" x1="585" x2="585" y1="20" y2="185.3984"/><line style="stroke:#333333;stroke-width:0.5;stroke-dasharray:3,5;" x1="625" x2="625" y1="20" y2="185.3984"/><line style="stroke:#333333;stroke-width:0.5;stroke-dasharray:3,5;" x1="665" x2="665" y1="20" y2="185.3984"/><line style="stroke:#333333;stroke-width:0.5;stroke-dasharray:3,5;" x1="705" x2="705" y1="20" y2="185.3984"/><line style="stroke:#333333;stroke-width:0.5;" x1="20" x2="710" y1="20" y2="20"/><text fill="#333333" font-family="Helvetica" font-size="13" font-weight="700" lengthAdjust="spacing" textLength="102.5083" x="25" y="32.0669">Sync deadline</text><line style="stroke:#333333;stroke-width:0.5;" x1="20" x2="128.5083" y1="36.1328" y2="36.1328"/><line style="stroke:#333333;stroke-width:0.5;" x1="128.5083" x2="138.5083" y1="36.1328" y2="20"/><polygon fill="#90EE90" points="37,41.1328,133,41.1328,145,53.1328,133,65.1328,37,65.1328,25,53.1328" style="stroke:#006400;stroke-width:1.5;stroke-linejoin:miter;stroke-miterlimit:10;"/><polygon fill="#FFCDD2" points="157,41.1328,653,41.1328,665,53.1328,653,65.1328,157,65.1328,145,53.1328" style="stroke:#006400;stroke-width:1.5;stroke-linejoin:miter;stroke-miterlimit:10;"/><text fill="#333333" font-family="Helvetica" font-size="13" font-weight="700" lengthAdjust="spacing" textLength="57.5796" x="56.2102" y="57.6333">in flight</text><text fill="#333333" font-family="Helvetica" font-size="13" font-weight="700" lengthAdjust="spacing" textLength="210.9897" x="299.5051" y="50.0669">504 sync_deadline_exceeded</text><text fill="#333333" font-family="Helvetica" font-size="13" font-weight="700" lengthAdjust="spacing" textLength="25.8286" x="299.5051" y="65.1997">30s</text><line style="stroke:#333333;stroke-width:0.5;" x1="20" x2="710" y1="75.1328" y2="75.1328"/><text fill="#333333" font-family="Helvetica" font-size="13" font-weight="700" lengthAdjust="spacing" textLength="107.3896" x="25" y="87.1997">Agent delivery</text><line style="stroke:#333333;stroke-width:0.5;" x1="20" x2="133.3896" y1="91.2656" y2="91.2656"/><line style="stroke:#333333;stroke-width:0.5;" x1="133.3896" x2="143.3896" y1="91.2656" y2="75.1328"/><polygon fill="#E6E6FA" points="37,96.2656,137,96.2656,149,108.2656,137,120.2656,37,120.2656,25,108.2656" style="stroke:#006400;stroke-width:1.5;stroke-linejoin:miter;stroke-miterlimit:10;"/><polygon fill="#F5F5F5" points="161,96.2656,297,96.2656,309,108.2656,297,120.2656,161,120.2656,149,108.2656" style="stroke:#006400;stroke-width:1.5;stroke-linejoin:miter;stroke-miterlimit:10;"/><text fill="#333333" font-family="Helvetica" font-size="13" font-weight="700" lengthAdjust="spacing" textLength="80.3931" x="46.8035" y="112.7661">4 attempts</text><text fill="#333333" font-family="Helvetica" font-size="13" font-weight="700" lengthAdjust="spacing" textLength="138.8359" x="159.582" y="105.1997">502 delivery_failed</text><text fill="#333333" font-family="Helvetica" font-size="13" font-weight="700" lengthAdjust="spacing" textLength="75.8545" x="159.582" y="120.3325">31s to 71s</text><line style="stroke:#333333;stroke-width:0.5;" x1="20" x2="710" y1="130.2656" y2="130.2656"/><text fill="#333333" font-family="Helvetica" font-size="13" font-weight="700" lengthAdjust="spacing" textLength="40.5742" x="25" y="142.3325">Wake</text><line style="stroke:#333333;stroke-width:0.5;" x1="20" x2="66.5742" y1="146.3984" y2="146.3984"/><line style="stroke:#333333;stroke-width:0.5;" x1="66.5742" x2="76.5742" y1="146.3984" y2="130.2656"/><polygon fill="#FFE4B5" points="37,151.3984,493,151.3984,505,163.3984,493,175.3984,37,175.3984,25,163.3984" style="stroke:#006400;stroke-width:1.5;stroke-linejoin:miter;stroke-miterlimit:10;"/><polygon fill="#F5F5F5" points="517,151.3984,653,151.3984,665,163.3984,653,175.3984,517,175.3984,505,163.3984" style="stroke:#006400;stroke-width:1.5;stroke-linejoin:miter;stroke-miterlimit:10;"/><text fill="#333333" font-family="Helvetica" font-size="13" font-weight="700" lengthAdjust="spacing" textLength="129.8984" x="200.0508" y="167.8989">waiting for Ready</text><text fill="#333333" font-family="Helvetica" font-size="13" font-weight="700" lengthAdjust="spacing" textLength="133.8403" x="518.0798" y="160.3325">504 wake_timeout</text><text fill="#333333" font-family="Helvetica" font-size="13" font-weight="700" lengthAdjust="spacing" textLength="34.874" x="518.0798" y="175.4653">120s</text><line style="stroke:#333333;stroke-width:2;" x1="25" x2="25" y1="185.3984" y2="190.3984"/><line style="stroke:#333333;stroke-width:2;" x1="65" x2="65" y1="185.3984" y2="190.3984"/><line style="stroke:#333333;stroke-width:2;" x1="105" x2="105" y1="185.3984" y2="190.3984"/><line style="stroke:#333333;stroke-width:2;" x1="145" x2="145" y1="185.3984" y2="190.3984"/><line style="stroke:#333333;stroke-width:2;" x1="185" x2="185" y1="185.3984" y2="190.3984"/><line style="stroke:#333333;stroke-width:2;" x1="225" x2="225" y1="185.3984" y2="190.3984"/><line style="stroke:#333333;stroke-width:2;" x1="265" x2="265" y1="185.3984" y2="190.3984"/><line style="stroke:#333333;stroke-width:2;" x1="305" x2="305" y1="185.3984" y2="190.3984"/><line style="stroke:#333333;stroke-width:2;" x1="345" x2="345" y1="185.3984" y2="190.3984"/><line style="stroke:#333333;stroke-width:2;" x1="385" x2="385" y1="185.3984" y2="190.3984"/><line style="stroke:#333333;stroke-width:2;" x1="425" x2="425" y1="185.3984" y2="190.3984"/><line style="stroke:#333333;stroke-width:2;" x1="465" x2="465" y1="185.3984" y2="190.3984"/><line style="stroke:#333333;stroke-width:2;" x1="505" x2="505" y1="185.3984" y2="190.3984"/><line style="stroke:#333333;stroke-width:2;" x1="545" x2="545" y1="185.3984" y2="190.3984"/><line style="stroke:#333333;stroke-width:2;" x1="585" x2="585" y1="185.3984" y2="190.3984"/><line style="stroke:#333333;stroke-width:2;" x1="625" x2="625" y1="185.3984" y2="190.3984"/><line style="stroke:#333333;stroke-width:2;" x1="665" x2="665" y1="185.3984" y2="190.3984"/><line style="stroke:#333333;stroke-width:2;" x1="705" x2="705" y1="185.3984" y2="190.3984"/><line style="stroke:#333333;stroke-width:2;" x1="25" x2="705" y1="185.3984" y2="185.3984"/><text fill="#333333" font-family="Helvetica" font-size="13" lengthAdjust="spacing" textLength="8.271" x="20.8645" y="203.4653">0</text><text fill="#333333" font-family="Helvetica" font-size="13" lengthAdjust="spacing" textLength="16.542" x="56.729" y="203.4653">10</text><text fill="#333333" font-family="Helvetica" font-size="13" lengthAdjust="spacing" textLength="16.542" x="96.729" y="203.4653">20</text><text fill="#333333" font-family="Helvetica" font-size="13" lengthAdjust="spacing" textLength="16.542" x="136.729" y="203.4653">30</text><text fill="#333333" font-family="Helvetica" font-size="13" lengthAdjust="spacing" textLength="16.542" x="176.729" y="203.4653">40</text><text fill="#333333" font-family="Helvetica" font-size="13" lengthAdjust="spacing" textLength="16.542" x="216.729" y="203.4653">50</text><text fill="#333333" font-family="Helvetica" font-size="13" lengthAdjust="spacing" textLength="16.542" x="256.729" y="203.4653">60</text><text fill="#333333" font-family="Helvetica" font-size="13" lengthAdjust="spacing" textLength="16.542" x="296.729" y="203.4653">70</text><text fill="#333333" font-family="Helvetica" font-size="13" lengthAdjust="spacing" textLength="16.542" x="336.729" y="203.4653">80</text><text fill="#333333" font-family="Helvetica" font-size="13" lengthAdjust="spacing" textLength="16.542" x="376.729" y="203.4653">90</text><text fill="#333333" font-family="Helvetica" font-size="13" lengthAdjust="spacing" textLength="24.813" x="412.5935" y="203.4653">100</text><text fill="#333333" font-family="Helvetica" font-size="13" lengthAdjust="spacing" textLength="24.813" x="452.5935" y="203.4653">110</text><text fill="#333333" font-family="Helvetica" font-size="13" lengthAdjust="spacing" textLength="24.813" x="492.5935" y="203.4653">120</text><text fill="#333333" font-family="Helvetica" font-size="13" lengthAdjust="spacing" textLength="24.813" x="532.5935" y="203.4653">130</text><text fill="#333333" font-family="Helvetica" font-size="13" lengthAdjust="spacing" textLength="24.813" x="572.5935" y="203.4653">140</text><text fill="#333333" font-family="Helvetica" font-size="13" lengthAdjust="spacing" textLength="24.813" x="612.5935" y="203.4653">150</text><text fill="#333333" font-family="Helvetica" font-size="13" lengthAdjust="spacing" textLength="24.813" x="652.5935" y="203.4653">160</text><text fill="#333333" font-family="Helvetica" font-size="13" lengthAdjust="spacing" textLength="24.813" x="692.5935" y="203.4653">170</text><?plantuml-src PP9FRzGm4CNl_XJ3ScYxWjra_rKL5vPkUW5ne9Kg9AJLh3r9h7Nio9wGHeZlZfqjRIdApVFU_DwpSmPtjIS2QPmy1YYzQy1P0kTrfIsSQtjmdLNGqw5sxWWe9RMCLjB5Er0UUmli84WqD1Ddy8qKw01zZGobzXGWcic3eX8xm-43L9w69Eci9vGr7WozqgGzTpK1UirrGwmbO4p0yUZHeetc0NZqegTnr7eNOcmRpSh9C0zUpYjawd48Sspr7CDWvViOgNKsK9Wr2iwJCRZEo-WiWNt7zSLClD5McauHx0CFiLVRDKQC5I7F00EiCcZr0vaWX7HMwWYUtCRjiG8georDakhs-zVhv_cs8ijHOFHFyiCes1LVdkVtU3pPxhUV2o4-ZkuitTGalaDfT5Np1DvUPKLnbOdbQJAThhCLf6Bxl-WzFKWYHMew_M6NMOYUcvlhtMuXyire-bLhfSZ-ZemKuBHe1SXCJSj9NsoApSrMBFCdnk8f-Bv4RHwNvo6z_MK-CjRf4vVvFuZ_aMEx4xD7pTfMK3eV_njKmnYrM7rQYtpnibyVhsRFkY7NSGB7wGlaAyOV?></g></svg>