<svg xmlns="http://www.w3.org/2000/svg" xmlns:xlink="http://www.w3.org/1999/xlink" contentStyleType="text/css" data-diagram-type="DESCRIPTION" height="755px" preserveAspectRatio="none" style="width:1504px;height:755px;" version="1.1" viewBox="0 0 1504 755" width="1504px" zoomAndPan="magnify"><?plantuml 1.2026.6?><defs/><g><!--cluster users--><g class="cluster" data-qualified-name="users" data-source-line="25" id="ent0003"><rect fill="none" height="297" rx="2.5" ry="2.5" style="stroke:#181818;stroke-width:1;" width="258" x="442" y="92.0942"/><text fill="#2A0A4A" font-family="Helvetica" font-size="12" font-weight="700" lengthAdjust="spacing" textLength="118.6289" x="511.6855" y="105.2329">User namespaces</text></g><!--cluster ctrl--><g class="cluster" data-qualified-name="ctrl" data-source-line="36" id="ent0009"><rect fill="none" height="228" rx="2.5" ry="2.5" style="stroke:#181818;stroke-width:1;" width="261" x="441" y="429.0942"/><text fill="#2A0A4A" font-family="Helvetica" font-size="12" font-weight="700" lengthAdjust="spacing" textLength="245.2148" x="448.8926" y="442.2329">Agentry Controller &#183; agentry-system</text></g><!--entity agentC--><g class="entity" data-qualified-name="users.agentC" data-source-line="26" id="ent0004"><rect fill="#E6E6FA" height="47.9375" rx="2.5" ry="2.5" style="stroke:#4A148C;stroke-width:2;" width="137.8672" x="502" y="132.0942"/><text fill="#2A0A4A" font-family="Helvetica" font-size="12" font-weight="700" lengthAdjust="spacing" textLength="70.1016" x="512" y="153.2329">Agent Pod</text><text fill="#2A0A4A" font-family="Helvetica" font-size="12" lengthAdjust="spacing" textLength="117.8672" x="512" y="167.2017">(Agentry-managed)</text></g><!--entity agentTaskC--><g class="entity" data-qualified-name="users.agentTaskC" data-source-line="27" id="ent0005"><rect fill="#E6E6FA" height="47.9375" rx="2.5" ry="2.5" style="stroke:#4A148C;stroke-width:2;" width="210.1777" x="466" y="215.0942"/><text fill="#2A0A4A" font-family="Helvetica" font-size="12" font-weight="700" lengthAdjust="spacing" textLength="101.5078" x="476" y="236.2329">AgentTask Pod</text><text fill="#2A0A4A" font-family="Helvetica" font-size="12" lengthAdjust="spacing" textLength="190.1777" x="476" y="250.2017">(Agentry-managed, ephemeral)</text></g><!--entity workloadC--><g class="entity" data-qualified-name="users.workloadC" data-source-line="28" id="ent0006"><rect fill="#E6E6FA" height="47.9375" rx="2.5" ry="2.5" style="stroke:#4A148C;stroke-width:2;" width="143.041" x="499.5" y="298.0942"/><text fill="#2A0A4A" font-family="Helvetica" font-size="12" font-weight="700" lengthAdjust="spacing" textLength="94.2305" x="509.5" y="319.2329">Workload Pod</text><text fill="#2A0A4A" font-family="Helvetica" font-size="12" lengthAdjust="spacing" textLength="123.041" x="509.5" y="333.2017">(gateway-only, BYO)</text></g><!--entity recs--><g class="entity" data-qualified-name="ctrl.recs" data-source-line="37" id="ent0010"><rect fill="#87CEEB" height="75.875" rx="2.5" ry="2.5" style="stroke:#0D47A1;stroke-width:2;" width="187.707" x="477" y="469.0942"/><text fill="#0A2540" font-family="Helvetica" font-size="12" font-weight="700" lengthAdjust="spacing" textLength="77.8184" x="487" y="490.2329">Reconcilers</text><text fill="#0A2540" font-family="Helvetica" font-size="12" lengthAdjust="spacing" textLength="113.6309" x="487" y="504.2017">Agent &#8226; AgentTask</text><text fill="#0A2540" font-family="Helvetica" font-size="12" lengthAdjust="spacing" textLength="167.707" x="487" y="518.1704">ModelProvider &#8226; AgentClass</text><text fill="#0A2540" font-family="Helvetica" font-size="12" lengthAdjust="spacing" textLength="84.7852" x="487" y="532.1392">AgentChannel</text></g><!--entity activator--><g class="entity" data-qualified-name="ctrl.activator" data-source-line="38" id="ent0011"><rect fill="#87CEEB" height="33.9688" rx="2.5" ry="2.5" style="stroke:#0D47A1;stroke-width:2;" width="82.0684" x="530" y="580.0942"/><text fill="#0A2540" font-family="Helvetica" font-size="12" font-weight="700" lengthAdjust="spacing" textLength="62.0684" x="540" y="601.2329">Activator</text></g><!--entity webhooks--><g class="entity" data-qualified-name="webhooks" data-source-line="19" id="ent0001"><rect fill="#FFE4B5" height="47.9375" rx="2.5" ry="2.5" style="stroke:#8B4513;stroke-width:2;" width="166.1563" x="488" y="11.0942"/><text fill="#3A1F00" font-family="Helvetica" font-size="12" lengthAdjust="spacing" textLength="100.8867" x="498" y="32.2329">Webhook Callers</text><text fill="#3A1F00" font-family="Helvetica" font-size="12" lengthAdjust="spacing" textLength="146.1563" x="498" y="46.2017">(external systems, bots)</text></g><!--entity gw--><g class="entity" data-qualified-name="gw" data-source-line="22" id="ent0002"><rect fill="#90EE90" height="47.9375" rx="2.5" ry="2.5" style="stroke:#1B5E20;stroke-width:2;" width="166.8477" x="982" y="267.0942"/><text fill="#0B3D0B" font-family="Helvetica" font-size="12" font-weight="700" lengthAdjust="spacing" textLength="146.8477" x="992" y="288.2329">Agentry Gateway Pod</text><text fill="#0B3D0B" font-family="Helvetica" font-size="12" lengthAdjust="spacing" textLength="94.4121" x="992" y="302.2017">agentry-system</text></g><!--entity providers--><g class="entity" data-qualified-name="providers" data-source-line="32" id="ent0007"><rect fill="#FFE4B5" height="47.9375" rx="2.5" ry="2.5" style="stroke:#8B4513;stroke-width:2;" width="157.8125" x="1318.5" y="225.0942"/><text fill="#3A1F00" font-family="Helvetica" font-size="12" lengthAdjust="spacing" textLength="106.4707" x="1328.5" y="246.2329">LLM Provider APIs</text><text fill="#3A1F00" font-family="Helvetica" font-size="12" lengthAdjust="spacing" textLength="137.8125" x="1328.5" y="260.2017">(Anthropic, OpenAI, ...)</text></g><!--entity callbacks--><g class="entity" data-qualified-name="callbacks" data-source-line="33" id="ent0008"><rect fill="#FFE4B5" height="47.9375" rx="2.5" ry="2.5" style="stroke:#8B4513;stroke-width:2;" width="186.9746" x="1304" y="308.0942"/><text fill="#3A1F00" font-family="Helvetica" font-size="12" lengthAdjust="spacing" textLength="84.791" x="1314" y="329.2329">Callback URLs</text><text fill="#3A1F00" font-family="Helvetica" font-size="12" lengthAdjust="spacing" textLength="166.9746" x="1314" y="343.2017">(async webhook responses)</text></g><!--entity apiserver--><g class="entity" data-qualified-name="apiserver" data-source-line="40" id="ent0012"><path d="M6,503.5942 C6,493.5942 61.7676,493.5942 61.7676,493.5942 C61.7676,493.5942 117.5352,493.5942 117.5352,503.5942 L117.5352,526.563 C117.5352,536.563 61.7676,536.563 61.7676,536.563 C61.7676,536.563 6,536.563 6,526.563 L6,503.5942" fill="#FFD580" style="stroke:#7A3F00;stroke-width:0.5;"/><path d="M6,503.5942 C6,513.5942 61.7676,513.5942 61.7676,513.5942 C61.7676,513.5942 117.5352,513.5942 117.5352,503.5942" fill="none" style="stroke:#7A3F00;stroke-width:0.5;"/><text fill="#3A1F00" font-family="Helvetica" font-size="12" lengthAdjust="spacing" textLength="91.5352" x="16" y="528.7329">Kubernetes API</text></g><!--link webhooks to gw--><g class="link" data-entity-1="ent0001" data-entity-2="ent0002" data-link-type="dependency" data-source-line="43" id="lnk13"><path d="M654.06,22.9542 C736.57,15.2342 863.85,16.0342 952,76.0942 C1019.19,121.8742 1047.8846,215.9625 1058.4946,261.8925" fill="none" id="webhooks-to-gw" style="stroke:#1B5E20;stroke-width:2;"/><polygon fill="#1B5E20" points="1059.62,266.7642,1061.4917,257.0949,1058.4946,261.8925,1053.6969,258.8955,1059.62,266.7642" style="stroke:#1B5E20;stroke-width:2;stroke-linejoin:miter;stroke-miterlimit:10;"/><text fill="#000000" font-family="Helvetica" font-size="11" lengthAdjust="spacing" textLength="88.4458" x="795" y="17.3047">inbound (:8080)</text></g><!--link gw to agentC--><g class="link" data-entity-1="ent0002" data-entity-2="ent0004" data-link-type="dependency" data-source-line="44" id="lnk14"><path d="M1054.89,267.0942 C1039.31,231.8742 1004.84,167.5142 952,141.0942 C852.64,91.4142 724.5841,112.2369 645.1441,133.2269" fill="none" id="gw-to-agentC" style="stroke:#1B5E20;stroke-width:2;"/><polygon fill="#1B5E20" points="640.31,134.5042,650.0332,136.0724,645.1441,133.2269,647.9896,128.3378,640.31,134.5042" style="stroke:#1B5E20;stroke-width:2;stroke-linejoin:miter;stroke-miterlimit:10;"/><text fill="#000000" font-family="Helvetica" font-size="11" lengthAdjust="spacing" textLength="80.2871" x="799.2793" y="95.3047">deliver (mTLS)</text><text fill="#000000" font-family="Helvetica" font-size="11" lengthAdjust="spacing" textLength="102.8457" x="788" y="108.1094">POST /v1/message</text></g><!--link agentC to gw--><g class="link" data-entity-1="ent0004" data-entity-2="ent0002" data-link-type="dependency" data-source-line="46" id="lnk16"><path d="M640.04,158.2342 C733.85,162.0042 897.51,171.7742 952,195.0942 C989.3,211.0542 1020.0527,240.179 1040.7027,262.969" fill="none" id="agentC-to-gw" style="stroke:#1B5E20;stroke-width:2;"/><polygon fill="#1B5E20" points="1044.06,266.6742,1040.981,257.319,1040.7027,262.969,1035.0527,262.6907,1044.06,266.6742" style="stroke:#1B5E20;stroke-width:2;stroke-linejoin:miter;stroke-miterlimit:10;"/><text fill="#000000" font-family="Helvetica" font-size="11" lengthAdjust="spacing" textLength="103.0659" x="787.5" y="160.3047">LLM (mTLS, :8443)</text></g><!--link agentC to gw--><g class="link" data-entity-1="ent0004" data-entity-2="ent0002" data-link-type="dependency" data-source-line="59" id="lnk25"><path d="M640.21,162.9442 C666.92,168.5642 696.3,178.7242 718,197.0942 C724.37,202.4942 719.31,209.0942 726,214.0942 C807.39,274.9842 853.66,223.4142 952,249.0942 C970.15,253.8342 984.7727,258.6671 1002.1627,265.2371" fill="none" id="agentC-to-gw-1" style="stroke:#4A148C;stroke-width:1;stroke-dasharray:7,7;"/><polygon fill="#4A148C" points="1006.84,267.0042,999.8345,260.0816,1002.1627,265.2371,997.0071,267.5653,1006.84,267.0042" style="stroke:#4A148C;stroke-width:1;stroke-linejoin:miter;stroke-miterlimit:10;"/><text fill="#000000" font-family="Helvetica" font-size="11" lengthAdjust="spacing" textLength="224.3291" x="727" y="211.3047">POST /v1/agent/heartbeat (mTLS, :8443)</text></g><!--link gw to callbacks--><g class="link" data-entity-1="ent0002" data-entity-2="ent0008" data-link-type="dependency" data-source-line="45" id="lnk15"><path d="M1149.09,313.4842 C1159.11,315.6542 1169.25,317.6042 1179,319.0942 C1219.66,325.3142 1260.0349,328.3837 1298.7649,330.0937" fill="none" id="gw-to-callbacks" style="stroke:#1B5E20;stroke-width:2;"/><polygon fill="#1B5E20" points="1303.76,330.3142,1294.9452,325.9212,1298.7649,330.0937,1294.5923,333.9134,1303.76,330.3142" style="stroke:#1B5E20;stroke-width:2;stroke-linejoin:miter;stroke-miterlimit:10;"/><text fill="#000000" font-family="Helvetica" font-size="11" lengthAdjust="spacing" textLength="92.4473" x="1180.3572" y="303.3047">callback (HTTPS)</text><text fill="#000000" font-family="Helvetica" font-size="11" lengthAdjust="spacing" textLength="93.1616" x="1180" y="316.1094">POST callbackUrl</text></g><!--link agentTaskC to gw--><g class="link" data-entity-1="ent0005" data-entity-2="ent0002" data-link-type="dependency" data-source-line="47" id="lnk17"><path d="M676.14,259.6242 C692.77,262.4342 709.82,265.0542 726,267.0942 C812.95,278.0542 908.146,284.1285 976.836,287.5085" fill="none" id="agentTaskC-to-gw" style="stroke:#1B5E20;stroke-width:2;"/><polygon fill="#1B5E20" points="981.83,287.7542,973.0375,283.3167,976.836,287.5085,972.6443,291.3071,981.83,287.7542" style="stroke:#1B5E20;stroke-width:2;stroke-linejoin:miter;stroke-miterlimit:10;"/><text fill="#000000" font-family="Helvetica" font-size="11" lengthAdjust="spacing" textLength="103.0659" x="787.5" y="264.3047">LLM (mTLS, :8443)</text></g><!--link agentTaskC to gw--><g class="link" data-entity-1="ent0005" data-entity-2="ent0002" data-link-type="dependency" data-source-line="60" id="lnk26"><path d="M676.25,253.9742 C691.75,260.0242 706.39,268.4342 718,280.0942 C727.43,289.5742 715.36,300.9942 726,309.0942 C806.88,370.6842 928.0344,342.6166 1001.3344,316.7766" fill="none" id="agentTaskC-to-gw-1" style="stroke:#4A148C;stroke-width:1;stroke-dasharray:7,7;"/><polygon fill="#4A148C" points="1006.05,315.1142,996.2321,314.334,1001.3344,316.7766,998.8919,321.8789,1006.05,315.1142" style="stroke:#4A148C;stroke-width:1;stroke-linejoin:miter;stroke-miterlimit:10;"/><text fill="#000000" font-family="Helvetica" font-size="11" lengthAdjust="spacing" textLength="212.9692" x="733" y="306.3047">POST /v1/task/complete (mTLS, :8443)</text></g><!--link workloadC to gw--><g class="link" data-entity-1="ent0006" data-entity-2="ent0002" data-link-type="dependency" data-source-line="48" id="lnk18"><path d="M642.55,320.9742 C668.98,324.0242 697.53,331.9442 718,350.0942 C726.73,357.8342 716.58,368.2142 726,375.0942 C807.13,434.3142 856.68,406.7542 952,375.0942 C987.39,363.3442 1017.0686,339.113 1038.1186,318.723" fill="none" id="workloadC-to-gw" style="stroke:#1B5E20;stroke-width:2;"/><polygon fill="#1B5E20" points="1041.71,315.2442,1032.4625,318.6329,1038.1186,318.723,1038.0285,324.3792,1041.71,315.2442" style="stroke:#1B5E20;stroke-width:2;stroke-linejoin:miter;stroke-miterlimit:10;"/><text fill="#000000" font-family="Helvetica" font-size="11" lengthAdjust="spacing" textLength="127.3916" x="775.5" y="372.3047">LLM (SA Bearer, :8443)</text></g><!--link gw to providers--><g class="link" data-entity-1="ent0002" data-entity-2="ent0007" data-link-type="dependency" data-source-line="49" id="lnk19"><path d="M1149.35,280.5542 C1201.18,273.9542 1262.58,266.1457 1313.48,259.6657" fill="none" id="gw-to-providers" style="stroke:#1B5E20;stroke-width:2;"/><polygon fill="#1B5E20" points="1318.44,259.0342,1309.0069,256.2029,1313.48,259.6657,1310.0172,264.1388,1318.44,259.0342" style="stroke:#1B5E20;stroke-width:2;stroke-linejoin:miter;stroke-miterlimit:10;"/><text fill="#000000" font-family="Helvetica" font-size="11" lengthAdjust="spacing" textLength="36.502" x="1208.5" y="263.3047">egress</text></g><!--link ctrl to apiserver--><g class="link" data-entity-1="ent0009" data-entity-2="ent0012" data-link-type="dependency" data-source-line="52" id="lnk20"><path d="M440.6706,633.3366 C440.4179,633.2879 440.1653,633.2391 439.9129,633.1902 C438.9033,632.9944 437.8962,632.7966 436.8919,632.5966 C432.8748,631.7968 428.9031,630.963 425,630.0942 C314.13,605.4242 193.2627,563.62 122.9727,537.77" fill="none" id="ctrl-to-apiserver" style="stroke:#0D47A1;stroke-width:1;"/><polygon fill="#0D47A1" points="118.28,536.0442,125.3462,542.9049,122.9727,537.77,128.1075,535.3965,118.28,536.0442" style="stroke:#0D47A1;stroke-width:1;stroke-linejoin:miter;stroke-miterlimit:10;"/><text fill="#000000" font-family="Helvetica" font-size="11" lengthAdjust="spacing" textLength="111.9658" x="227" y="545.3047">watches / reconciles</text></g><!--link apiserver to users--><g class="link" data-entity-1="ent0012" data-entity-2="ent0003" data-link-type="dependency" data-source-line="53" id="lnk21"><path d="M118.22,500.5042 C183.41,483.2742 295.1075,453.7517 391.1238,428.3742 C439.1319,415.6855 483.2197,404.033 515.6136,395.4714 C523.7121,393.331 531.0797,391.3838 537.595,389.6619 C538.0022,389.5543 533.572,390.7251 533.9725,390.6193" fill="none" id="apiserver-to-users" style="stroke:#0D47A1;stroke-width:1;"/><polygon fill="#0D47A1" points="538.8065,389.3417,529.0832,387.7741,533.9725,390.6193,531.1274,395.5086,538.8065,389.3417" style="stroke:#0D47A1;stroke-width:1;stroke-linejoin:miter;stroke-miterlimit:10;"/><text fill="#000000" font-family="Helvetica" font-size="11" lengthAdjust="spacing" textLength="204.7139" x="180.5579" y="409.3047">Pods &#8226; PVCs &#8226; Services &#8226; ConfigMaps</text><text fill="#000000" font-family="Helvetica" font-size="11" lengthAdjust="spacing" textLength="267.8296" x="149" y="422.1094">NetworkPolicies &#8226; ServiceAccounts &#8226; Certificates</text></g><!--link gw to activator--><g class="link" data-entity-1="ent0002" data-entity-2="ent0011" data-link-type="dependency" data-source-line="56" id="lnk22"><path d="M1051.45,315.2642 C1033.26,346.7142 997.33,401.2942 952,432.0942 C865.13,491.1242 793.85,420.9342 726,501.0942 C708.33,521.9642 736.29,541.7742 718,562.0942 C691.67,591.3442 650.5987,598.1503 617.2487,598.9103" fill="none" id="gw-to-activator" style="stroke:#4A148C;stroke-width:1;stroke-dasharray:7,7;"/><polygon fill="#4A148C" points="612.25,599.0242,621.3388,602.8182,617.2487,598.9103,621.1565,594.8202,612.25,599.0242" style="stroke:#4A148C;stroke-width:1;stroke-linejoin:miter;stroke-miterlimit:10;"/><text fill="#000000" font-family="Helvetica" font-size="11" lengthAdjust="spacing" textLength="179.2173" x="749.5" y="429.3047">POST /v1/activate (mTLS, :9443)</text></g><!--link ctrl to gw--><g class="link" data-entity-1="ent0009" data-entity-2="ent0002" data-link-type="dependency" data-source-line="57" id="lnk23"><path d="M702.5347,639.4764 C704.3462,638.5883 706.1306,637.651 707.884,636.6623 C711.3907,634.6849 714.7731,632.5017 718,630.0942 C725.02,624.8642 719.68,618.1542 726,612.0942 C803.96,537.4242 872.81,596.4642 952,523.0942 C1015.54,464.2342 1046.078,366.6526 1057.798,320.1526" fill="none" id="ctrl-to-gw" style="stroke:#4A148C;stroke-width:1;stroke-dasharray:7,7;"/><polygon fill="#4A148C" points="1059.02,315.3042,1052.9417,323.0537,1057.798,320.1526,1060.6991,325.0089,1059.02,315.3042" style="stroke:#4A148C;stroke-width:1;stroke-linejoin:miter;stroke-miterlimit:10;"/><text fill="#000000" font-family="Helvetica" font-size="11" lengthAdjust="spacing" textLength="168.4751" x="755" y="520.3047">GET /v1/activity (mTLS, :8443)</text></g><!--link ctrl to gw--><g class="link" data-entity-1="ent0009" data-entity-2="ent0002" data-link-type="dependency" data-source-line="58" id="lnk24"><path d="M597.9967,657.1539 C598.3185,657.2452 598.643,657.3371 598.9701,657.4294 C599.6242,657.614 600.2887,657.8005 600.9636,657.9887 C602.3132,658.3652 603.7038,658.7487 605.1342,659.1382 C607.9949,659.9171 611.0144,660.72 614.1822,661.5386 C639.5244,668.0874 674.3538,675.6417 713.2475,679.9967 C791.035,688.7067 885.08,684.6192 952,634.0942 C1055.53,555.9342 1065.1977,384.9142 1065.0977,320.3942" fill="none" id="ctrl-to-gw-1" style="stroke:#4A148C;stroke-width:1;stroke-dasharray:7,7;"/><polygon fill="#4A148C" points="1065.09,315.3942,1061.104,324.4004,1065.0977,320.3942,1069.1039,324.388,1065.09,315.3942" style="stroke:#4A148C;stroke-width:1;stroke-linejoin:miter;stroke-miterlimit:10;"/><text fill="#000000" font-family="Helvetica" font-size="11" lengthAdjust="spacing" textLength="215.7139" x="731.5" y="631.3047">GET /v1/channels/health (mTLS, :8443)</text></g><g class="legend" data-source-line="62"><rect fill="none" height="26.2969" rx="7.5" ry="7.5" style="stroke:#000000;stroke-width:1;" width="610.7354" x="443.6196" y="709.7067"/><text fill="#000000" font-family="Helvetica" font-size="14" lengthAdjust="spacing" textLength="600.7354" x="448.6196" y="727.7019">Thick green = data plane | Thin blue = lifecycle | Dashed purple = internal mTLS RPC</text></g><?plantuml-src fLRTSXet5BxVfpXZNmGeFukDOqoccG42YQTsp1ZSJ2VEXTWLx0v2sf642MqyqsVfI_I-Zz8dwT5AB6l0ZfrojUZyd_DzHte5xIdbMgv0hPIcSz0Y4KnCLrNl5Gp5GWOKn0IqNEYe1Q48L4t9e1O87j14uv_Kga9a4CMQ1deXQNKUUceMyuH8CeSn2MPJAHOyxA9VYPu8LoZ2e3aj5P5GB6C-XGbXYkOa8PsG1TDzmVL7CgVmWR8xgkE0xDSPnhzJg1_bX6qfnN8ZgkT44XCcVCee_E4161sRu-4HyKc3UFVv64IJCL5MjRDLr66__-wawHk9a26LxlIK74zy_w7hOr8tP_SUenEDtGOPJoCDOMoIYGNtiE-L2fppiN4FzAkcaXE6Py_vUPkI3ZxHSIJ43Bg4CIhLBIzapkpKL1d6GglY0H05IwkjuD1ChDNlzngTapSivhJLx3HEwiVfTtKiMFX6ewEMAyIckmRHUwBfagoWGEn1nKOgmlVJBPMsdGn4M2hTyeUkqcIdIvVccT_hdVaspNhdf7VaRwVfZuz3V-pIl55K0aSO8G83gboQy1CiXPmnGK98HAXsiisdkUKYJMU1Poe5ncuzwoeAhhhAd9YAGjlrD7xN5TDxtNlTRzjY6krwezdTBiRXSb-S4L6pnsALWIOHdLD9M2wiiVY_eJ-j-xQEFBMpgmZELcNe_7RbqENqNXpltatkQg5_X13voLrSNC90YhiO2GhjmRbXH9lhI8ea3ifmbL3UFYz3jLgrEITEzyMKoCKqt3F6S7DzOU8HjUB1cclOIfK8hgYZOE2KVv23NLmoKXYk8w194YCex_2x4DXpI1ZXT9U9-NJN3Cov-kTls4F0G4ks2_XhQkw5s6mR0mQB_t___0ioXDxoIn5IbeqX4tOPKSgPT2F2EMLf8FI_RaVpjDlhTMmx_7UDqtPzX-lawAJXxz03z-eTqKAMIXRyw_ylzNllPPV0mI-BCSAGQbmY22NhTzroDuztg6oR3WKTnS6i-2pCUjachdm-j3kjR5BvKdbhzbuBOdSr55fDl-aNFJpSrNIB1Qziok8K1lFHnR1uomTNmn7Kxkert60AjVQRRw3OohwXy64q6cG-riStadaksYC96-AbuSlGQZOQnqKljt-URRDP8K-P3DlGeVYwa9dTtlest6u1dI8FbHlQHJoXmIfWTcQy-DnxDoK4nh40IYUGCR05IwA32A5ICyYq557UHk61dRrCMcQZgfGVWr-xzcE8sh6vjimVfEWadbwI15dpaMhJdO5WSH3J1yhj842mQ6T3fOud-7P2s6Rl3BTEJQ_XUe2X2Y5H4LvGJvLkkbhzV6XNzvVgsnofCFCrnDmXpIPvbauaxTK3wtH-xtivgrYljkR_7Ql0BWrLYoXXEje7kEuUyqskHiCOIpscH3yEs2TyQ5J0f_4yOJHNjFM0xptq4PeNbnPpt54Zin80iKSv_9m-Bzso-6P47CPiGL70Ca1-murY1WF9Gc84bCNRm_CmWetp7m00?></g></svg>