<svg xmlns="http://www.w3.org/2000/svg" xmlns:xlink="http://www.w3.org/1999/xlink" contentStyleType="text/css" data-diagram-type="DESCRIPTION" height="746px" preserveAspectRatio="none" style="width:1216px;height:746px;" version="1.1" viewBox="0 0 1216 746" width="1216px" zoomAndPan="magnify"><?plantuml 1.2026.6?><defs/><g><!--cluster users--><g class="cluster" data-qualified-name="users" data-source-line="13" id="ent0003"><rect fill="none" height="290" rx="2.5" ry="2.5" style="stroke:#9E9E9E;stroke-width:1;" width="218" x="346.5" y="81"/><text fill="#2A0A4A" font-family="Helvetica" font-size="13" font-weight="700" lengthAdjust="spacing" textLength="128.5146" x="391.2427" y="95.0669">User namespaces</text></g><!--cluster ctrl--><g class="cluster" data-qualified-name="ctrl" data-source-line="24" id="ent0009"><rect fill="none" height="242" rx="2.5" ry="2.5" style="stroke:#9E9E9E;stroke-width:1;" width="241" x="335" y="411"/><text fill="#2A0A4A" font-family="Helvetica" font-size="13" font-weight="700" lengthAdjust="spacing" textLength="136.4873" x="387.2563" y="425.0669">Agentry Controller</text><text fill="#2A0A4A" font-family="Helvetica" font-size="13" font-weight="700" lengthAdjust="spacing" textLength="115.1719" x="397.9141" y="440.1997">agentry-system</text></g><!--entity agentC--><g class="entity" data-qualified-name="users.agentC" data-source-line="14" id="ent0004"><rect fill="#E6E6FA" height="50.2656" rx="2.5" ry="2.5" style="stroke:#4A148C;stroke-width:2;" width="147.6895" x="381.5" y="123"/><text fill="#2A0A4A" font-family="Helvetica" font-size="13" font-weight="700" lengthAdjust="spacing" textLength="43.6528" x="391.5" y="145.0669">Agent</text><text fill="#2A0A4A" font-family="Helvetica" font-size="13" font-weight="700" lengthAdjust="spacing" textLength="4.5259" x="435.1528" y="145.0669">&#160;</text><text fill="#2A0A4A" font-family="Helvetica" font-size="13" font-weight="700" lengthAdjust="spacing" textLength="27.7646" x="439.6787" y="145.0669">Pod</text><text fill="#2A0A4A" font-family="Helvetica" font-size="13" lengthAdjust="spacing" textLength="127.6895" x="391.5" y="160.1997">(Agentry-managed)</text></g><!--entity agentTaskC--><g class="entity" data-qualified-name="users.agentTaskC" data-source-line="15" id="ent0005"><rect fill="#E6E6FA" height="50.2656" rx="2.5" ry="2.5" style="stroke:#4A148C;stroke-width:2;" width="169.8174" x="370.5" y="203"/><text fill="#2A0A4A" font-family="Helvetica" font-size="13" font-weight="700" lengthAdjust="spacing" textLength="77.6763" x="380.5" y="225.0669">AgentTask</text><text fill="#2A0A4A" font-family="Helvetica" font-size="13" font-weight="700" lengthAdjust="spacing" textLength="4.5259" x="458.1763" y="225.0669">&#160;</text><text fill="#2A0A4A" font-family="Helvetica" font-size="13" font-weight="700" lengthAdjust="spacing" textLength="27.7646" x="462.7021" y="225.0669">Pod</text><text fill="#2A0A4A" font-family="Helvetica" font-size="13" lengthAdjust="spacing" textLength="70.5415" x="380.5" y="240.1997">(managed,</text><text fill="#2A0A4A" font-family="Helvetica" font-size="13" lengthAdjust="spacing" textLength="4.1323" x="451.0415" y="240.1997">&#160;</text><text fill="#2A0A4A" font-family="Helvetica" font-size="13" lengthAdjust="spacing" textLength="75.1436" x="455.1738" y="240.1997">ephemeral)</text></g><!--entity workloadC--><g class="entity" data-qualified-name="users.workloadC" data-source-line="16" id="ent0006"><rect fill="#E6E6FA" height="50.2656" rx="2.5" ry="2.5" style="stroke:#4A148C;stroke-width:2;" width="153.2944" x="379" y="283"/><text fill="#2A0A4A" font-family="Helvetica" font-size="13" font-weight="700" lengthAdjust="spacing" textLength="69.7925" x="389" y="305.0669">Workload</text><text fill="#2A0A4A" font-family="Helvetica" font-size="13" font-weight="700" lengthAdjust="spacing" textLength="4.5259" x="458.7925" y="305.0669">&#160;</text><text fill="#2A0A4A" font-family="Helvetica" font-size="13" font-weight="700" lengthAdjust="spacing" textLength="27.7646" x="463.3184" y="305.0669">Pod</text><text fill="#2A0A4A" font-family="Helvetica" font-size="13" lengthAdjust="spacing" textLength="96.9985" x="389" y="320.1997">(gateway-only,</text><text fill="#2A0A4A" font-family="Helvetica" font-size="13" lengthAdjust="spacing" textLength="4.1323" x="485.9985" y="320.1997">&#160;</text><text fill="#2A0A4A" font-family="Helvetica" font-size="13" lengthAdjust="spacing" textLength="32.1636" x="490.1309" y="320.1997">BYO)</text></g><!--entity recs--><g class="entity" data-qualified-name="ctrl.recs" data-source-line="25" id="ent0010"><rect fill="#87CEEB" height="80.5313" rx="2.5" ry="2.5" style="stroke:#0D47A1;stroke-width:2;" width="192.7959" x="359" y="468.5"/><text fill="#0A2540" font-family="Helvetica" font-size="13" font-weight="700" lengthAdjust="spacing" textLength="84.3032" x="369" y="490.5669">Reconcilers</text><text fill="#0A2540" font-family="Helvetica" font-size="13" lengthAdjust="spacing" textLength="42.6118" x="369" y="505.6997">Agent,</text><text fill="#0A2540" font-family="Helvetica" font-size="13" lengthAdjust="spacing" textLength="4.1323" x="411.6118" y="505.6997">&#160;</text><text fill="#0A2540" font-family="Helvetica" font-size="13" lengthAdjust="spacing" textLength="72.8203" x="415.7441" y="505.6997">AgentTask,</text><text fill="#0A2540" font-family="Helvetica" font-size="13" lengthAdjust="spacing" textLength="97.2017" x="369" y="520.8325">ModelProvider,</text><text fill="#0A2540" font-family="Helvetica" font-size="13" lengthAdjust="spacing" textLength="76.813" x="369" y="535.9653">AgentClass,</text><text fill="#0A2540" font-family="Helvetica" font-size="13" lengthAdjust="spacing" textLength="4.1323" x="445.813" y="535.9653">&#160;</text><text fill="#0A2540" font-family="Helvetica" font-size="13" lengthAdjust="spacing" textLength="91.8506" x="449.9453" y="535.9653">AgentChannel</text></g><!--entity activator--><g class="entity" data-qualified-name="ctrl.activator" data-source-line="26" id="ent0011"><rect fill="#87CEEB" height="35.1328" rx="2.5" ry="2.5" style="stroke:#0D47A1;stroke-width:2;" width="87.2407" x="412" y="579.5"/><text fill="#0A2540" font-family="Helvetica" font-size="13" font-weight="700" lengthAdjust="spacing" textLength="67.2407" x="422" y="601.5669">Activator</text></g><!--entity webhooks--><g class="entity" data-qualified-name="webhooks" data-source-line="7" id="ent0001"><rect fill="#FFE4B5" height="50.2656" rx="2.5" ry="2.5" style="stroke:#8B4513;stroke-width:2;" width="129.2939" x="391" y="7"/><text fill="#3A1F00" font-family="Helvetica" font-size="13" lengthAdjust="spacing" textLength="60.7788" x="401" y="29.0669">Webhook</text><text fill="#3A1F00" font-family="Helvetica" font-size="13" lengthAdjust="spacing" textLength="4.1323" x="461.7788" y="29.0669">&#160;</text><text fill="#3A1F00" font-family="Helvetica" font-size="13" lengthAdjust="spacing" textLength="44.3828" x="465.9111" y="29.0669">Callers</text><text fill="#3A1F00" font-family="Helvetica" font-size="13" lengthAdjust="spacing" textLength="64.0923" x="401" y="44.1997">(external)</text></g><!--entity gw--><g class="entity" data-qualified-name="gw" data-source-line="10" id="ent0002"><rect fill="#90EE90" height="65.3984" rx="2.5" ry="2.5" style="stroke:#1B5E20;stroke-width:2;" width="179.085" x="735" y="236.5"/><text fill="#0B3D0B" font-family="Helvetica" font-size="13" font-weight="700" lengthAdjust="spacing" textLength="58.5381" x="745" y="258.5669">Agentry</text><text fill="#0B3D0B" font-family="Helvetica" font-size="13" font-weight="700" lengthAdjust="spacing" textLength="4.5259" x="803.5381" y="258.5669">&#160;</text><text fill="#0B3D0B" font-family="Helvetica" font-size="13" font-weight="700" lengthAdjust="spacing" textLength="63.7305" x="808.064" y="258.5669">Gateway</text><text fill="#0B3D0B" font-family="Helvetica" font-size="13" font-weight="700" lengthAdjust="spacing" textLength="4.5259" x="871.7944" y="258.5669">&#160;</text><text fill="#0B3D0B" font-family="Helvetica" font-size="13" font-weight="700" lengthAdjust="spacing" textLength="27.7646" x="876.3203" y="258.5669">Pod</text><text fill="#0B3D0B" font-family="Helvetica" font-size="13" lengthAdjust="spacing" textLength="102.2798" x="745" y="273.6997">agentry-system</text><text fill="#0B3D0B" font-family="Helvetica" font-size="13" lengthAdjust="spacing" textLength="37.4639" x="745" y="288.8325">:8080</text><text fill="#0B3D0B" font-family="Helvetica" font-size="13" lengthAdjust="spacing" textLength="4.1323" x="782.4639" y="288.8325">&#160;</text><text fill="#0B3D0B" font-family="Helvetica" font-size="13" lengthAdjust="spacing" textLength="28.355" x="786.5962" y="288.8325">user</text><text fill="#0B3D0B" font-family="Helvetica" font-size="13" lengthAdjust="spacing" textLength="4.1323" x="814.9512" y="288.8325">&#160;</text><text fill="#0B3D0B" font-family="Helvetica" font-size="13" lengthAdjust="spacing" textLength="4.1323" x="819.0835" y="288.8325">&#183;</text><text fill="#0B3D0B" font-family="Helvetica" font-size="13" lengthAdjust="spacing" textLength="4.1323" x="823.2158" y="288.8325">&#160;</text><text fill="#0B3D0B" font-family="Helvetica" font-size="13" lengthAdjust="spacing" textLength="37.4639" x="827.3481" y="288.8325">:8443</text><text fill="#0B3D0B" font-family="Helvetica" font-size="13" lengthAdjust="spacing" textLength="4.1323" x="864.812" y="288.8325">&#160;</text><text fill="#0B3D0B" font-family="Helvetica" font-size="13" lengthAdjust="spacing" textLength="25.7017" x="868.9443" y="288.8325">LLM</text></g><!--entity providers--><g class="entity" data-qualified-name="providers" data-source-line="20" id="ent0007"><rect fill="#FFE4B5" height="50.2656" rx="2.5" ry="2.5" style="stroke:#8B4513;stroke-width:2;" width="148.6353" x="1054" y="204"/><text fill="#3A1F00" font-family="Helvetica" font-size="13" lengthAdjust="spacing" textLength="25.7017" x="1064" y="226.0669">LLM</text><text fill="#3A1F00" font-family="Helvetica" font-size="13" lengthAdjust="spacing" textLength="4.1323" x="1089.7017" y="226.0669">&#160;</text><text fill="#3A1F00" font-family="Helvetica" font-size="13" lengthAdjust="spacing" textLength="54.0376" x="1093.834" y="226.0669">Provider</text><text fill="#3A1F00" font-family="Helvetica" font-size="13" lengthAdjust="spacing" textLength="4.1323" x="1147.8716" y="226.0669">&#160;</text><text fill="#3A1F00" font-family="Helvetica" font-size="13" lengthAdjust="spacing" textLength="27.3394" x="1152.0039" y="226.0669">APIs</text><text fill="#3A1F00" font-family="Helvetica" font-size="13" lengthAdjust="spacing" textLength="71.9824" x="1064" y="241.1997">(Anthropic,</text><text fill="#3A1F00" font-family="Helvetica" font-size="13" lengthAdjust="spacing" textLength="4.1323" x="1135.9824" y="241.1997">&#160;</text><text fill="#3A1F00" font-family="Helvetica" font-size="13" lengthAdjust="spacing" textLength="52.5205" x="1140.1147" y="241.1997">OpenAI)</text></g><!--entity callbacks--><g class="entity" data-qualified-name="callbacks" data-source-line="21" id="ent0008"><rect fill="#FFE4B5" height="50.2656" rx="2.5" ry="2.5" style="stroke:#8B4513;stroke-width:2;" width="138.1997" x="1059.5" y="284"/><text fill="#3A1F00" font-family="Helvetica" font-size="13" lengthAdjust="spacing" textLength="55.1611" x="1069.5" y="306.0669">Callback</text><text fill="#3A1F00" font-family="Helvetica" font-size="13" lengthAdjust="spacing" textLength="4.1323" x="1124.6611" y="306.0669">&#160;</text><text fill="#3A1F00" font-family="Helvetica" font-size="13" lengthAdjust="spacing" textLength="32.5635" x="1128.7935" y="306.0669">URLs</text><text fill="#3A1F00" font-family="Helvetica" font-size="13" lengthAdjust="spacing" textLength="42.8911" x="1069.5" y="321.1997">(async</text><text fill="#3A1F00" font-family="Helvetica" font-size="13" lengthAdjust="spacing" textLength="4.1323" x="1112.3911" y="321.1997">&#160;</text><text fill="#3A1F00" font-family="Helvetica" font-size="13" lengthAdjust="spacing" textLength="71.1763" x="1116.5234" y="321.1997">responses)</text></g><!--entity apiserver--><g class="entity" data-qualified-name="apiserver" data-source-line="28" id="ent0012"><path d="M6,493 C6,483 65.5815,483 65.5815,483 C65.5815,483 125.1631,483 125.1631,493 L125.1631,517.1328 C125.1631,527.1328 65.5815,527.1328 65.5815,527.1328 C65.5815,527.1328 6,527.1328 6,517.1328 L6,493" fill="#FFD580" style="stroke:#7A3F00;stroke-width:0.5;"/><path d="M6,493 C6,503 65.5815,503 65.5815,503 C65.5815,503 125.1631,503 125.1631,493" fill="none" style="stroke:#7A3F00;stroke-width:0.5;"/><text fill="#3A1F00" font-family="Helvetica" font-size="13" lengthAdjust="spacing" textLength="74.4644" x="16" y="519.0669">Kubernetes</text><text fill="#3A1F00" font-family="Helvetica" font-size="13" lengthAdjust="spacing" textLength="4.1323" x="90.4644" y="519.0669">&#160;</text><text fill="#3A1F00" font-family="Helvetica" font-size="13" lengthAdjust="spacing" textLength="20.5664" x="94.5967" y="519.0669">API</text></g><!--link webhooks to gw--><g class="link" data-entity-1="ent0001" data-entity-2="ent0002" data-link-type="dependency" data-source-line="31" id="lnk13"><path d="M520.12,29.48 C575.52,30.39 655.57,39.48 712,79 C767.13,117.62 797.5598,188.203 812.1898,231.513" fill="none" id="webhooks-to-gw" style="stroke:#1B5E20;stroke-width:2;"/><polygon fill="#1B5E20" points="813.79,236.25,814.6993,226.4432,812.1898,231.513,807.1201,229.0035,813.79,236.25" style="stroke:#1B5E20;stroke-width:2;stroke-linejoin:miter;stroke-miterlimit:10;"/><text fill="#000000" font-family="Helvetica" font-size="11" lengthAdjust="spacing" textLength="44.666" x="616.5" y="34.2104">inbound</text><text fill="#000000" font-family="Helvetica" font-size="11" lengthAdjust="spacing" textLength="3.4966" x="661.166" y="34.2104">&#160;</text><text fill="#000000" font-family="Helvetica" font-size="11" lengthAdjust="spacing" textLength="31.7002" x="664.6626" y="34.2104">:8080</text></g><!--link gw to agentC--><g class="link" data-entity-1="ent0002" data-entity-2="ent0004" data-link-type="dependency" data-source-line="32" id="lnk14"><path d="M808.15,236.47 C790.32,202.98 757.44,152.71 712,131 C655.14,103.84 587.7737,110.8104 534.6337,123.4804" fill="none" id="gw-to-agentC" style="stroke:#1B5E20;stroke-width:2;"/><polygon fill="#1B5E20" points="529.77,124.64,539.4523,126.4436,534.6337,123.4804,537.5969,118.6617,529.77,124.64" style="stroke:#1B5E20;stroke-width:2;stroke-linejoin:miter;stroke-miterlimit:10;"/><text fill="#000000" font-family="Helvetica" font-size="11" lengthAdjust="spacing" textLength="37.6621" x="616" y="97.2104">deliver</text><text fill="#000000" font-family="Helvetica" font-size="11" lengthAdjust="spacing" textLength="3.4966" x="653.6621" y="97.2104">&#160;</text><text fill="#000000" font-family="Helvetica" font-size="11" lengthAdjust="spacing" textLength="39.1284" x="657.1587" y="97.2104">(mTLS)</text><text fill="#000000" font-family="Helvetica" font-size="11" lengthAdjust="spacing" textLength="70.356" x="620.9656" y="110.0151">/v1/message</text></g><!--link agentC to gw--><g class="link" data-entity-1="ent0004" data-entity-2="ent0002" data-link-type="dependency" data-source-line="34" id="lnk16"><path d="M529.69,146.74 C582.31,148.29 653.92,155.5 712,180 C742.58,192.9 768.0724,213.239 788.8724,232.969" fill="none" id="agentC-to-gw" style="stroke:#1B5E20;stroke-width:2;"/><polygon fill="#1B5E20" points="792.5,236.41,788.7231,227.3141,788.8724,232.969,783.2175,233.1183,792.5,236.41" style="stroke:#1B5E20;stroke-width:2;stroke-linejoin:miter;stroke-miterlimit:10;"/><text fill="#000000" font-family="Helvetica" font-size="11" lengthAdjust="spacing" textLength="21.7476" x="624" y="150.2104">LLM</text><text fill="#000000" font-family="Helvetica" font-size="11" lengthAdjust="spacing" textLength="3.4966" x="645.7476" y="150.2104">&#160;</text><text fill="#000000" font-family="Helvetica" font-size="11" lengthAdjust="spacing" textLength="39.1284" x="649.2441" y="150.2104">(mTLS)</text></g><!--link agentC to gw--><g class="link" data-entity-1="ent0004" data-entity-2="ent0002" data-link-type="dependency" data-source-line="47" id="lnk25"><path d="M529.73,160.29 C551.12,166.26 573.66,175.06 592,188 C596.94,191.49 595.02,195.58 600,199 C642.48,228.18 662.82,213.62 712,229 C719.46,231.33 722.424,232.2468 730.134,234.8568" fill="none" id="agentC-to-gw-1" style="stroke:#4A148C;stroke-width:1;stroke-dasharray:7,7;"/><polygon fill="#4A148C" points="734.87,236.46,727.6278,229.7854,730.134,234.8568,725.0626,237.363,734.87,236.46" style="stroke:#4A148C;stroke-width:1;stroke-linejoin:miter;stroke-miterlimit:10;"/><text fill="#000000" font-family="Helvetica" font-size="11" lengthAdjust="spacing" textLength="110.521" x="601" y="196.2104">/v1/agent/heartbeat</text></g><!--link gw to callbacks--><g class="link" data-entity-1="ent0002" data-entity-2="ent0008" data-link-type="dependency" data-source-line="33" id="lnk15"><path d="M914.17,289.16 C921.87,290.58 929.56,291.89 937,293 C977.38,299.02 1017.9414,302.6032 1054.3814,305.0632" fill="none" id="gw-to-callbacks" style="stroke:#1B5E20;stroke-width:2;"/><polygon fill="#1B5E20" points="1059.37,305.4,1050.6599,300.8029,1054.3814,305.0632,1050.121,308.7847,1059.37,305.4" style="stroke:#1B5E20;stroke-width:2;stroke-linejoin:miter;stroke-miterlimit:10;"/><text fill="#000000" font-family="Helvetica" font-size="11" lengthAdjust="spacing" textLength="45.042" x="938" y="277.2104">callback</text><text fill="#000000" font-family="Helvetica" font-size="11" lengthAdjust="spacing" textLength="3.4966" x="983.042" y="277.2104">&#160;</text><text fill="#000000" font-family="Helvetica" font-size="11" lengthAdjust="spacing" textLength="43.9087" x="986.5386" y="277.2104">(HTTPS)</text><text fill="#000000" font-family="Helvetica" font-size="11" lengthAdjust="spacing" textLength="60.6719" x="953.8877" y="290.0151">callbackUrl</text></g><!--link agentTaskC to gw--><g class="link" data-entity-1="ent0005" data-entity-2="ent0002" data-link-type="dependency" data-source-line="35" id="lnk17"><path d="M540.69,238.88 C560.16,241.31 580.79,243.81 600,246 C644.37,251.07 688.7951,255.6994 729.8351,259.8294" fill="none" id="agentTaskC-to-gw" style="stroke:#1B5E20;stroke-width:2;"/><polygon fill="#1B5E20" points="734.81,260.33,726.2557,255.449,729.8351,259.8294,725.4547,263.4087,734.81,260.33" style="stroke:#1B5E20;stroke-width:2;stroke-linejoin:miter;stroke-miterlimit:10;"/><text fill="#000000" font-family="Helvetica" font-size="11" lengthAdjust="spacing" textLength="21.7476" x="624" y="243.2104">LLM</text><text fill="#000000" font-family="Helvetica" font-size="11" lengthAdjust="spacing" textLength="3.4966" x="645.7476" y="243.2104">&#160;</text><text fill="#000000" font-family="Helvetica" font-size="11" lengthAdjust="spacing" textLength="39.1284" x="649.2441" y="243.2104">(mTLS)</text></g><!--link agentTaskC to gw--><g class="link" data-entity-1="ent0005" data-entity-2="ent0002" data-link-type="dependency" data-source-line="48" id="lnk26"><path d="M540.67,243.58 C558.64,249.36 576.77,257.25 592,268 C596.94,271.49 594.61,276.26 600,279 C644.36,301.59 662.27,281.23 712,279 C719.48,278.67 722.232,278.5567 730.002,278.0167" fill="none" id="agentTaskC-to-gw-1" style="stroke:#4A148C;stroke-width:1;stroke-dasharray:7,7;"/><polygon fill="#4A148C" points="734.99,277.67,725.7343,274.3036,730.002,278.0167,726.289,282.2844,734.99,277.67" style="stroke:#4A148C;stroke-width:1;stroke-linejoin:miter;stroke-miterlimit:10;"/><text fill="#000000" font-family="Helvetica" font-size="11" lengthAdjust="spacing" textLength="99.1611" x="606.5" y="276.2104">/v1/task/complete</text></g><!--link workloadC to gw--><g class="link" data-entity-1="ent0006" data-entity-2="ent0002" data-link-type="dependency" data-source-line="36" id="lnk18"><path d="M532.29,317.19 C552.39,321.48 573.61,327.78 592,337 C596.22,339.12 595.58,342.34 600,344 C646.6,361.51 664.39,358.52 712,344 C739.67,335.56 762.7628,320.7947 783.2828,304.6247" fill="none" id="workloadC-to-gw" style="stroke:#1B5E20;stroke-width:2;"/><polygon fill="#1B5E20" points="787.21,301.53,777.6653,303.9587,783.2828,304.6247,782.6168,310.2422,787.21,301.53" style="stroke:#1B5E20;stroke-width:2;stroke-linejoin:miter;stroke-miterlimit:10;"/><text fill="#000000" font-family="Helvetica" font-size="11" lengthAdjust="spacing" textLength="21.7476" x="612" y="341.2104">LLM</text><text fill="#000000" font-family="Helvetica" font-size="11" lengthAdjust="spacing" textLength="3.4966" x="633.7476" y="341.2104">&#160;</text><text fill="#000000" font-family="Helvetica" font-size="11" lengthAdjust="spacing" textLength="18.7988" x="637.2441" y="341.2104">(SA</text><text fill="#000000" font-family="Helvetica" font-size="11" lengthAdjust="spacing" textLength="3.4966" x="656.043" y="341.2104">&#160;</text><text fill="#000000" font-family="Helvetica" font-size="11" lengthAdjust="spacing" textLength="41.1587" x="659.5396" y="341.2104">Bearer)</text></g><!--link gw to providers--><g class="link" data-entity-1="ent0002" data-entity-2="ent0007" data-link-type="dependency" data-source-line="37" id="lnk19"><path d="M914.07,257.27 C958.45,251.39 1006.6134,245.0175 1048.7534,239.4275" fill="none" id="gw-to-providers" style="stroke:#1B5E20;stroke-width:2;"/><polygon fill="#1B5E20" points="1053.71,238.77,1044.2622,235.9882,1048.7534,239.4275,1045.3142,243.9188,1053.71,238.77" style="stroke:#1B5E20;stroke-width:2;stroke-linejoin:miter;stroke-miterlimit:10;"/><text fill="#000000" font-family="Helvetica" font-size="11" lengthAdjust="spacing" textLength="36.502" x="966" y="239.2104">egress</text></g><!--link ctrl to apiserver--><g class="link" data-entity-1="ent0009" data-entity-2="ent0012" data-link-type="dependency" data-source-line="40" id="lnk20"><path d="M334.8118,634.0871 C334.5781,634.034 334.3445,633.9805 334.111,633.9269 C333.6442,633.8195 333.178,633.7111 332.7125,633.6017 C331.7814,633.3829 330.8532,633.1599 329.9281,632.9327 C326.2277,632.0241 322.5775,631.0481 319,630 C236.62,605.87 152.7844,558.6905 105.5244,529.7605" fill="none" id="ctrl-to-apiserver" style="stroke:#0D47A1;stroke-width:1;"/><polygon fill="#0D47A1" points="101.26,527.15,106.8476,535.2604,105.5244,529.7605,111.0244,528.4373,101.26,527.15" style="stroke:#0D47A1;stroke-width:1;stroke-linejoin:miter;stroke-miterlimit:10;"/><text fill="#000000" font-family="Helvetica" font-size="11" lengthAdjust="spacing" textLength="45.5684" x="174" y="555.2104">watches</text><text fill="#000000" font-family="Helvetica" font-size="11" lengthAdjust="spacing" textLength="3.4966" x="219.5684" y="555.2104">&#160;</text><text fill="#000000" font-family="Helvetica" font-size="11" lengthAdjust="spacing" textLength="3.7061" x="223.0649" y="555.2104">/</text><text fill="#000000" font-family="Helvetica" font-size="11" lengthAdjust="spacing" textLength="3.4966" x="226.771" y="555.2104">&#160;</text><text fill="#000000" font-family="Helvetica" font-size="11" lengthAdjust="spacing" textLength="55.6982" x="230.2676" y="555.2104">reconciles</text></g><!--link apiserver to users--><g class="link" data-entity-1="ent0012" data-entity-2="ent0003" data-link-type="dependency" data-source-line="41" id="lnk21"><path d="M125.01,483.59 C178.36,464.065 259.0125,434.5475 327.1675,409.6038 C361.245,397.1319 392.1981,385.8034 415.0519,377.4392 C420.7653,375.3482 425.9725,373.4424 430.5958,371.7503 C431.1737,371.5388 427.0471,373.0491 427.6066,372.8443" fill="none" id="apiserver-to-users" style="stroke:#0D47A1;stroke-width:1;"/><polygon fill="#0D47A1" points="432.302,371.1258,422.4755,370.4628,427.6066,372.8443,425.2251,377.9754,432.302,371.1258" style="stroke:#0D47A1;stroke-width:1;stroke-linejoin:miter;stroke-miterlimit:10;"/><text fill="#000000" font-family="Helvetica" font-size="11" lengthAdjust="spacing" textLength="29.5732" x="171.1101" y="389.2104">Pods,</text><text fill="#000000" font-family="Helvetica" font-size="11" lengthAdjust="spacing" textLength="3.4966" x="200.6833" y="389.2104">&#160;</text><text fill="#000000" font-family="Helvetica" font-size="11" lengthAdjust="spacing" textLength="31.0664" x="204.1799" y="389.2104">PVCs,</text><text fill="#000000" font-family="Helvetica" font-size="11" lengthAdjust="spacing" textLength="3.4966" x="235.2463" y="389.2104">&#160;</text><text fill="#000000" font-family="Helvetica" font-size="11" lengthAdjust="spacing" textLength="49.8813" x="238.7429" y="389.2104">Services,</text><text fill="#000000" font-family="Helvetica" font-size="11" lengthAdjust="spacing" textLength="67.7349" x="149" y="402.0151">ConfigMaps,</text><text fill="#000000" font-family="Helvetica" font-size="11" lengthAdjust="spacing" textLength="3.4966" x="216.7349" y="402.0151">&#160;</text><text fill="#000000" font-family="Helvetica" font-size="11" lengthAdjust="spacing" textLength="90.5029" x="220.2314" y="402.0151">NetworkPolicies,</text><text fill="#000000" font-family="Helvetica" font-size="11" lengthAdjust="spacing" textLength="94.4883" x="149.4404" y="414.8198">ServiceAccounts,</text><text fill="#000000" font-family="Helvetica" font-size="11" lengthAdjust="spacing" textLength="3.4966" x="243.9287" y="414.8198">&#160;</text><text fill="#000000" font-family="Helvetica" font-size="11" lengthAdjust="spacing" textLength="62.8687" x="247.4253" y="414.8198">Certificates</text></g><!--link gw to activator--><g class="link" data-entity-1="ent0002" data-entity-2="ent0011" data-link-type="dependency" data-source-line="44" id="lnk22"><path d="M790.79,301.92 C768.81,323.8 739.03,353 712,378 C663.44,422.91 630.03,417.07 600,476 C591.08,493.5 604.82,549.13 592,564 C569.4,590.23 534.7657,597.2426 504.1757,598.5126" fill="none" id="gw-to-activator" style="stroke:#4A148C;stroke-width:1;stroke-dasharray:7,7;"/><polygon fill="#4A148C" points="499.18,598.72,508.3382,602.3432,504.1757,598.5126,508.0063,594.3501,499.18,598.72" style="stroke:#4A148C;stroke-width:1;stroke-linejoin:miter;stroke-miterlimit:10;"/><text fill="#000000" font-family="Helvetica" font-size="11" lengthAdjust="spacing" textLength="65.4092" x="606" y="375.2104">/v1/activate</text><text fill="#000000" font-family="Helvetica" font-size="11" lengthAdjust="spacing" textLength="3.4966" x="671.4092" y="375.2104">&#160;</text><text fill="#000000" font-family="Helvetica" font-size="11" lengthAdjust="spacing" textLength="31.7002" x="674.9058" y="375.2104">:9443</text></g><!--link ctrl to gw--><g class="link" data-entity-1="ent0009" data-entity-2="ent0002" data-link-type="dependency" data-source-line="45" id="lnk23"><path d="M576.3442,640.2325 C576.5509,640.129 576.7573,640.0247 576.9632,639.9196 C577.375,639.7094 577.785,639.4959 578.1932,639.2792 C579.8261,638.4123 581.4299,637.4933 583.0008,636.5195 C586.1425,634.572 589.1525,632.4056 592,630 C601.89,621.65 593.26,613.05 600,602 C635.55,543.76 671.46,551.88 712,497 C758.73,433.74 792.7398,352.5299 810.1198,306.3199" fill="none" id="ctrl-to-gw" style="stroke:#4A148C;stroke-width:1;stroke-dasharray:7,7;"/><polygon fill="#4A148C" points="811.88,301.64,804.9677,308.6558,810.1198,306.3199,812.4556,311.472,811.88,301.64" style="stroke:#4A148C;stroke-width:1;stroke-linejoin:miter;stroke-miterlimit:10;"/><text fill="#000000" font-family="Helvetica" font-size="11" lengthAdjust="spacing" textLength="61.4668" x="625.5" y="494.2104">/v1/activity</text></g><!--link ctrl to gw--><g class="link" data-entity-1="ent0009" data-entity-2="ent0002" data-link-type="dependency" data-source-line="46" id="lnk24"><path d="M491.3896,653.0714 C491.967,653.1813 492.55,653.2913 493.1387,653.4013 C495.4934,653.8412 497.9382,654.2807 500.4658,654.7149 C505.5212,655.5834 510.9082,656.4305 516.57,657.2169 C527.8937,658.7896 540.3166,660.1191 553.3838,660.8888 C605.6525,663.9675 668.23,658.09 712,623 C812.17,542.69 823.939,377.95 824.239,306.64" fill="none" id="ctrl-to-gw-1" style="stroke:#4A148C;stroke-width:1;stroke-dasharray:7,7;"/><polygon fill="#4A148C" points="824.26,301.64,820.2222,310.6231,824.239,306.64,828.2221,310.6567,824.26,301.64" style="stroke:#4A148C;stroke-width:1;stroke-linejoin:miter;stroke-miterlimit:10;"/><text fill="#000000" font-family="Helvetica" font-size="11" lengthAdjust="spacing" textLength="108.7056" x="602" y="620.2104">/v1/channels/health</text></g><g class="legend" data-source-line="50"><rect fill="none" height="42.5938" rx="7.5" ry="7.5" style="stroke:#000000;stroke-width:1;" width="427.9971" x="390.8191" y="684.9675"/><text fill="#000000" font-family="Helvetica" font-size="14" lengthAdjust="spacing" textLength="334.4209" x="395.8191" y="702.9626">Thick green = data plane | Thin blue = lifecycle</text><text fill="#000000" font-family="Helvetica" font-size="14" lengthAdjust="spacing" textLength="417.9971" x="395.8191" y="719.2595">Dashed purple = internal mTLS RPC, on :8443 unless noted</text></g><?plantuml-src fLPRRzis57xNhpXh7cfxliY9qpegLi1sd2vOiXYvh1YQOg0esX9Cam999JEs_gwzxvVjKAHinqxJfFE38P4Vp_Nx3lKQ1ZCcZ5g2Nch35c1aBhcSBTl1QxYIXQ8Cv1ICAamQGIAfxcX5ErGAodA3B-Mf5b4qpGoZfb2ilKY27p91UP4m-4ER9MVjl5ZmWBEfGVkWibbg8CaKuZCf0lJKQi6fY6KX4c1_6gO4uRZsd5zWhH0numnUVMHnAkKSHeHpflIjg5N6wg-0QBXt-nhsOaBdqSd9k3SyVCSpmQB-i7VOFIYVsx7aoJk3HwC3qfs6eG-mAjG7OjWzMKADk8MMgq4TlXrWex5jP2AJHkDMF3HrAw9-s0-Xq4p1l_z0rE_r3k3ixBpCOdRlupyAn-EZqCNV7HwEzyFj-CFu80bZ7_-DjIR8WkcSKAPz_F0Zt4irvv8aaCj4xwIn6V-MYJ8S6wI6lmA0tKIhz6e-xTQ2s5GJruxI_yWdCtupVdCoSCdq1jrUVxITp3u9IOyywkUQwFdAb_VH19QdRC5KrNrI8V-louzLlIgFCzVCbXHysOJXxnUURXxtOdzVVCSk2lCzcjZi69869ahUPGbsRZ0vjQ8O29CgcMUq2HSv4uDJ5sxkOI-MnuOxgpnx66ukpwmhefU2OlLqBeLcsZcY7lITEXn9f9Aq2aVkaZn3_jtXSuswTSWv4MnNZPjXLYfSczgMe0lKABxBx4jcfrzc9upjVcch2IiUDc_5kKmOhwhUz90H9rfxt2WbGZ1UEa7RLI7wRqVZyT0L8ZpklHrqTmHDzWzxuOu6S8xU4IDLe-6ONhs_rEwN8266n4IZsL-A63d734uAv8spMnNRT-8OmQxSK3DfHkVrPn4qMCtXrgSzDxYQDfJFhVTsk4MG-QkWd881BktY_Ep0Audnh6p_ulhigduhEdVT3iudZO37JwxP5wsUeVRpzVN47gzMRXGFl8-l16cLvPm66vFbs-3rL7WAUpM08IEAgVhZMQp56W6ReS2qxybPDcLqIRbhYQW_znejkOv-73_A4g-a5S4zCJH59dGiyHpxTR06F3ZdBeJ8JaVa--It4VvV8Ix36mF5W9gRPhDpakFohypOSamapsXMxdhWW59aW478Y2cJJJEA8rQllXJyDBG5XSl92E-oXEWKxvMdihM5R7_QSvFtS_lzXamYiBJnxmoY8xnlNKKU72ZRiq9cPlaKXZgDwqxA23TfnQQl6BIR5gbCp8ZPPDJZ1mpkuLVO8kUeq00_hV100h4qHYvmF5nRDGBoWWdu2PArJl-sMm9YNZ3Su1LPyCXnMK782uKsSI_Rhd8JfF2V8eN0_ciGqh0aGCVE_Ny0?></g></svg>