<svg xmlns="http://www.w3.org/2000/svg" xmlns:xlink="http://www.w3.org/1999/xlink" contentStyleType="text/css" data-diagram-type="DESCRIPTION" height="746px" preserveAspectRatio="none" style="width:1207px;height:746px;" version="1.1" viewBox="0 0 1207 746" width="1207px" zoomAndPan="magnify"><?plantuml 1.2026.6?><defs/><g><!--cluster users--><g class="cluster" data-qualified-name="users" data-source-line="13" id="ent0003"><rect fill="none" height="290" rx="2.5" ry="2.5" style="stroke:#9E9E9E;stroke-width:1;" width="218" x="346.5" y="81"/><text fill="#2A0A4A" font-family="Helvetica" font-size="13" font-weight="700" lengthAdjust="spacing" textLength="128.5146" x="391.2427" y="95.0669">User namespaces</text></g><!--cluster ctrl--><g class="cluster" data-qualified-name="ctrl" data-source-line="24" id="ent0009"><rect fill="none" height="242" rx="2.5" ry="2.5" style="stroke:#9E9E9E;stroke-width:1;" width="241" x="335" y="411"/><text fill="#2A0A4A" font-family="Helvetica" font-size="13" font-weight="700" lengthAdjust="spacing" textLength="123.5698" x="393.7151" y="425.0669">Kaalm Controller</text><text fill="#2A0A4A" font-family="Helvetica" font-size="13" font-weight="700" lengthAdjust="spacing" textLength="102.1147" x="404.4426" y="440.1997">kaalm-system</text></g><!--entity agentC--><g class="entity" data-qualified-name="users.agentC" data-source-line="14" id="ent0004"><rect fill="#E6E6FA" height="50.2656" rx="2.5" ry="2.5" style="stroke:#4A148C;stroke-width:2;" width="136.9048" x="387" y="123"/><text fill="#2A0A4A" font-family="Helvetica" font-size="13" font-weight="700" lengthAdjust="spacing" textLength="43.6528" x="397" y="145.0669">Agent</text><text fill="#2A0A4A" font-family="Helvetica" font-size="13" font-weight="700" lengthAdjust="spacing" textLength="4.5259" x="440.6528" y="145.0669">&#160;</text><text fill="#2A0A4A" font-family="Helvetica" font-size="13" font-weight="700" lengthAdjust="spacing" textLength="27.7646" x="445.1787" y="145.0669">Pod</text><text fill="#2A0A4A" font-family="Helvetica" font-size="13" lengthAdjust="spacing" textLength="116.9048" x="397" y="160.1997">(Kaalm-managed)</text></g><!--entity agentTaskC--><g class="entity" data-qualified-name="users.agentTaskC" data-source-line="15" id="ent0005"><rect fill="#E6E6FA" height="50.2656" rx="2.5" ry="2.5" style="stroke:#4A148C;stroke-width:2;" width="169.8174" x="370.5" y="203"/><text fill="#2A0A4A" font-family="Helvetica" font-size="13" font-weight="700" lengthAdjust="spacing" textLength="77.6763" x="380.5" y="225.0669">AgentTask</text><text fill="#2A0A4A" font-family="Helvetica" font-size="13" font-weight="700" lengthAdjust="spacing" textLength="4.5259" x="458.1763" y="225.0669">&#160;</text><text fill="#2A0A4A" font-family="Helvetica" font-size="13" font-weight="700" lengthAdjust="spacing" textLength="27.7646" x="462.7021" y="225.0669">Pod</text><text fill="#2A0A4A" font-family="Helvetica" font-size="13" lengthAdjust="spacing" textLength="70.5415" x="380.5" y="240.1997">(managed,</text><text fill="#2A0A4A" font-family="Helvetica" font-size="13" lengthAdjust="spacing" textLength="4.1323" x="451.0415" y="240.1997">&#160;</text><text fill="#2A0A4A" font-family="Helvetica" font-size="13" lengthAdjust="spacing" textLength="75.1436" x="455.1738" y="240.1997">ephemeral)</text></g><!--entity workloadC--><g class="entity" data-qualified-name="users.workloadC" data-source-line="16" id="ent0006"><rect fill="#E6E6FA" height="50.2656" rx="2.5" ry="2.5" style="stroke:#4A148C;stroke-width:2;" width="153.2944" x="379" y="283"/><text fill="#2A0A4A" font-family="Helvetica" font-size="13" font-weight="700" lengthAdjust="spacing" textLength="69.7925" x="389" y="305.0669">Workload</text><text fill="#2A0A4A" font-family="Helvetica" font-size="13" font-weight="700" lengthAdjust="spacing" textLength="4.5259" x="458.7925" y="305.0669">&#160;</text><text fill="#2A0A4A" font-family="Helvetica" font-size="13" font-weight="700" lengthAdjust="spacing" textLength="27.7646" x="463.3184" y="305.0669">Pod</text><text fill="#2A0A4A" font-family="Helvetica" font-size="13" lengthAdjust="spacing" textLength="96.9985" x="389" y="320.1997">(gateway-only,</text><text fill="#2A0A4A" font-family="Helvetica" font-size="13" lengthAdjust="spacing" textLength="4.1323" x="485.9985" y="320.1997">&#160;</text><text fill="#2A0A4A" font-family="Helvetica" font-size="13" lengthAdjust="spacing" textLength="32.1636" x="490.1309" y="320.1997">BYO)</text></g><!--entity recs--><g class="entity" data-qualified-name="ctrl.recs" data-source-line="25" id="ent0010"><rect fill="#87CEEB" height="80.5313" rx="2.5" ry="2.5" style="stroke:#0D47A1;stroke-width:2;" width="192.7959" x="359" y="468.5"/><text fill="#0A2540" font-family="Helvetica" font-size="13" font-weight="700" lengthAdjust="spacing" textLength="84.3032" x="369" y="490.5669">Reconcilers</text><text fill="#0A2540" font-family="Helvetica" font-size="13" lengthAdjust="spacing" textLength="42.6118" x="369" y="505.6997">Agent,</text><text fill="#0A2540" font-family="Helvetica" font-size="13" lengthAdjust="spacing" textLength="4.1323" x="411.6118" y="505.6997">&#160;</text><text fill="#0A2540" font-family="Helvetica" font-size="13" lengthAdjust="spacing" textLength="72.8203" x="415.7441" y="505.6997">AgentTask,</text><text fill="#0A2540" font-family="Helvetica" font-size="13" lengthAdjust="spacing" textLength="97.2017" x="369" y="520.8325">ModelProvider,</text><text fill="#0A2540" font-family="Helvetica" font-size="13" lengthAdjust="spacing" textLength="76.813" x="369" y="535.9653">AgentClass,</text><text fill="#0A2540" font-family="Helvetica" font-size="13" lengthAdjust="spacing" textLength="4.1323" x="445.813" y="535.9653">&#160;</text><text fill="#0A2540" font-family="Helvetica" font-size="13" lengthAdjust="spacing" textLength="91.8506" x="449.9453" y="535.9653">AgentChannel</text></g><!--entity activator--><g class="entity" data-qualified-name="ctrl.activator" data-source-line="26" id="ent0011"><rect fill="#87CEEB" height="35.1328" rx="2.5" ry="2.5" style="stroke:#0D47A1;stroke-width:2;" width="87.2407" x="412" y="579.5"/><text fill="#0A2540" font-family="Helvetica" font-size="13" font-weight="700" lengthAdjust="spacing" textLength="67.2407" x="422" y="601.5669">Activator</text></g><!--entity webhooks--><g class="entity" data-qualified-name="webhooks" data-source-line="7" id="ent0001"><rect fill="#FFE4B5" height="50.2656" rx="2.5" ry="2.5" style="stroke:#8B4513;stroke-width:2;" width="129.2939" x="391" y="7"/><text fill="#3A1F00" font-family="Helvetica" font-size="13" lengthAdjust="spacing" textLength="60.7788" x="401" y="29.0669">Webhook</text><text fill="#3A1F00" font-family="Helvetica" font-size="13" lengthAdjust="spacing" textLength="4.1323" x="461.7788" y="29.0669">&#160;</text><text fill="#3A1F00" font-family="Helvetica" font-size="13" lengthAdjust="spacing" textLength="44.3828" x="465.9111" y="29.0669">Callers</text><text fill="#3A1F00" font-family="Helvetica" font-size="13" lengthAdjust="spacing" textLength="64.0923" x="401" y="44.1997">(external)</text></g><!--entity gw--><g class="entity" data-qualified-name="gw" data-source-line="10" id="ent0002"><rect fill="#90EE90" height="65.3984" rx="2.5" ry="2.5" style="stroke:#1B5E20;stroke-width:2;" width="169.646" x="735" y="236.5"/><text fill="#0B3D0B" font-family="Helvetica" font-size="13" font-weight="700" lengthAdjust="spacing" textLength="45.6206" x="745" y="258.5669">Kaalm</text><text fill="#0B3D0B" font-family="Helvetica" font-size="13" font-weight="700" lengthAdjust="spacing" textLength="4.5259" x="790.6206" y="258.5669">&#160;</text><text fill="#0B3D0B" font-family="Helvetica" font-size="13" font-weight="700" lengthAdjust="spacing" textLength="63.7305" x="795.1465" y="258.5669">Gateway</text><text fill="#0B3D0B" font-family="Helvetica" font-size="13" font-weight="700" lengthAdjust="spacing" textLength="4.5259" x="858.877" y="258.5669">&#160;</text><text fill="#0B3D0B" font-family="Helvetica" font-size="13" font-weight="700" lengthAdjust="spacing" textLength="27.7646" x="863.4028" y="258.5669">Pod</text><text fill="#0B3D0B" font-family="Helvetica" font-size="13" lengthAdjust="spacing" textLength="91.4253" x="745" y="273.6997">kaalm-system</text><text fill="#0B3D0B" font-family="Helvetica" font-size="13" lengthAdjust="spacing" textLength="37.4639" x="745" y="288.8325">:8080</text><text fill="#0B3D0B" font-family="Helvetica" font-size="13" lengthAdjust="spacing" textLength="4.1323" x="782.4639" y="288.8325">&#160;</text><text fill="#0B3D0B" font-family="Helvetica" font-size="13" lengthAdjust="spacing" textLength="28.355" x="786.5962" y="288.8325">user</text><text fill="#0B3D0B" font-family="Helvetica" font-size="13" lengthAdjust="spacing" textLength="4.1323" x="814.9512" y="288.8325">&#160;</text><text fill="#0B3D0B" font-family="Helvetica" font-size="13" lengthAdjust="spacing" textLength="4.1323" x="819.0835" y="288.8325">&#183;</text><text fill="#0B3D0B" font-family="Helvetica" font-size="13" lengthAdjust="spacing" textLength="4.1323" x="823.2158" y="288.8325">&#160;</text><text fill="#0B3D0B" font-family="Helvetica" font-size="13" lengthAdjust="spacing" textLength="37.4639" x="827.3481" y="288.8325">:8443</text><text fill="#0B3D0B" font-family="Helvetica" font-size="13" lengthAdjust="spacing" textLength="4.1323" x="864.812" y="288.8325">&#160;</text><text fill="#0B3D0B" font-family="Helvetica" font-size="13" lengthAdjust="spacing" textLength="25.7017" x="868.9443" y="288.8325">LLM</text></g><!--entity providers--><g class="entity" data-qualified-name="providers" data-source-line="20" id="ent0007"><rect fill="#FFE4B5" height="50.2656" rx="2.5" ry="2.5" style="stroke:#8B4513;stroke-width:2;" width="148.6353" x="1045" y="204"/><text fill="#3A1F00" font-family="Helvetica" font-size="13" lengthAdjust="spacing" textLength="25.7017" x="1055" y="226.0669">LLM</text><text fill="#3A1F00" font-family="Helvetica" font-size="13" lengthAdjust="spacing" textLength="4.1323" x="1080.7017" y="226.0669">&#160;</text><text fill="#3A1F00" font-family="Helvetica" font-size="13" lengthAdjust="spacing" textLength="54.0376" x="1084.834" y="226.0669">Provider</text><text fill="#3A1F00" font-family="Helvetica" font-size="13" lengthAdjust="spacing" textLength="4.1323" x="1138.8716" y="226.0669">&#160;</text><text fill="#3A1F00" font-family="Helvetica" font-size="13" lengthAdjust="spacing" textLength="27.3394" x="1143.0039" y="226.0669">APIs</text><text fill="#3A1F00" font-family="Helvetica" font-size="13" lengthAdjust="spacing" textLength="71.9824" x="1055" y="241.1997">(Anthropic,</text><text fill="#3A1F00" font-family="Helvetica" font-size="13" lengthAdjust="spacing" textLength="4.1323" x="1126.9824" y="241.1997">&#160;</text><text fill="#3A1F00" font-family="Helvetica" font-size="13" lengthAdjust="spacing" textLength="52.5205" x="1131.1147" y="241.1997">OpenAI)</text></g><!--entity callbacks--><g class="entity" data-qualified-name="callbacks" data-source-line="21" id="ent0008"><rect fill="#FFE4B5" height="50.2656" rx="2.5" ry="2.5" style="stroke:#8B4513;stroke-width:2;" width="138.1997" x="1050.5" y="284"/><text fill="#3A1F00" font-family="Helvetica" font-size="13" lengthAdjust="spacing" textLength="55.1611" x="1060.5" y="306.0669">Callback</text><text fill="#3A1F00" font-family="Helvetica" font-size="13" lengthAdjust="spacing" textLength="4.1323" x="1115.6611" y="306.0669">&#160;</text><text fill="#3A1F00" font-family="Helvetica" font-size="13" lengthAdjust="spacing" textLength="32.5635" x="1119.7935" y="306.0669">URLs</text><text fill="#3A1F00" font-family="Helvetica" font-size="13" lengthAdjust="spacing" textLength="42.8911" x="1060.5" y="321.1997">(async</text><text fill="#3A1F00" font-family="Helvetica" font-size="13" lengthAdjust="spacing" textLength="4.1323" x="1103.3911" y="321.1997">&#160;</text><text fill="#3A1F00" font-family="Helvetica" font-size="13" lengthAdjust="spacing" textLength="71.1763" x="1107.5234" y="321.1997">responses)</text></g><!--entity apiserver--><g class="entity" data-qualified-name="apiserver" data-source-line="28" id="ent0012"><path d="M6,493 C6,483 65.5815,483 65.5815,483 C65.5815,483 125.1631,483 125.1631,493 L125.1631,517.1328 C125.1631,527.1328 65.5815,527.1328 65.5815,527.1328 C65.5815,527.1328 6,527.1328 6,517.1328 L6,493" fill="#FFD580" style="stroke:#7A3F00;stroke-width:0.5;"/><path d="M6,493 C6,503 65.5815,503 65.5815,503 C65.5815,503 125.1631,503 125.1631,493" fill="none" style="stroke:#7A3F00;stroke-width:0.5;"/><text fill="#3A1F00" font-family="Helvetica" font-size="13" lengthAdjust="spacing" textLength="74.4644" x="16" y="519.0669">Kubernetes</text><text fill="#3A1F00" font-family="Helvetica" font-size="13" lengthAdjust="spacing" textLength="4.1323" x="90.4644" y="519.0669">&#160;</text><text fill="#3A1F00" font-family="Helvetica" font-size="13" lengthAdjust="spacing" textLength="20.5664" x="94.5967" y="519.0669">API</text></g><!--link webhooks to gw--><g class="link" data-entity-1="ent0001" data-entity-2="ent0002" data-link-type="dependency" data-source-line="31" id="lnk13"><path d="M520.02,29.23 C575.54,29.95 655.83,38.91 712,79 C766.23,117.71 794.9708,188.2301 808.5708,231.5001" fill="none" id="webhooks-to-gw" style="stroke:#1B5E20;stroke-width:2;"/><polygon fill="#1B5E20" points="810.07,236.27,811.1874,226.4847,808.5708,231.5001,803.5555,228.8835,810.07,236.27" style="stroke:#1B5E20;stroke-width:2;stroke-linejoin:miter;stroke-miterlimit:10;"/><text fill="#000000" font-family="Helvetica" font-size="11" lengthAdjust="spacing" textLength="44.666" x="616.5" y="34.2104">inbound</text><text fill="#000000" font-family="Helvetica" font-size="11" lengthAdjust="spacing" textLength="3.4966" x="661.166" y="34.2104">&#160;</text><text fill="#000000" font-family="Helvetica" font-size="11" lengthAdjust="spacing" textLength="31.7002" x="664.6626" y="34.2104">:8080</text></g><!--link gw to agentC--><g class="link" data-entity-1="ent0002" data-entity-2="ent0004" data-link-type="dependency" data-source-line="32" id="lnk14"><path d="M804.47,236.2 C787.62,202.75 756.37,152.74 712,131 C653.32,102.24 582.6264,110.8903 528.9464,124.5103" fill="none" id="gw-to-agentC" style="stroke:#1B5E20;stroke-width:2;"/><polygon fill="#1B5E20" points="524.1,125.74,533.8073,127.4037,528.9464,124.5103,531.8398,119.6495,524.1,125.74" style="stroke:#1B5E20;stroke-width:2;stroke-linejoin:miter;stroke-miterlimit:10;"/><text fill="#000000" font-family="Helvetica" font-size="11" lengthAdjust="spacing" textLength="37.6621" x="616" y="97.2104">deliver</text><text fill="#000000" font-family="Helvetica" font-size="11" lengthAdjust="spacing" textLength="3.4966" x="653.6621" y="97.2104">&#160;</text><text fill="#000000" font-family="Helvetica" font-size="11" lengthAdjust="spacing" textLength="39.1284" x="657.1587" y="97.2104">(mTLS)</text><text fill="#000000" font-family="Helvetica" font-size="11" lengthAdjust="spacing" textLength="70.356" x="620.9656" y="110.0151">/v1/message</text></g><!--link agentC to gw--><g class="link" data-entity-1="ent0004" data-entity-2="ent0002" data-link-type="dependency" data-source-line="34" id="lnk16"><path d="M524.04,146.26 C577.18,147.25 652.02,153.99 712,180 C741.7,192.88 766.0829,213.1361 785.9529,232.8761" fill="none" id="agentC-to-gw" style="stroke:#1B5E20;stroke-width:2;"/><polygon fill="#1B5E20" points="789.5,236.4,785.9343,227.2193,785.9529,232.8761,780.2961,232.8947,789.5,236.4" style="stroke:#1B5E20;stroke-width:2;stroke-linejoin:miter;stroke-miterlimit:10;"/><text fill="#000000" font-family="Helvetica" font-size="11" lengthAdjust="spacing" textLength="21.7476" x="624" y="150.2104">LLM</text><text fill="#000000" font-family="Helvetica" font-size="11" lengthAdjust="spacing" textLength="3.4966" x="645.7476" y="150.2104">&#160;</text><text fill="#000000" font-family="Helvetica" font-size="11" lengthAdjust="spacing" textLength="39.1284" x="649.2441" y="150.2104">(mTLS)</text></g><!--link agentC to gw--><g class="link" data-entity-1="ent0004" data-entity-2="ent0002" data-link-type="dependency" data-source-line="47" id="lnk25"><path d="M524.15,158.79 C547.15,164.75 572.06,173.93 592,188 C596.94,191.49 595.02,195.58 600,199 C642.48,228.18 662.92,213.29 712,229 C719.46,231.39 722.4523,232.3336 730.1423,235.0336" fill="none" id="agentC-to-gw-1" style="stroke:#4A148C;stroke-width:1;stroke-dasharray:7,7;"/><polygon fill="#4A148C" points="734.86,236.69,727.6933,229.9344,730.1423,235.0336,725.0431,237.4826,734.86,236.69" style="stroke:#4A148C;stroke-width:1;stroke-linejoin:miter;stroke-miterlimit:10;"/><text fill="#000000" font-family="Helvetica" font-size="11" lengthAdjust="spacing" textLength="110.521" x="601" y="196.2104">/v1/agent/heartbeat</text></g><!--link gw to callbacks--><g class="link" data-entity-1="ent0002" data-entity-2="ent0008" data-link-type="dependency" data-source-line="33" id="lnk15"><path d="M905.2,289.02 C912.88,290.5 920.57,291.86 928,293 C968.35,299.19 1008.9109,302.8001 1045.3609,305.2101" fill="none" id="gw-to-callbacks" style="stroke:#1B5E20;stroke-width:2;"/><polygon fill="#1B5E20" points="1050.35,305.54,1041.6335,300.9549,1045.3609,305.2101,1041.1057,308.9375,1050.35,305.54" style="stroke:#1B5E20;stroke-width:2;stroke-linejoin:miter;stroke-miterlimit:10;"/><text fill="#000000" font-family="Helvetica" font-size="11" lengthAdjust="spacing" textLength="45.042" x="929" y="277.2104">callback</text><text fill="#000000" font-family="Helvetica" font-size="11" lengthAdjust="spacing" textLength="3.4966" x="974.042" y="277.2104">&#160;</text><text fill="#000000" font-family="Helvetica" font-size="11" lengthAdjust="spacing" textLength="43.9087" x="977.5386" y="277.2104">(HTTPS)</text><text fill="#000000" font-family="Helvetica" font-size="11" lengthAdjust="spacing" textLength="60.6719" x="944.8877" y="290.0151">callbackUrl</text></g><!--link agentTaskC to gw--><g class="link" data-entity-1="ent0005" data-entity-2="ent0002" data-link-type="dependency" data-source-line="35" id="lnk17"><path d="M540.69,238.85 C560.16,241.28 580.79,243.79 600,246 C644.53,251.13 689.2362,255.8788 730.0062,260.0688" fill="none" id="agentTaskC-to-gw" style="stroke:#1B5E20;stroke-width:2;"/><polygon fill="#1B5E20" points="734.98,260.58,726.4361,255.6809,730.0062,260.0688,725.6182,263.6389,734.98,260.58" style="stroke:#1B5E20;stroke-width:2;stroke-linejoin:miter;stroke-miterlimit:10;"/><text fill="#000000" font-family="Helvetica" font-size="11" lengthAdjust="spacing" textLength="21.7476" x="624" y="243.2104">LLM</text><text fill="#000000" font-family="Helvetica" font-size="11" lengthAdjust="spacing" textLength="3.4966" x="645.7476" y="243.2104">&#160;</text><text fill="#000000" font-family="Helvetica" font-size="11" lengthAdjust="spacing" textLength="39.1284" x="649.2441" y="243.2104">(mTLS)</text></g><!--link agentTaskC to gw--><g class="link" data-entity-1="ent0005" data-entity-2="ent0002" data-link-type="dependency" data-source-line="48" id="lnk26"><path d="M540.67,243.58 C558.64,249.36 576.77,257.25 592,268 C596.94,271.49 594.61,276.26 600,279 C644.36,301.59 662.28,281.32 712,279 C719.45,278.65 722.2035,278.5368 729.9535,277.9668" fill="none" id="agentTaskC-to-gw-1" style="stroke:#4A148C;stroke-width:1;stroke-dasharray:7,7;"/><polygon fill="#4A148C" points="734.94,277.6,725.6708,274.2709,729.9535,277.9668,726.2576,282.2494,734.94,277.6" style="stroke:#4A148C;stroke-width:1;stroke-linejoin:miter;stroke-miterlimit:10;"/><text fill="#000000" font-family="Helvetica" font-size="11" lengthAdjust="spacing" textLength="99.1611" x="606.5" y="276.2104">/v1/task/complete</text></g><!--link workloadC to gw--><g class="link" data-entity-1="ent0006" data-entity-2="ent0002" data-link-type="dependency" data-source-line="36" id="lnk18"><path d="M532.29,317.19 C552.39,321.48 573.61,327.78 592,337 C596.22,339.12 595.58,342.34 600,344 C646.6,361.51 664.53,358.98 712,344 C738.83,335.53 760.9106,320.8488 780.5306,304.6888" fill="none" id="workloadC-to-gw" style="stroke:#1B5E20;stroke-width:2;"/><polygon fill="#1B5E20" points="784.39,301.51,774.9,304.1443,780.5306,304.6888,779.9861,310.3194,784.39,301.51" style="stroke:#1B5E20;stroke-width:2;stroke-linejoin:miter;stroke-miterlimit:10;"/><text fill="#000000" font-family="Helvetica" font-size="11" lengthAdjust="spacing" textLength="21.7476" x="612" y="341.2104">LLM</text><text fill="#000000" font-family="Helvetica" font-size="11" lengthAdjust="spacing" textLength="3.4966" x="633.7476" y="341.2104">&#160;</text><text fill="#000000" font-family="Helvetica" font-size="11" lengthAdjust="spacing" textLength="18.7988" x="637.2441" y="341.2104">(SA</text><text fill="#000000" font-family="Helvetica" font-size="11" lengthAdjust="spacing" textLength="3.4966" x="656.043" y="341.2104">&#160;</text><text fill="#000000" font-family="Helvetica" font-size="11" lengthAdjust="spacing" textLength="41.1587" x="659.5396" y="341.2104">Bearer)</text></g><!--link gw to providers--><g class="link" data-entity-1="ent0002" data-entity-2="ent0007" data-link-type="dependency" data-source-line="37" id="lnk19"><path d="M905.06,257.7 C949.05,251.78 997.4547,245.2768 1039.8147,239.5768" fill="none" id="gw-to-providers" style="stroke:#1B5E20;stroke-width:2;"/><polygon fill="#1B5E20" points="1044.77,238.91,1035.317,236.146,1039.8147,239.5768,1036.3838,244.0745,1044.77,238.91" style="stroke:#1B5E20;stroke-width:2;stroke-linejoin:miter;stroke-miterlimit:10;"/><text fill="#000000" font-family="Helvetica" font-size="11" lengthAdjust="spacing" textLength="36.502" x="957" y="241.2104">egress</text></g><!--link ctrl to apiserver--><g class="link" data-entity-1="ent0009" data-entity-2="ent0012" data-link-type="dependency" data-source-line="40" id="lnk20"><path d="M334.8118,634.0871 C334.5781,634.034 334.3445,633.9805 334.111,633.9269 C333.6442,633.8195 333.178,633.7111 332.7125,633.6017 C331.7814,633.3829 330.8532,633.1599 329.9281,632.9327 C326.2277,632.0241 322.5775,631.0481 319,630 C236.62,605.87 152.7844,558.6905 105.5244,529.7605" fill="none" id="ctrl-to-apiserver" style="stroke:#0D47A1;stroke-width:1;"/><polygon fill="#0D47A1" points="101.26,527.15,106.8476,535.2604,105.5244,529.7605,111.0244,528.4373,101.26,527.15" style="stroke:#0D47A1;stroke-width:1;stroke-linejoin:miter;stroke-miterlimit:10;"/><text fill="#000000" font-family="Helvetica" font-size="11" lengthAdjust="spacing" textLength="45.5684" x="174" y="555.2104">watches</text><text fill="#000000" font-family="Helvetica" font-size="11" lengthAdjust="spacing" textLength="3.4966" x="219.5684" y="555.2104">&#160;</text><text fill="#000000" font-family="Helvetica" font-size="11" lengthAdjust="spacing" textLength="3.7061" x="223.0649" y="555.2104">/</text><text fill="#000000" font-family="Helvetica" font-size="11" lengthAdjust="spacing" textLength="3.4966" x="226.771" y="555.2104">&#160;</text><text fill="#000000" font-family="Helvetica" font-size="11" lengthAdjust="spacing" textLength="55.6982" x="230.2676" y="555.2104">reconciles</text></g><!--link apiserver to users--><g class="link" data-entity-1="ent0012" data-entity-2="ent0003" data-link-type="dependency" data-source-line="41" id="lnk21"><path d="M125.01,483.59 C178.36,464.065 259.0125,434.5475 327.1675,409.6038 C361.245,397.1319 392.1981,385.8034 415.0519,377.4392 C420.7653,375.3482 425.9725,373.4424 430.5958,371.7503 C431.1737,371.5388 427.0471,373.0491 427.6066,372.8443" fill="none" id="apiserver-to-users" style="stroke:#0D47A1;stroke-width:1;"/><polygon fill="#0D47A1" points="432.302,371.1258,422.4755,370.4628,427.6066,372.8443,425.2251,377.9754,432.302,371.1258" style="stroke:#0D47A1;stroke-width:1;stroke-linejoin:miter;stroke-miterlimit:10;"/><text fill="#000000" font-family="Helvetica" font-size="11" lengthAdjust="spacing" textLength="29.5732" x="171.1101" y="389.2104">Pods,</text><text fill="#000000" font-family="Helvetica" font-size="11" lengthAdjust="spacing" textLength="3.4966" x="200.6833" y="389.2104">&#160;</text><text fill="#000000" font-family="Helvetica" font-size="11" lengthAdjust="spacing" textLength="31.0664" x="204.1799" y="389.2104">PVCs,</text><text fill="#000000" font-family="Helvetica" font-size="11" lengthAdjust="spacing" textLength="3.4966" x="235.2463" y="389.2104">&#160;</text><text fill="#000000" font-family="Helvetica" font-size="11" lengthAdjust="spacing" textLength="49.8813" x="238.7429" y="389.2104">Services,</text><text fill="#000000" font-family="Helvetica" font-size="11" lengthAdjust="spacing" textLength="67.7349" x="149" y="402.0151">ConfigMaps,</text><text fill="#000000" font-family="Helvetica" font-size="11" lengthAdjust="spacing" textLength="3.4966" x="216.7349" y="402.0151">&#160;</text><text fill="#000000" font-family="Helvetica" font-size="11" lengthAdjust="spacing" textLength="90.5029" x="220.2314" y="402.0151">NetworkPolicies,</text><text fill="#000000" font-family="Helvetica" font-size="11" lengthAdjust="spacing" textLength="94.4883" x="149.4404" y="414.8198">ServiceAccounts,</text><text fill="#000000" font-family="Helvetica" font-size="11" lengthAdjust="spacing" textLength="3.4966" x="243.9287" y="414.8198">&#160;</text><text fill="#000000" font-family="Helvetica" font-size="11" lengthAdjust="spacing" textLength="62.8687" x="247.4253" y="414.8198">Certificates</text></g><!--link gw to activator--><g class="link" data-entity-1="ent0002" data-entity-2="ent0011" data-link-type="dependency" data-source-line="44" id="lnk22"><path d="M788.26,301.59 C767.2,323.59 738.41,353.06 712,378 C663.91,423.41 630.03,417.07 600,476 C591.08,493.5 604.82,549.13 592,564 C569.4,590.23 534.7657,597.2426 504.1757,598.5126" fill="none" id="gw-to-activator" style="stroke:#4A148C;stroke-width:1;stroke-dasharray:7,7;"/><polygon fill="#4A148C" points="499.18,598.72,508.3382,602.3432,504.1757,598.5126,508.0063,594.3501,499.18,598.72" style="stroke:#4A148C;stroke-width:1;stroke-linejoin:miter;stroke-miterlimit:10;"/><text fill="#000000" font-family="Helvetica" font-size="11" lengthAdjust="spacing" textLength="65.4092" x="606" y="375.2104">/v1/activate</text><text fill="#000000" font-family="Helvetica" font-size="11" lengthAdjust="spacing" textLength="3.4966" x="671.4092" y="375.2104">&#160;</text><text fill="#000000" font-family="Helvetica" font-size="11" lengthAdjust="spacing" textLength="31.7002" x="674.9058" y="375.2104">:9443</text></g><!--link ctrl to gw--><g class="link" data-entity-1="ent0009" data-entity-2="ent0002" data-link-type="dependency" data-source-line="45" id="lnk23"><path d="M576.3442,640.2325 C576.5509,640.129 576.7573,640.0247 576.9632,639.9196 C577.375,639.7094 577.785,639.4959 578.1932,639.2792 C579.8261,638.4123 581.4299,637.4933 583.0008,636.5195 C586.1425,634.572 589.1525,632.4056 592,630 C601.89,621.65 593.26,613.05 600,602 C635.55,543.76 671.9,552.2 712,497 C757.87,433.85 790.1244,352.6344 806.4644,306.3844" fill="none" id="ctrl-to-gw" style="stroke:#4A148C;stroke-width:1;stroke-dasharray:7,7;"/><polygon fill="#4A148C" points="808.13,301.67,801.3604,308.8235,806.4644,306.3844,808.9035,311.4884,808.13,301.67" style="stroke:#4A148C;stroke-width:1;stroke-linejoin:miter;stroke-miterlimit:10;"/><text fill="#000000" font-family="Helvetica" font-size="11" lengthAdjust="spacing" textLength="61.4668" x="625.5" y="494.2104">/v1/activity</text></g><!--link ctrl to gw--><g class="link" data-entity-1="ent0009" data-entity-2="ent0002" data-link-type="dependency" data-source-line="46" id="lnk24"><path d="M491.4608,653.1632 C492.0392,653.2744 492.6233,653.3857 493.213,653.497 C495.5719,653.9422 498.0209,654.387 500.5528,654.8265 C505.6167,655.7056 511.0123,656.5634 516.6825,657.3602 C528.0229,658.9536 540.4616,660.3025 553.5413,661.0875 C605.86,664.2275 668.435,658.345 712,623 C762.86,581.74 799.7909,386.3825 813.0209,306.7125" fill="none" id="ctrl-to-gw-1" style="stroke:#4A148C;stroke-width:1;stroke-dasharray:7,7;"/><polygon fill="#4A148C" points="813.84,301.78,808.4197,310.0032,813.0209,306.7125,816.3116,311.3137,813.84,301.78" style="stroke:#4A148C;stroke-width:1;stroke-linejoin:miter;stroke-miterlimit:10;"/><text fill="#000000" font-family="Helvetica" font-size="11" lengthAdjust="spacing" textLength="108.7056" x="602" y="620.2104">/v1/channels/health</text></g><g class="legend" data-source-line="50"><rect fill="none" height="42.5938" rx="7.5" ry="7.5" style="stroke:#000000;stroke-width:1;" width="427.9971" x="386.3191" y="685.2275"/><text fill="#000000" font-family="Helvetica" font-size="14" lengthAdjust="spacing" textLength="334.4209" x="391.3191" y="703.2226">Thick green = data plane | Thin blue = lifecycle</text><text fill="#000000" font-family="Helvetica" font-size="14" lengthAdjust="spacing" textLength="417.9971" x="391.3191" y="719.5195">Dashed purple = internal mTLS RPC, on :8443 unless noted</text></g><?plantuml-src fLPRRzis57xNhpXh7cfxliY9qpegLi1sd2vOiXYvh1YQOg0esY9Cam99nJEs_gwzxvVjK9Hi9qxJfFE38P7VkV2SxplKQ_Y54B40ipAMBS2gJ0arMxM3rt2bSaqPg2bOdTiqWaHHqp6QTgYIb6KMNmgh5j4qvPPHcslMNYJ13rnIaISC_Z1s9LWxonSY46ngqJzeFaij95mZdYiPOAHM2qvbh7AP0FlJCYs9mBNd_0BdXSYPOF3g8ujJfUOm8a8mRMvbhN9MVmN4mDBl6zYB2Pr79oVZtl3mdU2IHVrXxx1xK3otOoMITnPDemFIdOPXcQ0lqmTYsPAie3Pthor__ZfyExb6uxw3YKeQZLkvxUPMHlsm7q9kc8P__u6et-iTmDdPUP7zR5dcVHIEnqUXpxixF1plXm_p3kE398pBl6-SDqaMp6I4CWCrCcFIme-mL7ek54aWKudPES9sxWzS5Ecu90ty5G3SE-IWS5uUhbOSkRKW4cCclWb5z55vbF6RyPkJWJzARz3jzKSFZx9FGj8ZZqQv9cQ-ZbJ6Q0BBKhPWkkevgP3_D-J7gbfLn9blP4j9iMh2yFUBacGbxiNnlfJzkiZjzoXXkrz86PXeTSSJxDjWSkgaC90srIhZj0aN6PE3KvzkLi9UB8gjS4vlpXXkBizSA69MacBrJAQaOSO7eYNeEzKtKj9gvNIDp2KPH_RTuNED-dN8195iLuVRQNhzRHpT5vzFqcgno-bBvkOTTpF5TRuWNnFM76pUodELC55Ll5b2He8OK-96AP6IYI88-gwAq7yx6e-7lWZXSU_jeBiZPR9_s0jt-8-JyuvOfHiDp_Bg_QL-lmG9iIGcnjKdZv5lpEACGCvulrMXoouS8zYN6cesvNHUVnOvW_NaRNtQyoEhwLBvt7hlnbe4l1p-nVmBS6aNLyuDl8IOu4Nh5zTdL_LRsRdhTd0o6GGyRhbXNhH-XjhFrzSJPrwjt6WHb36-agHJbGyQR4sLRuCt4-4fxDK0XenefkkFds8Zr0ZO3CLbofwSyIcZAofyIsJzkHTdmNMCu_bHb7WjgmYMnD8KcT1nnFFiDy46SC_ENmMHcup8zybl8_o_GXp7kmB5W8gRyjavoN3vLsPTEIPASCgBtH8ue1GPO14oOjhoAQSuNitwsw2SXAwWS3aPuIsM49FYdVBKQLqXsv_s_DJzt7w_9PC876tATmRH4TwqlYBt38hsh97Shfx2KAznqqaP4JQjsFGLXsxJ8RMD6R7RZ7hSmE8UVdSjCe4A3V1Z2WqIY9MrQe7ZuTgf4P0NJC9Fa6nq-hVRaX2BdE66gCY29iT51I7BDVh4FVwmoarGilm8oINstu1KbYK11lRX_mC0?></g></svg>