<svg xmlns="http://www.w3.org/2000/svg" xmlns:xlink="http://www.w3.org/1999/xlink" contentStyleType="text/css" data-diagram-type="STATE" height="727px" preserveAspectRatio="none" style="width:1203px;height:727px;" version="1.1" viewBox="0 0 1203 727" width="1203px" zoomAndPan="magnify"><?plantuml 1.2026.6?><defs/><g><rect fill="#E6E6FA" height="40" rx="12.5" ry="12.5" style="stroke:#4A148C;stroke-width:0.5;" width="62.4316" x="866.5" y="73"/><text fill="#2A0A4A" font-family="Helvetica" font-size="13" lengthAdjust="spacing" textLength="52.4316" x="871.5" y="97.5005">Pending</text><rect fill="#E6E6FA" height="40" rx="12.5" ry="12.5" style="stroke:#4A148C;stroke-width:0.5;" width="89.1235" x="698" y="173"/><text fill="#2A0A4A" font-family="Helvetica" font-size="13" lengthAdjust="spacing" textLength="79.1235" x="703" y="197.5005">Provisioning</text><rect fill="#E6E6FA" height="40" rx="12.5" ry="12.5" style="stroke:#4A148C;stroke-width:0.5;" width="63.8535" x="393.5" y="273"/><text fill="#2A0A4A" font-family="Helvetica" font-size="13" lengthAdjust="spacing" textLength="53.8535" x="398.5" y="297.5005">Running</text><rect fill="#E6E6FA" height="40" rx="12.5" ry="12.5" style="stroke:#4A148C;stroke-width:0.5;" width="84.7563" x="114" y="386"/><text fill="#2A0A4A" font-family="Helvetica" font-size="13" lengthAdjust="spacing" textLength="74.7563" x="119" y="410.5005">Completing</text><rect fill="#E6E6FA" height="40" rx="12.5" ry="12.5" style="stroke:#4A148C;stroke-width:0.5;" width="81.2842" x="7" y="486"/><text fill="#2A0A4A" font-family="Helvetica" font-size="13" lengthAdjust="spacing" textLength="71.2842" x="12" y="510.5005">Succeeded</text><rect fill="#E6E6FA" height="40" rx="12.5" ry="12.5" style="stroke:#4A148C;stroke-width:0.5;" width="50" x="643.5" y="486"/><text fill="#2A0A4A" font-family="Helvetica" font-size="13" lengthAdjust="spacing" textLength="38.9175" x="649.0413" y="510.5005">Failed</text><rect fill="#E6E6FA" height="40" rx="12.5" ry="12.5" style="stroke:#4A148C;stroke-width:0.5;" width="74.0352" x="124.5" y="486"/><text fill="#2A0A4A" font-family="Helvetica" font-size="13" lengthAdjust="spacing" textLength="64.0352" x="129.5" y="510.5005">TimedOut</text><rect fill="#E6E6FA" height="40" rx="12.5" ry="12.5" style="stroke:#4A148C;stroke-width:0.5;" width="88.9648" x="56" y="673"/><text fill="#2A0A4A" font-family="Helvetica" font-size="13" lengthAdjust="spacing" textLength="78.9648" x="61" y="697.5005">Terminating</text><rect fill="#F5F5F5" height="40" rx="12.5" ry="12.5" style="stroke:#4A148C;stroke-width:0.5;" width="70.9629" x="65" y="573"/><text fill="#2A0A4A" font-family="Helvetica" font-size="13" lengthAdjust="spacing" textLength="60.9629" x="70" y="597.5005">any state</text><g class="start_entity" data-qualified-name=".start." data-source-line="36" id="ent0010"><ellipse cx="897.5" cy="16" fill="#222222" rx="10" ry="10" style="stroke:#222222;stroke-width:1;"/></g><g class="entity" data-qualified-name="GMN25" data-source-line="31" id="ent0026"><path d="M959,81.5 L959,89 L928.77,93 L959,97 L959,104.3047 A0,0 0 0 0 959,104.3047 L1010.25,104.3047 A0,0 0 0 0 1010.25,104.3047 L1010.25,91.5 L1000.25,81.5 L959,81.5 A0,0 0 0 0 959,81.5" fill="#FFF8DC" style="stroke:#8B7500;stroke-width:0.5;"/><path d="M1000.25,81.5 L1000.25,91.5 L1010.25,91.5 L1000.25,81.5" fill="#FFF8DC" style="stroke:#8B7500;stroke-width:0.5;"/><text fill="#000000" font-family="Helvetica" font-size="11" lengthAdjust="spacing" textLength="30.25" x="965" y="96.7104">initial</text></g><g class="entity" data-qualified-name="GMN28" data-source-line="32" id="ent0029"><path d="M817.5,181.5 L817.5,189 L787.18,193 L817.5,197 L817.5,204.3047 A0,0 0 0 0 817.5,204.3047 L933.2891,204.3047 A0,0 0 0 0 933.2891,204.3047 L933.2891,191.5 L923.2891,181.5 L817.5,181.5 A0,0 0 0 0 817.5,181.5" fill="#FFF8DC" style="stroke:#8B7500;stroke-width:0.5;"/><path d="M923.2891,181.5 L923.2891,191.5 L933.2891,191.5 L923.2891,181.5" fill="#FFF8DC" style="stroke:#8B7500;stroke-width:0.5;"/><text fill="#000000" font-family="Helvetica" font-size="11" lengthAdjust="spacing" textLength="94.7891" x="823.5" y="196.7104">creating Pod/PVC</text></g><g class="entity" data-qualified-name="GMN31" data-source-line="33" id="ent0032"><path d="M229.5,388 L229.5,402 L199.19,406 L229.5,410 L229.5,423.6094 A0,0 0 0 0 229.5,423.6094 L365.5596,423.6094 A0,0 0 0 0 365.5596,423.6094 L365.5596,398 L355.5596,388 L229.5,388 A0,0 0 0 0 229.5,388" fill="#FFF8DC" style="stroke:#8B7500;stroke-width:0.5;"/><path d="M355.5596,388 L355.5596,398 L365.5596,398 L355.5596,388" fill="#FFF8DC" style="stroke:#8B7500;stroke-width:0.5;"/><text fill="#000000" font-family="Helvetica" font-size="11" lengthAdjust="spacing" textLength="105.3594" x="235.5" y="403.2104">collecting artifacts,</text><text fill="#000000" font-family="Helvetica" font-size="11" lengthAdjust="spacing" textLength="115.0596" x="235.5" y="416.0151">scheduling teardown</text></g><!--link *start* to Pending--><g class="link" data-entity-1="ent0010" data-entity-2="ent0001" data-link-type="dependency" data-source-line="36" id="lnk11"><path d="M897.5,26.2 C897.5,37.77 897.5,52.96 897.5,67.93" fill="none" id="*start*-to-Pending" style="stroke:#4A148C;stroke-width:1;"/><polygon fill="#4A148C" points="897.5,72.93,901.5,63.93,897.5,67.93,893.5,63.93,897.5,72.93" style="stroke:#4A148C;stroke-width:1;stroke-linejoin:miter;stroke-miterlimit:10;"/></g><!--link Pending to Provisioning--><g class="link" data-entity-1="ent0001" data-entity-2="ent0002" data-link-type="dependency" data-source-line="37" id="lnk12"><path d="M867.25,113.13 C839.94,130.4 804.186,152.9978 776.906,170.2478" fill="none" id="Pending-to-Provisioning" style="stroke:#4A148C;stroke-width:1;"/><polygon fill="#4A148C" points="772.68,172.92,782.4246,171.4908,776.906,170.2478,778.149,164.7292,772.68,172.92" style="stroke:#4A148C;stroke-width:1;stroke-linejoin:miter;stroke-miterlimit:10;"/><text fill="#000000" font-family="Helvetica" font-size="11" lengthAdjust="spacing" textLength="113.3838" x="830.5" y="147.2104">references validated</text></g><!--link Provisioning to Running--><g class="link" data-entity-1="ent0002" data-entity-2="ent0003" data-link-type="dependency" data-source-line="38" id="lnk13"><path d="M697.92,204.97 C666.35,212.97 623.11,224.4 585.5,236 C540.78,249.79 494.5808,266.319 462.4408,278.179" fill="none" id="Provisioning-to-Running" style="stroke:#4A148C;stroke-width:1;"/><polygon fill="#4A148C" points="457.75,279.91,467.5782,280.5469,462.4408,278.179,464.8087,273.0416,457.75,279.91" style="stroke:#4A148C;stroke-width:1;stroke-linejoin:miter;stroke-miterlimit:10;"/><text fill="#000000" font-family="Helvetica" font-size="11" lengthAdjust="spacing" textLength="58.4858" x="586.5" y="247.2104">Pod Ready</text></g><!--link Running to Completing--><g class="link" data-entity-1="ent0003" data-entity-2="ent0004" data-link-type="dependency" data-source-line="39" id="lnk14"><path d="M393.25,302.84 C366.43,310.55 327.46,322.57 294.5,336 C258.28,350.76 222.8952,368.7649 195.3852,383.5349" fill="none" id="Running-to-Completing" style="stroke:#4A148C;stroke-width:1;"/><polygon fill="#4A148C" points="190.98,385.9,200.8015,385.1669,195.3852,383.5349,197.0173,378.1185,190.98,385.9" style="stroke:#4A148C;stroke-width:1;stroke-linejoin:miter;stroke-miterlimit:10;"/><text fill="#000000" font-family="Helvetica" font-size="11" lengthAdjust="spacing" textLength="97.4048" x="300.1003" y="347.2104">completion signal</text><text fill="#000000" font-family="Helvetica" font-size="11" lengthAdjust="spacing" textLength="106.6055" x="295.5" y="360.0151">OR timeout OR exit</text></g><!--link Completing to Succeeded--><g class="link" data-entity-1="ent0004" data-entity-2="ent0005" data-link-type="dependency" data-source-line="40" id="lnk15"><path d="M113.9,414.85 C93.5,420.81 70.52,431.16 56.5,449 C48.41,459.3 46.358,469.0105 46.198,480.7705" fill="none" id="Completing-to-Succeeded" style="stroke:#4A148C;stroke-width:1;"/><polygon fill="#4A148C" points="46.13,485.77,50.2521,476.8252,46.198,480.7705,42.2528,476.7164,46.13,485.77" style="stroke:#4A148C;stroke-width:1;stroke-linejoin:miter;stroke-miterlimit:10;"/><text fill="#000000" font-family="Helvetica" font-size="11" lengthAdjust="spacing" textLength="94.1123" x="57.5" y="460.2104">success reported</text></g><!--link Completing to Failed--><g class="link" data-entity-1="ent0004" data-entity-2="ent0006" data-link-type="dependency" data-source-line="41" id="lnk16"><path d="M199.31,425.1 C230.67,437.63 274.54,453.67 314.5,463 C435.64,491.28 579.7861,500.7933 638.2861,503.6833" fill="none" id="Completing-to-Failed" style="stroke:#4A148C;stroke-width:1;"/><polygon fill="#4A148C" points="643.28,503.93,634.4883,499.4908,638.2861,503.6833,634.0936,507.4811,643.28,503.93" style="stroke:#4A148C;stroke-width:1;stroke-linejoin:miter;stroke-miterlimit:10;"/><text fill="#000000" font-family="Helvetica" font-size="11" lengthAdjust="spacing" textLength="86.0718" x="315.5" y="460.2104">failure reported</text></g><!--link Completing to TimedOut--><g class="link" data-entity-1="ent0004" data-entity-2="ent0007" data-link-type="dependency" data-source-line="42" id="lnk17"><path d="M157.49,426.36 C158.36,443.54 159.387,463.5164 160.257,480.6864" fill="none" id="Completing-to-TimedOut" style="stroke:#4A148C;stroke-width:1;"/><polygon fill="#4A148C" points="160.51,485.68,164.0494,476.4891,160.257,480.6864,156.0597,476.894,160.51,485.68" style="stroke:#4A148C;stroke-width:1;stroke-linejoin:miter;stroke-miterlimit:10;"/><text fill="#000000" font-family="Helvetica" font-size="11" lengthAdjust="spacing" textLength="60.7041" x="160.5" y="460.2104">timeout hit</text></g><!--link Pending to Failed--><g class="link" data-entity-1="ent0001" data-entity-2="ent0006" data-link-type="dependency" data-source-line="45" id="lnk18"><path d="M928.87,110.2 C974.16,134.09 1052.5,177.51 1052.5,192 C1052.5,192 1052.5,192 1052.5,407 C1052.5,481.31 784.1145,499.755 698.6945,503.775" fill="none" id="Pending-to-Failed" style="stroke:#0D47A1;stroke-width:1;"/><polygon fill="#0D47A1" points="693.7,504.01,702.8781,507.5825,698.6945,503.775,702.502,499.5913,693.7,504.01" style="stroke:#0D47A1;stroke-width:1;stroke-linejoin:miter;stroke-miterlimit:10;"/><text fill="#000000" font-family="Helvetica" font-size="11" lengthAdjust="spacing" textLength="107.0566" x="1067.0459" y="284.2104">spec irreconcilable:</text><text fill="#000000" font-family="Helvetica" font-size="11" lengthAdjust="spacing" textLength="132.897" x="1054.1257" y="297.0151">PersistenceNotAllowed /</text><text fill="#000000" font-family="Helvetica" font-size="11" lengthAdjust="spacing" textLength="134.1484" x="1053.5" y="309.8198">ClassConstraintViolation</text></g><!--link Provisioning to Failed--><g class="link" data-entity-1="ent0002" data-entity-2="ent0006" data-link-type="dependency" data-source-line="46" id="lnk19"><path d="M728.06,213.4 C709.55,239.61 678.4,288.54 666.5,336 C653.22,388.94 659.5428,449.2177 664.4028,480.9377" fill="none" id="Provisioning-to-Failed" style="stroke:#0D47A1;stroke-width:1;"/><polygon fill="#0D47A1" points="665.16,485.88,667.7508,476.378,664.4028,480.9377,659.8431,477.5896,665.16,485.88" style="stroke:#0D47A1;stroke-width:1;stroke-linejoin:miter;stroke-miterlimit:10;"/><text fill="#000000" font-family="Helvetica" font-size="11" lengthAdjust="spacing" textLength="167.0571" x="667.5" y="347.2104">unrecoverable Pod-start error;</text><text fill="#000000" font-family="Helvetica" font-size="11" lengthAdjust="spacing" textLength="157.2764" x="672.3904" y="360.0151">retryable under backoffLimit</text></g><!--link Failed to Provisioning--><g class="link" data-entity-1="ent0006" data-entity-2="ent0002" data-link-type="dependency" data-source-line="48" id="lnk21"><path d="M693.52,493.16 C733,472.9 808.36,427.44 838.5,363 C864.8,306.76 807.5181,247.2883 771.0681,216.4683" fill="none" id="Failed-to-Provisioning" style="stroke:#0D47A1;stroke-width:1;"/><polygon fill="#0D47A1" points="767.25,213.24,771.5399,222.1055,771.0681,216.4683,776.7052,215.9966,767.25,213.24" style="stroke:#0D47A1;stroke-width:1;stroke-linejoin:miter;stroke-miterlimit:10;"/><text fill="#000000" font-family="Helvetica" font-size="11" lengthAdjust="spacing" textLength="101.7231" x="874.1746" y="347.2104">backoffLimit retry:</text><text fill="#000000" font-family="Helvetica" font-size="11" lengthAdjust="spacing" textLength="157.0723" x="846.5" y="360.0151">status.retries &lt; backoffLimit</text></g><!--link Running to Failed--><g class="link" data-entity-1="ent0003" data-entity-2="ent0006" data-link-type="dependency" data-source-line="47" id="lnk20"><path d="M423.29,313.05 C421.12,341.13 421.4,393.78 448.5,426 C498.52,485.48 591.8253,499.7897 638.1853,503.4197" fill="none" id="Running-to-Failed" style="stroke:#0D47A1;stroke-width:1;"/><polygon fill="#0D47A1" points="643.17,503.81,634.5097,499.1197,638.1853,503.4197,633.8852,507.0952,643.17,503.81" style="stroke:#0D47A1;stroke-width:1;stroke-linejoin:miter;stroke-miterlimit:10;"/><text fill="#000000" font-family="Helvetica" font-size="11" lengthAdjust="spacing" textLength="195.4004" x="449.5" y="403.7104">involuntary Pod disruption mid-run;</text><text fill="#000000" font-family="Helvetica" font-size="11" lengthAdjust="spacing" textLength="157.2764" x="468.562" y="416.5151">retryable under backoffLimit</text></g><!--link AnyState to Terminating--><g class="link" data-entity-1="ent0009" data-entity-2="ent0008" data-link-type="dependency" data-source-line="51" id="lnk22"><path d="M100.5,613.36 C100.5,630.54 100.5,650.51 100.5,667.68" fill="none" id="AnyState-to-Terminating" style="stroke:#4A148C;stroke-width:1;"/><polygon fill="#4A148C" points="100.5,672.68,104.5,663.68,100.5,667.68,96.5,663.68,100.5,672.68" style="stroke:#4A148C;stroke-width:1;stroke-linejoin:miter;stroke-miterlimit:10;"/><text fill="#000000" font-family="Helvetica" font-size="11" lengthAdjust="spacing" textLength="119.3779" x="101.5" y="647.2104">on delete or after TTL</text></g><!--link Succeeded to AnyState--><!--link TimedOut to AnyState--><?plantuml-src XLLDRnit4BtlhnZ41mD5PScDd1Xk441H8lJW9eOjv6BbC25d9SBSeK1ovIf1_tk7t0-jL1UrB-Iyj_E6ypZKESpMn769uGb2n4XGeTeOfelY71vSxHM1Ao7wEcvkG3iLni6hiN8SlREM_3ZAfoDhIb9xPUcYqaLuChn5ZnLyH_MqzgvcFNVMUKc370GInG4hR52xPyDhAD466Y2QIgnjN8ZQPwm8_Y2xesWKlinvC3y8BbyFm9dtxla0NGuWTfe2RU7rP12K-fvIS7erh2_tvMS1yE7aF6UVtdnwivWbn7bDlerEPvVJwxb4at8R-mqdE4M9vPAEYNyFn3wxIF-IMImMrn_dfwoXvFM7jrUJoGbZUF2DqGHKRUDUEXQKDzje71T5SxXNTyHQ77W56A1Tzv1tEnE4tEE3G4Uwhxd7stK7pLsrjU9QYnws7U6XLef8ayvul-lW1HhROiso0vQc8lsbZXdgDZr8lZAClUnWtr6GzustcJ3Z_KEEdoskqdzHiBGGl5blOXg1jYjm0uPDD6XFyK5NXAGyPJ6uStfyztL-mZvq8N7J9AcyGHzDYIg6NrSSr8PqRLCu4dgP4V7h74Ro1t-YOTXYtEHjyVZBDrcyxwthYisnuy8ybIG3g2Z03gtHScHT777IHws7mfVwuPvGxuikbl2J-fkDOmXcpMXN_EKUeZZYwWYofBzCB0QVf0ozpv8Wf7K8KjlM-LJF2RVnNOYbB6fF_qdiRe5GE_cDI7TTMxIV8sj94Vq-jp0qFUnxzdWs-JXzExlyDbGEMr9Wl2Tv-fIn-DtIpOhlo0SJOcgd3DpCMlSixF6AvnP3c3iEykGPZb-DivW7xhZJBqhLd5Hsv9D8wlz8RgcFGF9o-DzNd2lFcBmGvFChwyhorbHorDwa5rCRtZbRiwJRPsEr2RxEBm5KHezypV-NlqrrbFxaXWtvJPkbKsdGwd2HjaQkthlZh9r1o_QUDuxq8vcjFGomQ4Z1ciHu-NNoW6MKCfVBspxFBUuRxpcsxXwks-XHta9Dd2hl58h-uho4_WC0?></g></svg>