<svg xmlns="http://www.w3.org/2000/svg" xmlns:xlink="http://www.w3.org/1999/xlink" contentStyleType="text/css" data-diagram-type="STATE" height="756px" preserveAspectRatio="none" style="width:1040px;height:756px;" version="1.1" viewBox="0 0 1040 756" width="1040px" zoomAndPan="magnify"><?plantuml 1.2026.6?><defs/><g><rect fill="#E6E6FA" height="40" rx="12.5" ry="12.5" style="stroke:#4A148C;stroke-width:0.5;" width="62.4316" x="771.57" y="73"/><text fill="#2A0A4A" font-family="Helvetica" font-size="13" lengthAdjust="spacing" textLength="52.4316" x="776.57" y="97.5005">Pending</text><rect fill="#E6E6FA" height="40" rx="12.5" ry="12.5" style="stroke:#4A148C;stroke-width:0.5;" width="89.1235" x="609.07" y="173"/><text fill="#2A0A4A" font-family="Helvetica" font-size="13" lengthAdjust="spacing" textLength="79.1235" x="614.07" y="197.5005">Provisioning</text><rect fill="#E6E6FA" height="40" rx="12.5" ry="12.5" style="stroke:#4A148C;stroke-width:0.5;" width="63.8535" x="464.57" y="273"/><text fill="#2A0A4A" font-family="Helvetica" font-size="13" lengthAdjust="spacing" textLength="53.8535" x="469.57" y="297.5005">Running</text><rect fill="#E6E6FA" height="40" rx="12.5" ry="12.5" style="stroke:#4A148C;stroke-width:0.5;" width="84.7563" x="185.07" y="386"/><text fill="#2A0A4A" font-family="Helvetica" font-size="13" lengthAdjust="spacing" textLength="74.7563" x="190.07" y="410.5005">Completing</text><rect fill="#E6E6FA" height="40" rx="12.5" ry="12.5" style="stroke:#4A148C;stroke-width:0.5;" width="81.2842" x="87.07" y="486"/><text fill="#2A0A4A" font-family="Helvetica" font-size="13" lengthAdjust="spacing" textLength="71.2842" x="92.07" y="510.5005">Succeeded</text><rect fill="#E6E6FA" height="40" rx="12.5" ry="12.5" style="stroke:#4A148C;stroke-width:0.5;" width="50" x="598.57" y="486"/><text fill="#2A0A4A" font-family="Helvetica" font-size="13" lengthAdjust="spacing" textLength="38.9175" x="604.1113" y="510.5005">Failed</text><rect fill="#E6E6FA" height="40" rx="12.5" ry="12.5" style="stroke:#4A148C;stroke-width:0.5;" width="74.0352" x="221.57" y="486"/><text fill="#2A0A4A" font-family="Helvetica" font-size="13" lengthAdjust="spacing" textLength="64.0352" x="226.57" y="510.5005">TimedOut</text><rect fill="#E6E6FA" height="40" rx="12.5" ry="12.5" style="stroke:#4A148C;stroke-width:0.5;" width="88.9648" x="195.07" y="702"/><text fill="#2A0A4A" font-family="Helvetica" font-size="13" lengthAdjust="spacing" textLength="78.9648" x="200.07" y="726.5005">Terminating</text><rect fill="#F5F5F5" height="40" rx="12.5" ry="12.5" style="stroke:#4A148C;stroke-width:0.5;" width="70.9629" x="171.07" y="587.5"/><text fill="#2A0A4A" font-family="Helvetica" font-size="13" lengthAdjust="spacing" textLength="23.8989" x="176.07" y="612.0005">any</text><text fill="#2A0A4A" font-family="Helvetica" font-size="13" lengthAdjust="spacing" textLength="4.1323" x="199.9689" y="612.0005">&#160;</text><text fill="#2A0A4A" font-family="Helvetica" font-size="13" lengthAdjust="spacing" textLength="32.9316" x="204.1013" y="612.0005">state</text><g class="start_entity" data-qualified-name=".start." data-source-line="19" id="ent0010"><ellipse cx="802.57" cy="16" fill="#4A148C" rx="10" ry="10" style="stroke:#222222;stroke-width:1;"/></g><g class="entity" data-qualified-name="GMN28" data-source-line="15" id="ent0029"><path d="M728.57,181.5 L728.57,189 L698.25,193 L728.57,197 L728.57,204.3047 A0,0 0 0 0 728.57,204.3047 L844.3591,204.3047 A0,0 0 0 0 844.3591,204.3047 L844.3591,191.5 L834.3591,181.5 L728.57,181.5 A0,0 0 0 0 728.57,181.5" fill="#FFF8DC" style="stroke:#8B7500;stroke-width:0.5;"/><path d="M834.3591,181.5 L834.3591,191.5 L844.3591,191.5 L834.3591,181.5" fill="#FFF8DC" style="stroke:#8B7500;stroke-width:0.5;"/><text fill="#000000" font-family="Helvetica" font-size="11" lengthAdjust="spacing" textLength="45.4019" x="734.57" y="196.7104">creating</text><text fill="#000000" font-family="Helvetica" font-size="11" lengthAdjust="spacing" textLength="3.4966" x="779.9719" y="196.7104">&#160;</text><text fill="#000000" font-family="Helvetica" font-size="11" lengthAdjust="spacing" textLength="45.8906" x="783.4684" y="196.7104">Pod/PVC</text></g><g class="entity" data-qualified-name="GMN31" data-source-line="16" id="ent0032"><path d="M300.57,388 L300.57,402 L270.26,406 L300.57,410 L300.57,423.6094 A0,0 0 0 0 300.57,423.6094 L436.6296,423.6094 A0,0 0 0 0 436.6296,423.6094 L436.6296,398 L426.6296,388 L300.57,388 A0,0 0 0 0 300.57,388" fill="#FFF8DC" style="stroke:#8B7500;stroke-width:0.5;"/><path d="M426.6296,388 L426.6296,398 L436.6296,398 L426.6296,388" fill="#FFF8DC" style="stroke:#8B7500;stroke-width:0.5;"/><text fill="#000000" font-family="Helvetica" font-size="11" lengthAdjust="spacing" textLength="53.0288" x="306.57" y="403.2104">collecting</text><text fill="#000000" font-family="Helvetica" font-size="11" lengthAdjust="spacing" textLength="3.4966" x="359.5988" y="403.2104">&#160;</text><text fill="#000000" font-family="Helvetica" font-size="11" lengthAdjust="spacing" textLength="48.834" x="363.0954" y="403.2104">artifacts,</text><text fill="#000000" font-family="Helvetica" font-size="11" lengthAdjust="spacing" textLength="59.5386" x="306.57" y="416.0151">scheduling</text><text fill="#000000" font-family="Helvetica" font-size="11" lengthAdjust="spacing" textLength="3.4966" x="366.1086" y="416.0151">&#160;</text><text fill="#000000" font-family="Helvetica" font-size="11" lengthAdjust="spacing" textLength="52.0244" x="369.6052" y="416.0151">teardown</text></g><g class="entity" data-qualified-name="GMN34" data-source-line="40" id="ent0035"><path d="M657.07,573 L657.07,642.2188 A0,0 0 0 0 657.07,642.2188 L884.0192,642.2188 A0,0 0 0 0 884.0192,642.2188 L884.0192,583 L874.0192,573 L724.99,573 L648.84,524.1 L716.99,573 L657.07,573 A0,0 0 0 0 657.07,573" fill="#FFF8DC" style="stroke:#8B7500;stroke-width:0.5;"/><path d="M874.0192,573 L874.0192,583 L884.0192,583 L874.0192,573" fill="#FFF8DC" style="stroke:#8B7500;stroke-width:0.5;"/><text fill="#000000" font-family="Helvetica" font-size="11" lengthAdjust="spacing" textLength="48.0713" x="663.07" y="588.2104">Pending:</text><text fill="#000000" font-family="Helvetica" font-size="11" lengthAdjust="spacing" textLength="3.4966" x="711.1413" y="588.2104">&#160;</text><text fill="#000000" font-family="Helvetica" font-size="11" lengthAdjust="spacing" textLength="125.6943" x="714.6379" y="588.2104">PersistenceNotAllowed</text><text fill="#000000" font-family="Helvetica" font-size="11" lengthAdjust="spacing" textLength="3.4966" x="840.3322" y="588.2104">&#160;</text><text fill="#000000" font-family="Helvetica" font-size="11" lengthAdjust="spacing" textLength="11.2524" x="843.8288" y="588.2104">or</text><text fill="#000000" font-family="Helvetica" font-size="11" lengthAdjust="spacing" textLength="137.645" x="663.07" y="601.0151">ClassConstraintViolation.</text><text fill="#000000" font-family="Helvetica" font-size="11" lengthAdjust="spacing" textLength="3.4966" x="800.715" y="601.0151">&#160;</text><text fill="#000000" font-family="Helvetica" font-size="11" lengthAdjust="spacing" textLength="19.2715" x="804.2116" y="601.0151">Not</text><text fill="#000000" font-family="Helvetica" font-size="11" lengthAdjust="spacing" textLength="3.4966" x="823.4831" y="601.0151">&#160;</text><text fill="#000000" font-family="Helvetica" font-size="11" lengthAdjust="spacing" textLength="40.4282" x="826.9797" y="601.0151">retried.</text><line style="stroke:#8B7500;stroke-width:1;stroke-dasharray:1,2;" x1="658.07" x2="883.0192" y1="603.6094" y2="603.6094"/><text fill="#000000" font-family="Helvetica" font-size="11" lengthAdjust="spacing" textLength="66.9507" x="663.07" y="617.8198">Provisioning</text><text fill="#000000" font-family="Helvetica" font-size="11" lengthAdjust="spacing" textLength="3.4966" x="730.0207" y="617.8198">&#160;</text><text fill="#000000" font-family="Helvetica" font-size="11" lengthAdjust="spacing" textLength="20.6948" x="733.5173" y="617.8198">and</text><text fill="#000000" font-family="Helvetica" font-size="11" lengthAdjust="spacing" textLength="3.4966" x="754.2121" y="617.8198">&#160;</text><text fill="#000000" font-family="Helvetica" font-size="11" lengthAdjust="spacing" textLength="45.5684" x="757.7087" y="617.8198">Running</text><text fill="#000000" font-family="Helvetica" font-size="11" lengthAdjust="spacing" textLength="3.4966" x="803.277" y="617.8198">&#160;</text><text fill="#000000" font-family="Helvetica" font-size="11" lengthAdjust="spacing" textLength="40.7183" x="806.7736" y="617.8198">failures</text><text fill="#000000" font-family="Helvetica" font-size="11" lengthAdjust="spacing" textLength="3.4966" x="847.4919" y="617.8198">&#160;</text><text fill="#000000" font-family="Helvetica" font-size="11" lengthAdjust="spacing" textLength="18.0308" x="850.9885" y="617.8198">are</text><text fill="#000000" font-family="Helvetica" font-size="11" lengthAdjust="spacing" textLength="36.9316" x="663.07" y="630.6245">retried</text><text fill="#000000" font-family="Helvetica" font-size="11" lengthAdjust="spacing" textLength="3.4966" x="700.0016" y="630.6245">&#160;</text><text fill="#000000" font-family="Helvetica" font-size="11" lengthAdjust="spacing" textLength="32.2158" x="703.4982" y="630.6245">under</text><text fill="#000000" font-family="Helvetica" font-size="11" lengthAdjust="spacing" textLength="3.4966" x="735.714" y="630.6245">&#160;</text><text fill="#000000" font-family="Helvetica" font-size="11" lengthAdjust="spacing" textLength="71.3818" x="739.2106" y="630.6245">backoffLimit.</text></g><!--link *start* to Pending--><g class="link" data-entity-1="ent0010" data-entity-2="ent0001" data-link-type="dependency" data-source-line="19" id="lnk11"><path d="M802.57,26.2 C802.57,37.77 802.57,52.96 802.57,67.93" fill="none" id="*start*-to-Pending" style="stroke:#4A148C;stroke-width:1;"/><polygon fill="#4A148C" points="802.57,72.93,806.57,63.93,802.57,67.93,798.57,63.93,802.57,72.93" style="stroke:#4A148C;stroke-width:1;stroke-linejoin:miter;stroke-miterlimit:10;"/></g><!--link Pending to Provisioning--><g class="link" data-entity-1="ent0001" data-entity-2="ent0002" data-link-type="dependency" data-source-line="20" id="lnk12"><path d="M773.49,113.13 C747.24,130.4 712.9876,152.9226 686.7576,170.1726" fill="none" id="Pending-to-Provisioning" style="stroke:#4A148C;stroke-width:1;"/><polygon fill="#4A148C" points="682.58,172.92,692.2975,171.3168,686.7576,170.1726,687.9017,164.6327,682.58,172.92" style="stroke:#4A148C;stroke-width:1;stroke-linejoin:miter;stroke-miterlimit:10;"/><text fill="#000000" font-family="Helvetica" font-size="11" lengthAdjust="spacing" textLength="58.7383" x="737.57" y="147.2104">references</text><text fill="#000000" font-family="Helvetica" font-size="11" lengthAdjust="spacing" textLength="3.4966" x="796.3083" y="147.2104">&#160;</text><text fill="#000000" font-family="Helvetica" font-size="11" lengthAdjust="spacing" textLength="51.1489" x="799.8049" y="147.2104">validated</text></g><!--link Provisioning to Running--><g class="link" data-entity-1="ent0002" data-entity-2="ent0003" data-link-type="dependency" data-source-line="21" id="lnk13"><path d="M608.96,204.43 C586.96,211.04 560.86,221.2 540.57,236 C527.09,245.84 518.3264,256.6853 510.4664,268.7053" fill="none" id="Provisioning-to-Running" style="stroke:#4A148C;stroke-width:1;"/><polygon fill="#4A148C" points="507.73,272.89,516.0034,267.5466,510.4664,268.7053,509.3078,263.1683,507.73,272.89" style="stroke:#4A148C;stroke-width:1;stroke-linejoin:miter;stroke-miterlimit:10;"/><text fill="#000000" font-family="Helvetica" font-size="11" lengthAdjust="spacing" textLength="20.3457" x="541.57" y="247.2104">Pod</text><text fill="#000000" font-family="Helvetica" font-size="11" lengthAdjust="spacing" textLength="3.4966" x="561.9157" y="247.2104">&#160;</text><text fill="#000000" font-family="Helvetica" font-size="11" lengthAdjust="spacing" textLength="34.6436" x="565.4123" y="247.2104">Ready</text></g><!--link Running to Completing--><g class="link" data-entity-1="ent0003" data-entity-2="ent0004" data-link-type="dependency" data-source-line="22" id="lnk14"><path d="M464.33,303.64 C438.85,311.54 402.55,323.43 371.57,336 C334.33,351.11 297.5375,368.9749 268.7675,383.5949" fill="none" id="Running-to-Completing" style="stroke:#4A148C;stroke-width:1;"/><polygon fill="#4A148C" points="264.31,385.86,274.1456,385.3487,268.7675,383.5949,270.5213,378.2168,264.31,385.86" style="stroke:#4A148C;stroke-width:1;stroke-linejoin:miter;stroke-miterlimit:10;"/><text fill="#000000" font-family="Helvetica" font-size="11" lengthAdjust="spacing" textLength="61.3701" x="372.57" y="347.2104">completion</text><text fill="#000000" font-family="Helvetica" font-size="11" lengthAdjust="spacing" textLength="3.4966" x="433.9401" y="347.2104">&#160;</text><text fill="#000000" font-family="Helvetica" font-size="11" lengthAdjust="spacing" textLength="36.0347" x="437.4367" y="347.2104">signal,</text><text fill="#000000" font-family="Helvetica" font-size="11" lengthAdjust="spacing" textLength="46.3633" x="380.393" y="360.0151">timeout,</text><text fill="#000000" font-family="Helvetica" font-size="11" lengthAdjust="spacing" textLength="3.4966" x="426.7563" y="360.0151">&#160;</text><text fill="#000000" font-family="Helvetica" font-size="11" lengthAdjust="spacing" textLength="11.2524" x="430.2529" y="360.0151">or</text><text fill="#000000" font-family="Helvetica" font-size="11" lengthAdjust="spacing" textLength="3.4966" x="441.5053" y="360.0151">&#160;</text><text fill="#000000" font-family="Helvetica" font-size="11" lengthAdjust="spacing" textLength="20.6465" x="445.0019" y="360.0151">exit</text></g><!--link Completing to Succeeded--><g class="link" data-entity-1="ent0004" data-entity-2="ent0005" data-link-type="dependency" data-source-line="23" id="lnk15"><path d="M184.89,417.56 C167.71,423.92 149.24,433.83 137.57,449 C129.57,459.41 127.3674,469.1235 126.9274,480.8535" fill="none" id="Completing-to-Succeeded" style="stroke:#4A148C;stroke-width:1;"/><polygon fill="#4A148C" points="126.74,485.85,131.0745,477.0063,126.9274,480.8535,123.0802,476.7064,126.74,485.85" style="stroke:#4A148C;stroke-width:1;stroke-linejoin:miter;stroke-miterlimit:10;"/><text fill="#000000" font-family="Helvetica" font-size="11" lengthAdjust="spacing" textLength="43.0278" x="138.57" y="460.2104">success</text><text fill="#000000" font-family="Helvetica" font-size="11" lengthAdjust="spacing" textLength="3.4966" x="181.5978" y="460.2104">&#160;</text><text fill="#000000" font-family="Helvetica" font-size="11" lengthAdjust="spacing" textLength="47.5879" x="185.0944" y="460.2104">reported</text></g><!--link Completing to Failed--><g class="link" data-entity-1="ent0004" data-entity-2="ent0006" data-link-type="dependency" data-source-line="24" id="lnk16"><path d="M270.22,424.29 C301.68,436.5 345.75,452.51 385.57,463 C461.85,483.1 549.4905,495.6949 593.3005,501.3049" fill="none" id="Completing-to-Failed" style="stroke:#4A148C;stroke-width:1;"/><polygon fill="#4A148C" points="598.26,501.94,589.841,496.8293,593.3005,501.3049,588.8248,504.7645,598.26,501.94" style="stroke:#4A148C;stroke-width:1;stroke-linejoin:miter;stroke-miterlimit:10;"/><text fill="#000000" font-family="Helvetica" font-size="11" lengthAdjust="spacing" textLength="34.9873" x="386.57" y="460.2104">failure</text><text fill="#000000" font-family="Helvetica" font-size="11" lengthAdjust="spacing" textLength="3.4966" x="421.5573" y="460.2104">&#160;</text><text fill="#000000" font-family="Helvetica" font-size="11" lengthAdjust="spacing" textLength="47.5879" x="425.0539" y="460.2104">reported</text></g><!--link Completing to TimedOut--><g class="link" data-entity-1="ent0004" data-entity-2="ent0007" data-link-type="dependency" data-source-line="25" id="lnk17"><path d="M233.7,426.36 C239.13,443.54 245.5224,463.7427 250.9524,480.9127" fill="none" id="Completing-to-TimedOut" style="stroke:#4A148C;stroke-width:1;"/><polygon fill="#4A148C" points="252.46,485.68,253.5601,475.8928,250.9524,480.9127,245.9324,478.305,252.46,485.68" style="stroke:#4A148C;stroke-width:1;stroke-linejoin:miter;stroke-miterlimit:10;"/><text fill="#000000" font-family="Helvetica" font-size="11" lengthAdjust="spacing" textLength="42.8667" x="245.57" y="460.2104">timeout</text><text fill="#000000" font-family="Helvetica" font-size="11" lengthAdjust="spacing" textLength="3.4966" x="288.4367" y="460.2104">&#160;</text><text fill="#000000" font-family="Helvetica" font-size="11" lengthAdjust="spacing" textLength="14.3408" x="291.9333" y="460.2104">hit</text></g><!--link Pending to Failed--><g class="link" data-entity-1="ent0001" data-entity-2="ent0006" data-link-type="dependency" data-source-line="28" id="lnk18"><path d="M833.58,104.42 C868.54,118.37 920.57,146.73 920.57,192 C920.57,192 920.57,192 920.57,407 C920.57,464.08 725.2035,492.8969 653.6035,501.5969" fill="none" id="Pending-to-Failed" style="stroke:#0D47A1;stroke-width:1;"/><polygon fill="#0D47A1" points="648.64,502.2,658.0568,505.0852,653.6035,501.5969,657.0918,497.1436,648.64,502.2" style="stroke:#0D47A1;stroke-width:1;stroke-linejoin:miter;stroke-miterlimit:10;"/><text fill="#000000" font-family="Helvetica" font-size="11" lengthAdjust="spacing" textLength="25.5288" x="921.57" y="297.2104">spec</text><text fill="#000000" font-family="Helvetica" font-size="11" lengthAdjust="spacing" textLength="3.4966" x="947.0988" y="297.2104">&#160;</text><text fill="#000000" font-family="Helvetica" font-size="11" lengthAdjust="spacing" textLength="74.3252" x="950.5954" y="297.2104">irreconcilable</text></g><!--link Provisioning to Failed--><g class="link" data-entity-1="ent0002" data-entity-2="ent0006" data-link-type="dependency" data-source-line="29" id="lnk19"><path d="M687.19,213.04 C734.26,242.38 811.12,301.72 783.57,363 C755.78,424.82 690.6544,468.2125 653.0544,489.4325" fill="none" id="Provisioning-to-Failed" style="stroke:#0D47A1;stroke-width:1;"/><polygon fill="#0D47A1" points="648.7,491.89,658.5039,490.9501,653.0544,489.4325,654.572,483.983,648.7,491.89" style="stroke:#0D47A1;stroke-width:1;stroke-linejoin:miter;stroke-miterlimit:10;"/><text fill="#000000" font-family="Helvetica" font-size="11" lengthAdjust="spacing" textLength="49.9351" x="789.57" y="353.7104">Pod-start</text><text fill="#000000" font-family="Helvetica" font-size="11" lengthAdjust="spacing" textLength="3.4966" x="839.5051" y="353.7104">&#160;</text><text fill="#000000" font-family="Helvetica" font-size="11" lengthAdjust="spacing" textLength="27.0649" x="843.0016" y="353.7104">error</text></g><!--link Failed to Provisioning--><g class="link" data-entity-1="ent0006" data-entity-2="ent0002" data-link-type="dependency" data-source-line="31" id="lnk21"><path d="M620.92,485.9 C617.01,454.5 610.83,390.04 617.57,336 C623.18,291.08 636.8454,244.7254 645.6054,217.7554" fill="none" id="Failed-to-Provisioning" style="stroke:#0D47A1;stroke-width:1;"/><polygon fill="#0D47A1" points="647.15,213,640.5654,220.3241,645.6054,217.7554,648.1741,222.7955,647.15,213" style="stroke:#0D47A1;stroke-width:1;stroke-linejoin:miter;stroke-miterlimit:10;"/><text fill="#000000" font-family="Helvetica" font-size="11" lengthAdjust="spacing" textLength="26.6353" x="667.6161" y="347.2104">retry</text><text fill="#000000" font-family="Helvetica" font-size="11" lengthAdjust="spacing" textLength="3.4966" x="694.2514" y="347.2104">&#160;</text><text fill="#000000" font-family="Helvetica" font-size="11" lengthAdjust="spacing" textLength="28.8481" x="697.748" y="347.2104">while</text><text fill="#000000" font-family="Helvetica" font-size="11" lengthAdjust="spacing" textLength="72.9771" x="618.57" y="360.0151">status.retries</text><text fill="#000000" font-family="Helvetica" font-size="11" lengthAdjust="spacing" textLength="3.4966" x="691.5471" y="360.0151">&#160;</text><text fill="#000000" font-family="Helvetica" font-size="11" lengthAdjust="spacing" textLength="9.2168" x="695.0436" y="360.0151">&lt;</text><text fill="#000000" font-family="Helvetica" font-size="11" lengthAdjust="spacing" textLength="3.4966" x="704.2604" y="360.0151">&#160;</text><text fill="#000000" font-family="Helvetica" font-size="11" lengthAdjust="spacing" textLength="67.8853" x="707.757" y="360.0151">backoffLimit</text></g><!--link Running to Failed--><g class="link" data-entity-1="ent0003" data-entity-2="ent0006" data-link-type="dependency" data-source-line="30" id="lnk20"><path d="M495.68,313.44 C495.33,340.63 498.04,390.63 519.57,426 C538.32,456.79 569.494,477.4463 593.764,490.4663" fill="none" id="Running-to-Failed" style="stroke:#0D47A1;stroke-width:1;"/><polygon fill="#0D47A1" points="598.17,492.83,592.1301,485.0506,593.764,490.4663,588.3482,492.1002,598.17,492.83" style="stroke:#0D47A1;stroke-width:1;stroke-linejoin:miter;stroke-miterlimit:10;"/><text fill="#000000" font-family="Helvetica" font-size="11" lengthAdjust="spacing" textLength="20.3457" x="520.57" y="410.2104">Pod</text><text fill="#000000" font-family="Helvetica" font-size="11" lengthAdjust="spacing" textLength="3.4966" x="540.9157" y="410.2104">&#160;</text><text fill="#000000" font-family="Helvetica" font-size="11" lengthAdjust="spacing" textLength="55.3169" x="544.4123" y="410.2104">disruption</text></g><!--link AnyState to Terminating--><g class="link" data-entity-1="ent0009" data-entity-2="ent0008" data-link-type="dependency" data-source-line="34" id="lnk22"><path d="M188,627.71 C176.44,642.1 165.38,662.12 174.57,679 C179.65,688.32 183.6481,693.0745 192.4681,699.0845" fill="none" id="AnyState-to-Terminating" style="stroke:#4A148C;stroke-width:1;"/><polygon fill="#4A148C" points="196.6,701.9,191.4149,693.5265,192.4681,699.0845,186.9101,700.1376,196.6,701.9" style="stroke:#4A148C;stroke-width:1;stroke-linejoin:miter;stroke-miterlimit:10;"/><text fill="#000000" font-family="Helvetica" font-size="11" lengthAdjust="spacing" textLength="44.6445" x="175.57" y="676.2104">deletion</text><text fill="#000000" font-family="Helvetica" font-size="11" lengthAdjust="spacing" textLength="3.4966" x="220.2145" y="676.2104">&#160;</text><text fill="#000000" font-family="Helvetica" font-size="11" lengthAdjust="spacing" textLength="55.8057" x="223.7111" y="676.2104">requested</text></g><!--link Succeeded to Terminating--><g class="link" data-entity-1="ent0005" data-entity-2="ent0008" data-link-type="dependency" data-source-line="35" id="lnk23"><path d="M87.05,521.28 C63.99,531.74 37.07,548.45 23.57,573 C8.8,599.87 6,616.87 23.57,642 C62.12,697.14 138.524,713.4305 189.654,718.4605" fill="none" id="Succeeded-to-Terminating" style="stroke:#0D47A1;stroke-width:1;"/><polygon fill="#0D47A1" points="194.63,718.95,186.0649,714.0881,189.654,718.4605,185.2816,722.0496,194.63,718.95" style="stroke:#0D47A1;stroke-width:1;stroke-linejoin:miter;stroke-miterlimit:10;"/><text fill="#000000" font-family="Helvetica" font-size="11" lengthAdjust="spacing" textLength="130.7593" x="24.57" y="605.2104">ttlSecondsAfterFinished</text><text fill="#000000" font-family="Helvetica" font-size="11" lengthAdjust="spacing" textLength="41.5884" x="69.1554" y="618.0151">expired</text></g><!--link Failed to Terminating--><g class="link" data-entity-1="ent0006" data-entity-2="ent0008" data-link-type="dependency" data-source-line="36" id="lnk24"><path d="M598.52,519.92 C575.07,532.4 539.42,552.4 510.57,573 C472.36,600.29 470.55,617.38 430.57,642 C383.67,670.88 329.0769,691.9293 289.0969,705.4393" fill="none" id="Failed-to-Terminating" style="stroke:#0D47A1;stroke-width:1;"/><polygon fill="#0D47A1" points="284.36,707.04,294.1669,707.9483,289.0969,705.4393,291.6058,700.3693,284.36,707.04" style="stroke:#0D47A1;stroke-width:1;stroke-linejoin:miter;stroke-miterlimit:10;"/><text fill="#000000" font-family="Helvetica" font-size="11" lengthAdjust="spacing" textLength="130.7593" x="511.57" y="605.2104">ttlSecondsAfterFinished</text><text fill="#000000" font-family="Helvetica" font-size="11" lengthAdjust="spacing" textLength="41.5884" x="556.1554" y="618.0151">expired</text></g><!--link TimedOut to Terminating--><g class="link" data-entity-1="ent0007" data-entity-2="ent0008" data-link-type="dependency" data-source-line="37" id="lnk25"><path d="M267.52,526.16 C281.44,558.85 304.51,626.9 282.57,679 C278.93,687.66 276.1555,691.9768 269.3955,698.3968" fill="none" id="TimedOut-to-Terminating" style="stroke:#0D47A1;stroke-width:1;"/><polygon fill="#0D47A1" points="265.77,701.84,275.0505,698.5427,269.3955,698.3968,269.5414,692.7418,265.77,701.84" style="stroke:#0D47A1;stroke-width:1;stroke-linejoin:miter;stroke-miterlimit:10;"/><text fill="#000000" font-family="Helvetica" font-size="11" lengthAdjust="spacing" textLength="130.7593" x="292.57" y="605.2104">ttlSecondsAfterFinished</text><text fill="#000000" font-family="Helvetica" font-size="11" lengthAdjust="spacing" textLength="41.5884" x="337.1554" y="618.0151">expired</text></g><!--link Succeeded to AnyState--><!--link TimedOut to AnyState--><?plantuml-src fLJVQnin37w_lqBh1eNHNZOO3CeOP1bzwhRIbBwqPRYsBcVgipDPRfl_VlBzoYLj7yRk9PRqIPQ_JyeXp5Ve-LB5UuYi6A5HkhOUo-8GbY6HHWWLC2MkJy047MUHz4m7pnISGvgnf1uxMw7UQ8TbOuetrckN3CBlo1jnhLFZYgAhVd2EtbY_EW0LeJ-F8GeFDjhWn_Z4CO0kaX_Z_Na8BKApTiX3T6iEW6NI6j6WQUEZDOHFbNLzh3iEWKlReFcLk0qDnXX4QgnNuxKJUu0el-d8RG5plrcs_dTDOZJVLaNXWvXaLpLdigVFXXFGX6qrE0zcTdwrs4DldvcnMHFT6ehOLafpFBhnKTTeaijkHaKcFFf2z3sM3tuews6jk6xDulhzhHo-Zjhqlvrljp722WcznWWFobaZRpB53YOdzI89Nlg72rHcKmo-7D_hlpE2XsXNNZbfdeNmaFW80W4-MIuc6Rd0gAFantoEKLfR1yhjx64xNGLOoI4HlWeSL1PeVp_KSlL0sccVhhoH4aoRbi7OKJXITltsm_TFd-SVRwStnpLgi4GeEwIjKtSEzqXxCKt8EvOP8WOa2hIby3Kq61ifhJENHU_VmJuJCx_YiHQWp8lCPufbzbbHzmlSANqVgkhCDXCIBljHwbuzZdLBttO9fBR1NbF2FmbZfdihsavJktdCRfbfCd5UCTAfzJRA8DzuV5fRaYellUiVIun2_q-HRYNl0dDeyaxsVnymR948WXIjl5osvMVWkNFXKHeN7G4MJiMu248woIhobGrEPRPA42Hq6fXIWALykUPKk3o0moZqCnrbzL5mVIOaRv1s52mBQGjopwEMPshJpRZdVegd2jNM6FIPc47bAM_Fety1?></g></svg>